<svg width="12" height="12" viewBox="0 0 12 12" fill="none" xmlns="http://www.w3.org/2000/svg">
<path d="M1.84615 7.84555H0.923077C0.413365 7.84555 0 8.25892 0 8.76863V10.6148C0 11.1245 0.413365 11.5379 0.923077 11.5379H1.84615C2.35587 11.5379 2.76923 11.1245 2.76923 10.6148V8.76863C2.76923 8.25892 2.35587 7.84555 1.84615 7.84555ZM6.46154 4.15325H5.53846C5.02875 4.15325 4.61538 4.56661 4.61538 5.07632V10.6148C4.61538 11.1245 5.02875 11.5379 5.53846 11.5379H6.46154C6.97125 11.5379 7.38462 11.1245 7.38462 10.6148V5.07632C7.38462 4.56661 6.97125 4.15325 6.46154 4.15325ZM11.0769 0.460938H10.1538C9.64413 0.460938 9.23077 0.874303 9.23077 1.38401V10.6148C9.23077 11.1245 9.64413 11.5379 10.1538 11.5379H11.0769C11.5866 11.5379 12 11.1245 12 10.6148V1.38401C12 0.874303 11.5866 0.460938 11.0769 0.460938Z" fill="#2FAC10"/>
</svg>
