<svg width="30" height="30" viewBox="0 0 30 30" fill="none" xmlns="http://www.w3.org/2000/svg">
<path d="M15 0C6.72738 0 0 6.72738 0 15C0 23.2726 6.72738 30 15 30C23.2726 30 30 23.2726 30 15C30 6.72738 23.2726 0 15 0ZM15 2.00012C22.1917 2.00012 28 7.80857 28 15.0001C28 22.1917 22.1915 28.0001 15 28.0001C7.80845 28.0001 2 22.1917 2 15.0001C2 7.80857 7.80845 2.00012 15 2.00012ZM22.0524 8.98941C21.791 8.99987 21.5443 9.11194 21.3648 9.3019L12.9999 17.896L9.46875 14.2606C9.28413 14.0685 9.03023 13.9579 8.76375 13.9534C8.49729 13.9488 8.23989 14.0506 8.04875 14.2364C7.85739 14.422 7.74811 14.6763 7.74485 14.9428C7.7416 15.2092 7.8446 15.4662 8.03131 15.6564L12.2812 20.0314C12.4698 20.2262 12.729 20.3362 12.9999 20.3362C13.271 20.3362 13.5303 20.2262 13.7188 20.0314L22.8021 10.698C22.9942 10.5071 23.1007 10.2465 23.0972 9.97558C23.0935 9.70493 22.9805 9.44707 22.7835 9.26129C22.5866 9.07551 22.3228 8.97732 22.0524 8.98941Z" fill="#2FAC10"/>
</svg>
