<svg width="70" height="70" viewBox="0 0 70 70" fill="none" xmlns="http://www.w3.org/2000/svg">
<path d="M35 63C19.561 63 7 50.439 7 35C7 19.561 19.561 7 35 7C50.439 7 63 19.561 63 35C63 50.439 50.439 63 35 63ZM35 10.293C21.375 10.293 10.293 21.374 10.293 35C10.293 48.626 21.374 59.707 35 59.707C48.626 59.707 59.707 48.626 59.707 35C59.707 21.374 48.626 10.293 35 10.293Z" fill="#F9301A"/>
<path d="M44.23 41.7828C44.9124 42.4652 44.9124 43.575 44.2265 44.2574C43.5441 44.9398 42.4343 44.9363 41.7519 44.2539L25.7709 28.2169C25.0885 27.5305 25.0885 26.4247 25.7744 25.7388C26.4607 25.0599 27.5666 25.0599 28.249 25.7458L44.23 41.7828Z" fill="#F9301A"/>
<path d="M25.7699 41.7834C25.0875 42.4658 25.0875 43.5756 25.7734 44.258C26.4559 44.9404 27.5656 44.9369 28.248 44.2545L44.225 28.2135C44.9075 27.5275 44.9075 26.4213 44.2215 25.7354C43.5356 25.0604 42.4332 25.0604 41.7508 25.7463L25.7699 41.7834Z" fill="#F9301A"/>
</svg>
