<svg width="16" height="16" viewBox="0 0 16 16" fill="none" xmlns="http://www.w3.org/2000/svg">
<path d="M8.47115 6.09961H7.54808C7.03837 6.09961 6.625 6.51297 6.625 7.02269V12.5611C6.625 13.0709 7.03837 13.4842 7.54808 13.4842H8.47115C8.98087 13.4842 9.39423 13.0709 9.39423 12.5611V7.02269C9.39423 6.51297 8.98087 6.09961 8.47115 6.09961Z" fill="#E1E2E8"/>
<path d="M3.84615 9.77246H2.92308C2.41337 9.77246 2 10.1858 2 10.6955V12.5417C2 13.0514 2.41337 13.4648 2.92308 13.4648H3.84615C4.35587 13.4648 4.76923 13.0514 4.76923 12.5417V10.6955C4.76923 10.1858 4.35587 9.77246 3.84615 9.77246Z" fill="#2FAC10"/>
<path d="M13.0761 2.40039H12.1531C11.6433 2.40039 11.23 2.81376 11.23 3.32347V12.5542C11.23 13.0639 11.6433 13.4773 12.1531 13.4773H13.0761C13.5858 13.4773 13.9992 13.0639 13.9992 12.5542V3.32347C13.9992 2.81376 13.5858 2.40039 13.0761 2.40039Z" fill="#E1E2E8"/>
</svg>
