<svg width="16" height="16" viewBox="0 0 16 16" fill="none" xmlns="http://www.w3.org/2000/svg">
<path d="M3.84615 9.85246H2.92308C2.41337 9.85246 2 10.2658 2 10.7755V12.6217C2 13.1314 2.41337 13.5448 2.92308 13.5448H3.84615C4.35587 13.5448 4.76923 13.1314 4.76923 12.6217V10.7755C4.76923 10.2658 4.35587 9.85246 3.84615 9.85246ZM8.46154 6.16016H7.53846C7.02875 6.16016 6.61538 6.57352 6.61538 7.08323V12.6217C6.61538 13.1314 7.02875 13.5448 7.53846 13.5448H8.46154C8.97125 13.5448 9.38462 13.1314 9.38462 12.6217V7.08323C9.38462 6.57352 8.97125 6.16016 8.46154 6.16016Z" fill="#2FAC10"/>
<path d="M13.0761 2.45996H12.1531C11.6433 2.45996 11.23 2.87333 11.23 3.38304V12.6138C11.23 13.1235 11.6433 13.5369 12.1531 13.5369H13.0761C13.5858 13.5369 13.9992 13.1235 13.9992 12.6138V3.38304C13.9992 2.87333 13.5858 2.45996 13.0761 2.45996Z" fill="#E1E2E8"/>
</svg>
