<svg width="16" height="16" viewBox="0 0 16 16" fill="none" xmlns="http://www.w3.org/2000/svg">
<path d="M3.84615 9.84616H2.92308C2.41337 9.84616 2 10.2595 2 10.7692V12.6154C2 13.1251 2.41337 13.5385 2.92308 13.5385H3.84615C4.35587 13.5385 4.76923 13.1251 4.76923 12.6154V10.7692C4.76923 10.2595 4.35587 9.84616 3.84615 9.84616ZM8.46154 6.15386H7.53846C7.02875 6.15386 6.61538 6.56722 6.61538 7.07693V12.6154C6.61538 13.1251 7.02875 13.5385 7.53846 13.5385H8.46154C8.97125 13.5385 9.38462 13.1251 9.38462 12.6154V7.07693C9.38462 6.56722 8.97125 6.15386 8.46154 6.15386ZM13.0769 2.46155H12.1538C11.6441 2.46155 11.2308 2.87491 11.2308 3.38462V12.6154C11.2308 13.1251 11.6441 13.5385 12.1538 13.5385H13.0769C13.5866 13.5385 14 13.1251 14 12.6154V3.38462C14 2.87491 13.5866 2.46155 13.0769 2.46155Z" fill="#2FAC10"/>
</svg>
