<svg id="eE7YKDI1F531" xmlns="http://www.w3.org/2000/svg" xmlns:xlink="http://www.w3.org/1999/xlink" viewBox="0 0 622 280" shape-rendering="geometricPrecision" text-rendering="geometricPrecision"><g id="eE7YKDI1F532" transform="translate(-350.154-677.853)" opacity="0"><g transform="translate(580.312 750.773)"><g><path d="M12.437,0h136.81c3.298497,0,6.461897,1.310323,8.794287,3.642713s3.642713,5.49579,3.642713,8.794287v166.663c0,3.298497-1.310323,6.461897-3.642713,8.794287s-5.495789,3.642713-8.794287,3.642713h-136.81c-3.298497,0-6.461897-1.310323-8.794287-3.642713s-3.642713-5.49579-3.642713-8.794287L0,12.437C0,5.568235,5.568235,0,12.437,0Z" fill="#fff"/><path d="M12.437,3.731c-4.805907.005511-8.700489,3.900093-8.706,8.706v166.663c.005511,4.805907,3.900093,8.700489,8.706,8.706h136.81c4.805907-.005511,8.700489-3.900093,8.706-8.706v-166.663c-.005511-4.805907-3.900093-8.700489-8.706-8.706h-136.81m0-3.731h136.81c3.298497,0,6.461897,1.310323,8.794287,3.642713s3.642713,5.49579,3.642713,8.794287v166.663c0,3.298497-1.310323,6.461897-3.642713,8.794287s-5.495789,3.642713-8.794287,3.642713h-136.81c-3.298497,0-6.461897-1.310323-8.794287-3.642713s-3.642713-5.49579-3.642713-8.794287L0,12.437C0,5.568235,5.568235,0,12.437,0Z" fill="#454343"/><path d="M12.437,0h129.347c3.298497,0,6.461897,1.310323,8.794287,3.642713s3.642713,5.49579,3.642713,8.794287v166.663c0,3.298497-1.310323,6.461897-3.642713,8.794287s-5.495789,3.642713-8.794287,3.642713h-129.347c-3.298497,0-6.461897-1.310323-8.794287-3.642713s-3.642713-5.49579-3.642713-8.794287L0,12.437C0,5.568235,5.568235,0,12.437,0Z" transform="translate(3.731 11.194)" fill="#454343"/><g id="eE7YKDI1F538" transform="translate(-224.158-71.92)"><path d="M6.564,0h205.5c3.625197,0,6.564,2.938803,6.564,6.564v122.7c0,3.625197-2.938803,6.564-6.564,6.564h-205.5c-1.741748.000001-3.412085-.692248-4.643218-1.924319s-1.922109-2.902934-1.920782-4.644681L0,6.564C0,2.938803,2.938803,0,6.564,0Z" transform="translate(1.515 1.515)" fill="#fff"/><path d="M5.079,-3h205.5c4.459852.00496,8.07404,3.619148,8.079,8.079v122.7c-.00496,4.459852-3.619148,8.07404-8.079,8.079h-205.5c-4.461803-.004964-8.076796-3.622195-8.079-8.084L-3,5.079C-2.99504,0.619148,0.619148,-2.99504,5.079,-3Zm205.5,135.823c2.787115-.003306,5.045694-2.261885,5.049-5.049v-122.695c-.003305-2.786725-2.261275-5.045143-5.048-5.049h-205.501C2.291885,0.033306,0.033306,2.291885,0.03,5.079v122.7c.003306,2.787115,2.261885,5.045694,5.049,5.049Z" transform="translate(3 3)" fill="#454343"/><rect width="221" height="24" rx="0" ry="0" transform="translate(.079 90.393)" fill="#454343"/><rect width="103" height="20" rx="2" ry="2" transform="translate(23.078 32.393)" fill="#454343"/></g><path d="M12.437,0h129.347c3.298497,0,6.461897,1.310323,8.794287,3.642713s3.642713,5.49579,3.642713,8.794287v166.663c0,3.298497-1.310323,6.461897-3.642713,8.794287s-5.495789,3.642713-8.794287,3.642713h-129.347c-3.298497,0-6.461897-1.310323-8.794287-3.642713s-3.642713-5.49579-3.642713-8.794287L0,12.437C0,5.568235,5.568235,0,12.437,0Z" transform="matrix(1 0 0 0.977252 3.731 19.9)" fill="#fff"/><path d="M12.437,0h136.81c3.298497,0,6.461897,1.310323,8.794287,3.642713s3.642713,5.49579,3.642713,8.794287v151.735c0,3.298497-1.310323,6.461897-3.642713,8.794287s-5.495789,3.642713-8.794287,3.642713h-136.81c-3.298497,0-6.461897-1.310323-8.794287-3.642713s-3.642713-5.49579-3.642713-8.794287L0,12.437C0,5.568235,5.568235,0,12.437,0Z" transform="translate(0 30.471)" fill="#fff"/><path d="M12.437,3.731c-4.805907.005511-8.700489,3.900093-8.706,8.706v151.735c.005511,4.805907,3.900093,8.700489,8.706,8.706h136.81c4.805907-.005511,8.700489-3.900093,8.706-8.706v-151.735c-.005511-4.805907-3.900093-8.700489-8.706-8.706h-136.81m0-3.731h136.81c3.298497,0,6.461897,1.310323,8.794287,3.642713s3.642713,5.49579,3.642713,8.794287v151.735c0,3.298497-1.310323,6.461897-3.642713,8.794287s-5.495789,3.642713-8.794287,3.642713h-136.81c-3.298497,0-6.461897-1.310323-8.794287-3.642713s-3.642713-5.49579-3.642713-8.794287L0,12.437C0,5.568235,5.568235,0,12.437,0Z" transform="translate(0 30.471)" fill="#454343"/><path d="M12.437,3.731c-4.805907.005511-8.700489,3.900093-8.706,8.706v151.735c.005511,4.805907,3.900093,8.700489,8.706,8.706h136.81c4.805907-.005511,8.700489-3.900093,8.706-8.706v-151.735c-.005511-4.805907-3.900093-8.700489-8.706-8.706h-136.81m0-3.731h136.81c3.298497,0,6.461897,1.310323,8.794287,3.642713s3.642713,5.49579,3.642713,8.794287v151.735c0,3.298497-1.310323,6.461897-3.642713,8.794287s-5.495789,3.642713-8.794287,3.642713h-136.81c-3.298497,0-6.461897-1.310323-8.794287-3.642713s-3.642713-5.49579-3.642713-8.794287L0,12.437C0,5.568235,5.568235,0,12.437,0Z" transform="matrix(1 0 0 1.06795 0 18.471)" fill="#454343"/></g><g transform="translate(26.078 56.452)"><circle r="8.5" transform="translate(105.268 8.481)" fill="#454343"/><circle r="8.5" transform="translate(73.268 8.481)" fill="#454343"/><circle r="8.5" transform="translate(40.268 8.481)" fill="#454343"/><circle r="8.5" transform="translate(8.268 8.481)" fill="#00dd5b"/><g id="eE7YKDI1F5322" opacity="0"><circle r="8.5" transform="translate(105.268 8.481)" fill="#00dd5b"/><circle r="8.5" transform="translate(73.268 8.481)" fill="#00dd5b"/><circle r="8.5" transform="translate(40.268 8.481)" fill="#00dd5b"/></g><circle id="eE7YKDI1F5326" r="8.5" transform="translate(8.268 8.481)" opacity="0" fill="#454343"/></g><path d="M38.2,61.2C25.9,60.12,15.028,55.556,7.96,48.488c-3.827885-3.654566-6.46941-8.374959-7.582-13.549-.506064-2.844571-.503356-5.756375.008-8.6c1.538-7.161,6.161-13.423,13.448-18.2c16.617-10.896,42.076-10.845,58.541.123c2.017038,1.318951,3.887916,2.848908,5.581,4.564c2.501674,2.471341,4.564463,5.350454,6.1,8.514.20327.204772.469586.335111.756.37c1.496952.43227,2.863155,1.229451,3.976,2.32c1.379872,1.417953,2.582043,2.998574,3.58,4.707c1.874,2.832,10.346,15.91,10.859,16.768.2.336-.193.866-.639.866-.319,0-.538-.21-1.009-.95-.328-.521-2.488-3.875-4.8-7.455C88.6,25.307,88.168,24.719,85.89,23.576l-1.193-.6h-3.514c-3.513,0-3.513,0-3.6.37-.462,2.026-.555,2.521-.454,2.614.067.059,2.059,1.193,4.429,2.521L85.873,30.9l-.269.563c-.151.311-.319.563-.378.563s-3.69-2.009-8.069-4.471-8.22-4.539-8.531-4.623c-1.244-.345-3.16,1.034-3.16,2.278c0,1.261.37,1.622,8.069,7.926c4.8,3.933,7.548,6.3,7.968,6.85.937902,1.345321,1.69253,2.809516,2.244,4.354.990467,3.010145,3.518012,5.258718,6.623,5.892l1.1.277-.092.6c-.022107.230304-.07595.456445-.16.672-1.265889-.184357-2.492694-.576285-3.631-1.16-2.055024-1.008107-3.718547-2.668113-4.731-4.721-.008-.017-.8.252-1.74.6-1.322688.370403-2.495798,1.14653-3.354,2.219C70.979,55.338,61.247,59.566,49.505,61c-3.75934.291901-7.532885.356351-11.3.193Zm11.691-2.034c4.787836-.558588,9.478257-1.761467,13.944-3.576c4.39485-1.756011,8.441991-4.280395,11.952-7.455L76.981,47l-3.009-1.437c-3.211-1.538-3.53-1.79-3.942-3.16-.229361-.980874.100061-2.008348.857-2.673l.639-.7-1.4-1.059c-1.1-.84-1.446-1.2-1.664-1.757-.34592-.884994-.21941-1.88503.336-2.656l.42-.6-4.4-.773c-2.421-.429-4.682-.857-5.018-.958-.739968-.288334-1.297464-.913101-1.5-1.681-.092-.4,2.068-10.935,2.547-12.439.340894-.780229,1.010519-1.368899,1.828-1.607c4.826826.58354,9.618999,1.424741,14.356,2.52c1.025.6,1.345,1.555,1.025,3.034l-.134.614h.714c.4,0,1.328-.05,2.076-.109l1.362-.109L81.4,20.2c-2.529937-4.302948-6.047058-7.942437-10.261-10.618-2.976588-1.833525-6.119918-3.381418-9.388-4.623-4.238981-1.466934-8.633018-2.440031-13.095-2.9-3.783369-.257902-7.579998-.255229-11.363.008-5.348388.519276-10.590864,1.825009-15.558,3.875C11.145,10.456,4.026,17.936,2.2,26.459c-.482427,2.694169-.508119,5.450306-.076,8.153.987592,4.520415,3.237761,8.667746,6.489,11.96c6.976,7.346,17.633,11.868,30.409,12.885c1.715.134,9.128-.067,10.868-.294Zm-2.328-8.018c-.745491-.29518-1.296379-.940442-1.471-1.723-.092-.487.017-.824.714-2.177c2.733718-5.095091,4.127683-10.801367,4.051-16.583.080644-5.556871-1.218852-11.046916-3.782-15.978-.416644-.782102-.768166-1.59719-1.051-2.437.067915-.707687.438794-1.351345,1.017-1.765.803629-.448765,1.796685-.37929,2.53.177.505227.660964.938982,1.373611,1.294,2.126c1.952069,3.857562,3.271557,8.003752,3.908,12.28.417043,3.388576.470681,6.812023.16,10.212-.542776,4.344509-1.794386,8.570594-3.705,12.51-1.16,2.387-1.883,3.37-2.488,3.37-.147721.005849-.294312.028324-.437.067-.249813.02265-.50162-.005934-.74-.084ZM39.7,47.034c-1.035558-.337124-1.656301-1.394446-1.446-2.463.067-.227.546-1.261,1.059-2.3c2.131487-4.261051,3.03914-9.029866,2.622-13.776-.242078-3.400037-1.183384-6.713505-2.765-9.733-1.151-2.362-1.21-2.723-.538-3.681.774013-.915158,2.138171-1.042325,3.068-.286c1.295831,2.007251,2.332401,4.17044,3.085,6.438c2.301664,7.076997,1.946163,14.750138-1,21.584-1.517,3.553-2.585,4.654-4.085,4.217Zm-8.1-4.169c-.651591-.316394-1.131042-.903366-1.311-1.605-.092-.4.067-.857.807-2.353c2.716345-5.050336,2.75081-11.119139.092-16.2-1.168-2.362-1.193-2.832-.21-3.765.338715-.400941.857224-.603378,1.378-.538c1.151,0,1.748.58,2.774,2.69c1.522423,2.990812,2.284548,6.310641,2.219,9.666.071364,3.367495-.718604,6.69741-2.295,9.674-.967,1.958-1.446,2.479-2.412,2.606-.355378.019667-.710811-.037639-1.042-.168Zm-7.564-3.883c-.584667-.307857-1.025227-.832795-1.227-1.462-.185-.656-.034-1.177.706-2.4.888552-1.310484,1.303727-2.884762,1.177-4.463.127054-1.576101-.287446-3.148381-1.175-4.457-.285817-.449145-.527925-.924653-.723-1.42-.218498-1.16889.547546-2.294953,1.715-2.521.983-.185,1.656.252,2.563,1.664c2.613749,4.150087,2.613749,9.431913,0,13.582-.925,1.42-1.95,1.925-3.034,1.479Zm56.338,6.337c.571718-.188291,1.132866-.407276,1.681-.656-.054717-.433065-.182532-.853703-.378-1.244-.521-1.3-.437-1.269-2.3-.916-2.009.387-3.177.042-5.379-1.58-.410035-.341297-.872708-.613835-1.37-.807-.300554.090671-.567024.269362-.765.513-.559769.567085-.640599,1.450772-.193,2.11c2.072369,1.282614,4.279248,2.333908,6.581,3.135.72763-.102736,1.441-.288964,2.126-.555ZM79.5,41.092c.815-.168.908-.219.765-.487-.16-.294-7.8-6.631-8.464-7.026-.223938-.159905-.502334-.224053-.773668-.178268s-.513265.197734-.672332.422268c-1.328,1.42-1.168,1.723,2.269,4.354c4.152,3.185,4.6,3.37,6.875,2.916ZM69.248,31.485c0-.042-.866-.79-1.925-1.656-2.614-2.152-3.177-2.959-3.177-4.555.090228-1.46217.983653-2.753785,2.32-3.354.844193-.3797,1.791264-.465606,2.69-.244.5.168,2.79,1.4,5.951,3.219l.664.387.546-2.606c.563-2.664.572-3.37.05-3.53-.16-.05-3.211-.605-6.774-1.236-6.337-1.118-7.035-1.185-7.329-.706-.16.252-2.572,11.431-2.572,11.9.002166.245084.098477.479953.269.656c1.499773.433838,3.027291.765268,4.572.992c4.572.824,4.715.849,4.715.731Z" transform="translate(30.819 91.782)" fill="#454343"/><path d="M42.264,62.655c-1.633,0-2.9-.034-3.579-.1-5.955849-.482011-11.800428-1.887828-17.324-4.167-4.998534-2.024857-9.554982-5.003616-13.415-8.77-3.930612-3.770332-6.646519-8.627975-7.8-13.951-.528468-2.956169-.52542-5.982901.009-8.938C1.734,19.375,6.5,12.9,13.949,8.019c8.133-5.332,18.66-8.268,29.643-8.268c11.081,0,21.66,2.982,29.789,8.4c2.060224,1.34633,3.971025,2.908494,5.7,4.66c2.52767,2.49446,4.617821,5.396264,6.183,8.584.084308.03736.17252.065199.263.083c1.647253.457892,3.151697,1.325536,4.373,2.522c1.428354,1.458864,2.671092,3.088529,3.7,4.852c1.94,2.931,10.378,15.962,10.879,16.8.231052.40233.224921.898502-.016,1.295-.267318.478835-.76776.780774-1.316.794-.786,0-1.213-.574-1.691-1.324-.3-.479-2.273-3.542-4.8-7.451C88.565,26.43,88.169,25.9,86.085,24.857l-1.022-.511h-3.322c-1.429,0-2.412,0-2.875.03-.129.567-.288,1.276-.362,1.69.67.388,2.187,1.249,4.011,2.271l4.973,2.782-.6,1.247c-.308.634-.6,1.023-1.108,1.023-.254,0-.254,0-2.806-1.413-1.574-.872-3.583-1.994-5.659-3.162-4.463-2.5-7.9-4.354-8.372-4.554-.05841-.013126-.118135-.019501-.178-.019-.855,0-1.936.944-1.936,1.523c0,.391,0,.606.905,1.5c1.008.99,2.96,2.606,6.867,5.805c7.4,6.068,7.928,6.76,8.1,6.987.984147,1.403326,1.777111,2.931413,2.358,4.544.891958,2.767609,3.213733,4.834471,6.066,5.4l1.815.457-.205,1.325c-.111.723-.211.94-.377,1.11-.178534.181118-.424842.279061-.679.27-1.344955-.239996-2.650298-.664679-3.879-1.262-2.00544-.970092-3.664063-2.533408-4.751-4.478-.284.1-.661.232-1.092.39-1.213938.332774-2.288788,1.046886-3.066,2.037-6.892,6.729-16.824,11.056-28.725,12.513-1.353.19-5.083.293-7.902.293ZM43.592,1.368c-10.672,0-20.884,2.842-28.756,8-7.082,4.648-11.612,10.768-13.1,17.7-.485413,2.731032-.488121,5.526033-.008,8.258c1.07065,5.025066,3.636756,9.608568,7.361,13.148c3.712152,3.620069,8.093685,6.482671,12.9,8.428c5.369815,2.214225,11.051423,3.579552,16.841,4.047.631.057,1.85.089,3.435.089c2.8,0,6.444-.1,7.687-.277c11.559-1.415,21.169-5.587,27.8-12.066.536345-.569359,1.122696-1.089444,1.752-1.554-.224414.056162-.453897.089663-.685.1h-.038-.041l.2.1-2.04,1.938c-3.583644,3.242267-7.714393,5.822631-12.2,7.621-4.529572,1.840986-9.287386,3.060714-14.144,3.626-1.4.182-6.256.344-9.1.344-.9,0-1.548-.015-1.934-.046-6.062047-.422999-12.016513-1.818846-17.635-4.134-5.005915-2.051893-9.533896-5.11594-13.3-9-3.350065-3.403818-5.670191-7.684942-6.693-12.35-.452858-2.8151-.427163-5.686455.076-8.493c1.88-8.785,9.172-16.473,20.006-21.09c5.040549-2.080844,10.360474-3.406782,15.788-3.935c1.18-.128,3.367-.2,5.848-.2c2.395,0,4.521.073,5.687.2c4.525884.461162,8.983002,1.445742,13.282,2.934c3.331038,1.261515,6.533649,2.839046,9.564,4.711c4.329823,2.742208,7.939587,6.481933,10.527,10.906l1.257,2.342-.178.014h.591c-.189745-.112646-.345293-.274761-.45-.469-1.498376-3.083258-3.509274-5.889792-5.947-8.3-1.656469-1.678486-3.487145-3.175611-5.461-4.466-7.865-5.24-18.126-8.126-28.892-8.126Zm.02,1.867c-2.39,0-4.565.075-5.674.195-5.269042.510923-10.433937,1.796081-15.328,3.814C12.266,11.653,5.319,18.922,3.551,27.186c-.457079,2.58256-.482761,5.223038-.076,7.814.963138,4.372931,3.141761,8.384924,6.285,11.574c3.613244,3.723251,7.95667,6.659948,12.758,8.626c5.457523,2.245496,11.240734,3.598446,17.128,4.007.236.019.749.043,1.808.041c2.776,0,7.585-.16,8.891-.331c4.71828-.54742,9.340845-1.730476,13.742-3.517c4.300574-1.720016,8.261942-4.189268,11.7-7.293l.342-.325-1.949-.931c-3.151-1.51-3.837-1.891-4.368-3.657-.312667-1.255839.086331-2.582124,1.04-3.457l.035-.038-.689-.523c-.834283-.496294-1.504633-1.226446-1.928-2.1-.380355-.964174-.324927-2.04576.152-2.966l-3.188-.56c-1.557-.276-4.626-.835-5.11-.98-1.01713-.371923-1.785786-1.220998-2.055-2.27-.048-.2-.111-.474,1.053-6.155.524-2.559,1.234-5.854,1.509-6.719.435488-1.06666,1.345639-1.867622,2.459-2.164.077919-.013543.156918-.019903.236-.019c1.078,0,6.891,1.022,7.55,1.138c2.407236.330414,4.787913.83168,7.124,1.5c1.23255.709497,1.837568,2.156298,1.477,3.532.44-.014,1.136-.054,1.733-.1l.128-.01-.087-.163c-2.47511-4.180089-5.901183-7.717509-10-10.325-2.921818-1.796638-6.006051-3.314648-9.212-4.534-4.177949-1.44904-8.509911-2.408454-12.909-2.859-1.114-.122-3.176-.187-5.518-.187ZM72.833,42.759c1.920539,1.124101,3.93351,2.082244,6.017,2.864.618061-.11817,1.225172-.287759,1.815-.507.4-.141.738-.268,1-.368-.047-.133-.106-.288-.178-.463l-.054-.134c-.07-.176-.147-.37-.2-.486-.2.013-.54.078-.961.158l-.185.035c-.490495.100168-.989413.153408-1.49.159-1.674872-.102336-3.266601-.765234-4.519-1.882-.277242-.209018-.567127-.400716-.868-.574-.070997.056092-.137839.117252-.2.183-.265982.267755-.336654.673021-.177,1.015Zm-1.088-8.007c-.025,0-.107.037-.239.179-.472.5-.551.673-.556.729.036.374,1.719,1.662,2.725,2.432c3.055,2.344,3.958,2.934,4.96,2.934v0c.256269-.004412.511765-.029493.764-.075-1.989-1.721-6.923-5.791-7.454-6.12-.05903-.041925-.127287-.069022-.199-.079ZM70.2,32.776l.973.171-.306.434c.405252-.245513.894579-.310756,1.35-.18-.585-.479-1.12-.919-1.612-1.325.006152.055441.00849.111239.007.167.001758.289617-.144587.560055-.388.717Zm-9.14-3.115c.536.15,2.061.482,4.17.855l1.963.353c-2.511-2.082-3.3-3.08-3.3-5.037.087761-1.765252,1.150568-3.334984,2.757-4.072.66759-.313002,1.397768-.46964,2.135-.458.399176-.006429.796925.049236,1.179.165.77.257,4.106,2.144,5.8,3.114l.317-1.511c.205186-.864249.344916-1.742739.418-2.628-.723-.142-3.109-.577-6.492-1.175-2.118508-.44444-4.260173-.77028-6.415-.976h-.088c-.42,1.636-2.304,10.385-2.442,11.37ZM48.731,52.608c-.283905-.005485-.565776-.049212-.838-.13-1.035358-.382977-1.803529-1.268052-2.037-2.347-.149-.783.085-1.331.79-2.7c2.680574-4.977732,4.044401-10.557992,3.962-16.211.073223-5.432393-1.197824-10.798618-3.7-15.621-.506002-.875767-.887345-1.817848-1.133-2.799.065508-.988913.581664-1.892923,1.4-2.452.471172-.279144,1.010411-.422434,1.558-.414.711575-.020443,1.405401.224017,1.947.686.568554.73109,1.059529,1.51933,1.465,2.352c1.993843,3.934511,3.340126,8.16482,3.987,12.528.427099,3.4642.48141,6.964217.162,10.44-.55845,4.430562-1.835537,8.740433-3.781,12.76-1.39,2.861-2.2,3.826-3.215,3.826-.072529.006114-.144435.018155-.215.036-.114612.031685-.233095.047169-.352.046ZM47.4,12.733c.087.256.417,1.046.962,2.152c2.614587,5.043287,3.941633,10.654803,3.863,16.335.067248,5.909632-1.357005,11.740781-4.141,16.954-.666,1.293-.677,1.449-.638,1.655.11715.485983.450699.891401.905,1.1.117387.033875.238085.054997.36.063.177977-.044048.35985-.070508.543-.079.171-.089.661-.56,1.806-2.916c1.869319-3.864429,3.096078-8.00778,3.632-12.267.297857-3.32499.244898-6.672097-.158-9.986-.622757-4.191361-1.917377-8.254861-3.834-12.034-.319923-.668161-.697345-1.307235-1.128-1.91-.24416-.173781-.539658-.260422-.839-.246-.244244-.007242-.485965.051117-.7.169-.322305.252566-.546213.609827-.633,1.01ZM40.854,48.491c-.277118-.002029-.55254-.043444-.818-.123-.756303-.23911-1.385427-.771003-1.747-1.477-.343705-.60781-.431493-1.327384-.244-2c.138-.449,1.006-2.218,1.106-2.42c2.06021-4.128628,2.940224-8.746018,2.543-13.343-.231809-3.302874-1.14642-6.52172-2.686-9.453-1.132-2.321-1.443-3.121-.474-4.5.50578-.631573,1.245233-1.032062,2.050549-1.110579s1.608201.171597,2.226451.693579c.785.716,2.662,4.812,3.306,6.782c2.347267,7.264544,1.98277,15.133551-1.026,22.15-1.268,2.965-2.419,4.801-4.237,4.801Zm.027-32.826c-.390505-.020293-.768472.141008-1.024.437-.423.6-.467.666.6,2.862c1.621617,3.10774,2.589186,6.514821,2.843,10.011.425537,4.893949-.508812,9.810352-2.7,14.207-.582,1.183-.961,2.026-1.011,2.181-.059327.262204-.01451.537201.125.767.159873.319333.436757.564695.773.685.118284.036617.241192.056148.365.058.772,0,1.62-1.178,2.751-3.82c2.855131-6.656719,3.20151-14.122516.975-21.015-.724423-2.133856-1.685405-4.179926-2.865-6.1-.235257-.18922-.531381-.286269-.833-.273ZM33.07,44.405c-1.450034.023871-2.712722-.985356-3.009-2.405-.162-.706.11-1.354.87-2.891c2.599884-4.827631,2.634353-10.630826.092-15.489-1.16-2.345-1.464-3.359-.041-4.709.49052-.542195,1.206605-.823448,1.935-.76c1.677,0,2.465,1.014,3.5,3.145c1.579891,3.100071,2.369937,6.542263,2.3,10.021.076137,3.490075-.742156,6.94157-2.377,10.026-.988,2-1.627,2.867-3.033,3.051h-.035c-.063.006-.131.011-.202.011Zm-.153-24.64c-.489,0-.5.006-.822.316-.613.582-.692.656.378,2.82c2.780219,5.305875,2.745749,11.64567-.092,16.921-.325698.570157-.575799,1.180282-.744,1.815.124442.453369.433582.833627.852,1.048.201916.072369.415599.106287.63.1.5-.067.812-.217,1.771-2.159c1.519465-2.865906,2.280265-6.072969,2.21-9.316.065289-3.231855-.668425-6.429831-2.136-9.31-1.036-2.131-1.434-2.235-2.047-2.235ZM25.352,40.506c-.365186-.002396-.726349-.076464-1.063-.218-.81744-.398755-1.432975-1.118569-1.7-1.988-.284-1.006.03-1.78.792-3.037.813355-1.183458,1.187916-2.61379,1.059-4.044.12514-1.428496-.248749-2.856204-1.058-4.04-.323068-.508324-.593784-1.048082-.808-1.611-.195847-.720082-.078161-1.489398.324-2.118.442723-.737123,1.173167-1.255866,2.015-1.431.182602-.035078.368062-.053156.554-.054c1.323,0,2.147,1,2.84,2.076c2.77867,4.418811,2.77867,10.039189,0,14.458-.567671,1.138482-1.687432,1.89901-2.955,2.007Zm.119-16.923c-.085616.000851-.170974.009554-.255.026-.390822.089779-.72771.335939-.932.681-.163064.237396-.219948.531958-.157.813.175987.427003.38879.837885.636,1.228.967781,1.438101,1.425502,3.159133,1.3,4.888.122486,1.726104-.334285,3.443749-1.298,4.881-.709,1.168-.706,1.442-.618,1.755.134548.389574.401335.719696.754.933.142227.062873.295527.096865.451.1.641,0,1.224-.69,1.6-1.269c2.441567-3.883457,2.441567-8.822543,0-12.706-.793-1.227-1.18-1.33-1.481-1.33Z" transform="translate(30.261 91.223)" fill="#454343"/><rect width="41" height="4" rx="0" ry="0" transform="translate(74.846 192.433)" fill="#454343"/><rect width="41" height="4" rx="0" ry="0" transform="translate(74.846 185.433)" fill="#454343"/><rect width="25" height="4" rx="0" ry="0" transform="translate(119.846 192.433)" fill="#454343"/></g></g><g id="eE7YKDI1F5332" transform="translate(-150.867-643.647)" opacity="0"><g id="eE7YKDI1F5333" transform="translate(549.922 770.607)"><path d="M6.564,0h205.5c3.625197,0,6.564,2.938803,6.564,6.564v122.7c0,3.625197-2.938803,6.564-6.564,6.564h-205.5c-1.741748.000001-3.412085-.692248-4.643218-1.924319s-1.922109-2.902934-1.920782-4.644681L0,6.564C0,2.938803,2.938803,0,6.564,0Z" transform="translate(1.515 1.515)" fill="#fff"/><path d="M5.079,-3h205.5c4.459852.00496,8.07404,3.619148,8.079,8.079v122.7c-.00496,4.459852-3.619148,8.07404-8.079,8.079h-205.5c-4.461803-.004964-8.076796-3.622195-8.079-8.084L-3,5.079C-2.99504,0.619148,0.619148,-2.99504,5.079,-3Zm205.5,135.823c2.787115-.003306,5.045694-2.261885,5.049-5.049v-122.695c-.003305-2.786725-2.261275-5.045143-5.048-5.049h-205.501C2.291885,0.033306,0.033306,2.291885,0.03,5.079v122.7c.003306,2.787115,2.261885,5.045694,5.049,5.049Z" transform="translate(3 3)" fill="#454343"/><rect width="221" height="24" rx="0" ry="0" transform="translate(.079 90.393)" fill="#454343"/><rect width="103" height="20" rx="2" ry="2" transform="translate(23.078 32.393)" fill="#454343"/></g><g transform="translate(350.154 716.567)"><g><path d="M12.437,0h136.81c3.298497,0,6.461897,1.310323,8.794287,3.642713s3.642713,5.49579,3.642713,8.794287v166.663c0,3.298497-1.310323,6.461897-3.642713,8.794287s-5.495789,3.642713-8.794287,3.642713h-136.81c-3.298497,0-6.461897-1.310323-8.794287-3.642713s-3.642713-5.49579-3.642713-8.794287L0,12.437C0,5.568235,5.568235,0,12.437,0Z" fill="#fff"/><path d="M12.437,3.731c-4.805907.005511-8.700489,3.900093-8.706,8.706v166.663c.005511,4.805907,3.900093,8.700489,8.706,8.706h136.81c4.805907-.005511,8.700489-3.900093,8.706-8.706v-166.663c-.005511-4.805907-3.900093-8.700489-8.706-8.706h-136.81m0-3.731h136.81c3.298497,0,6.461897,1.310323,8.794287,3.642713s3.642713,5.49579,3.642713,8.794287v166.663c0,3.298497-1.310323,6.461897-3.642713,8.794287s-5.495789,3.642713-8.794287,3.642713h-136.81c-3.298497,0-6.461897-1.310323-8.794287-3.642713s-3.642713-5.49579-3.642713-8.794287L0,12.437C0,5.568235,5.568235,0,12.437,0Z" fill="#454343"/><path d="M12.437,0h129.347c3.298497,0,6.461897,1.310323,8.794287,3.642713s3.642713,5.49579,3.642713,8.794287v166.663c0,3.298497-1.310323,6.461897-3.642713,8.794287s-5.495789,3.642713-8.794287,3.642713h-129.347c-3.298497,0-6.461897-1.310323-8.794287-3.642713s-3.642713-5.49579-3.642713-8.794287L0,12.437C0,5.568235,5.568235,0,12.437,0Z" transform="translate(3.731 11.194)" fill="#454343"/><path d="M12.437,0h129.347c3.298497,0,6.461897,1.310323,8.794287,3.642713s3.642713,5.49579,3.642713,8.794287v166.663c0,3.298497-1.310323,6.461897-3.642713,8.794287s-5.495789,3.642713-8.794287,3.642713h-129.347c-3.298497,0-6.461897-1.310323-8.794287-3.642713s-3.642713-5.49579-3.642713-8.794287L0,12.437C0,5.568235,5.568235,0,12.437,0Z" transform="matrix(1 0 0 0.977252 3.731 19.9)" fill="#fff"/><path d="M12.437,0h136.81c3.298497,0,6.461897,1.310323,8.794287,3.642713s3.642713,5.49579,3.642713,8.794287v151.735c0,3.298497-1.310323,6.461897-3.642713,8.794287s-5.495789,3.642713-8.794287,3.642713h-136.81c-3.298497,0-6.461897-1.310323-8.794287-3.642713s-3.642713-5.49579-3.642713-8.794287L0,12.437C0,5.568235,5.568235,0,12.437,0Z" transform="translate(0 30.471)" fill="#fff"/><path d="M12.437,3.731c-4.805907.005511-8.700489,3.900093-8.706,8.706v151.735c.005511,4.805907,3.900093,8.700489,8.706,8.706h136.81c4.805907-.005511,8.700489-3.900093,8.706-8.706v-151.735c-.005511-4.805907-3.900093-8.700489-8.706-8.706h-136.81m0-3.731h136.81c3.298497,0,6.461897,1.310323,8.794287,3.642713s3.642713,5.49579,3.642713,8.794287v151.735c0,3.298497-1.310323,6.461897-3.642713,8.794287s-5.495789,3.642713-8.794287,3.642713h-136.81c-3.298497,0-6.461897-1.310323-8.794287-3.642713s-3.642713-5.49579-3.642713-8.794287L0,12.437C0,5.568235,5.568235,0,12.437,0Z" transform="translate(0 30.471)" fill="#454343"/></g><g transform="translate(26.078 56.452)"><circle r="8.5" transform="translate(105.268 8.481)" fill="#454343"/><circle r="8.5" transform="translate(73.268 8.481)" fill="#454343"/><circle r="8.5" transform="translate(40.268 8.481)" fill="#454343"/><circle r="8.5" transform="translate(8.268 8.481)" fill="#00dd5b"/><circle id="eE7YKDI1F5351" r="8.5" transform="translate(8.268 8.481)" opacity="0" fill="#454343"/></g><path d="M38.2,61.2C25.9,60.12,15.028,55.556,7.96,48.488c-3.827885-3.654566-6.46941-8.374959-7.582-13.549-.506064-2.844571-.503356-5.756375.008-8.6c1.538-7.161,6.161-13.423,13.448-18.2c16.617-10.896,42.076-10.845,58.541.123c2.017038,1.318951,3.887916,2.848908,5.581,4.564c2.501674,2.471341,4.564463,5.350454,6.1,8.514.20327.204772.469586.335111.756.37c1.496952.43227,2.863155,1.229451,3.976,2.32c1.379872,1.417953,2.582043,2.998574,3.58,4.707c1.874,2.832,10.346,15.91,10.859,16.768.2.336-.193.866-.639.866-.319,0-.538-.21-1.009-.95-.328-.521-2.488-3.875-4.8-7.455C88.6,25.307,88.168,24.719,85.89,23.576l-1.193-.6h-3.514c-3.513,0-3.513,0-3.6.37-.462,2.026-.555,2.521-.454,2.614.067.059,2.059,1.193,4.429,2.521L85.873,30.9l-.269.563c-.151.311-.319.563-.378.563s-3.69-2.009-8.069-4.471-8.22-4.539-8.531-4.623c-1.244-.345-3.16,1.034-3.16,2.278c0,1.261.37,1.622,8.069,7.926c4.8,3.933,7.548,6.3,7.968,6.85.937902,1.345321,1.69253,2.809516,2.244,4.354.990467,3.010145,3.518012,5.258718,6.623,5.892l1.1.277-.092.6c-.022107.230304-.07595.456445-.16.672-1.265889-.184357-2.492694-.576285-3.631-1.16-2.055024-1.008107-3.718547-2.668113-4.731-4.721-.008-.017-.8.252-1.74.6-1.322688.370403-2.495798,1.14653-3.354,2.219C70.979,55.338,61.247,59.566,49.505,61c-3.75934.291901-7.532885.356351-11.3.193Zm11.691-2.034c4.787836-.558588,9.478257-1.761467,13.944-3.576c4.39485-1.756011,8.441991-4.280395,11.952-7.455L76.981,47l-3.009-1.437c-3.211-1.538-3.53-1.79-3.942-3.16-.229361-.980874.100061-2.008348.857-2.673l.639-.7-1.4-1.059c-1.1-.84-1.446-1.2-1.664-1.757-.34592-.884994-.21941-1.88503.336-2.656l.42-.6-4.4-.773c-2.421-.429-4.682-.857-5.018-.958-.739968-.288334-1.297464-.913101-1.5-1.681-.092-.4,2.068-10.935,2.547-12.439.340894-.780229,1.010519-1.368899,1.828-1.607c4.826826.58354,9.618999,1.424741,14.356,2.52c1.025.6,1.345,1.555,1.025,3.034l-.134.614h.714c.4,0,1.328-.05,2.076-.109l1.362-.109L81.4,20.2c-2.529937-4.302948-6.047058-7.942437-10.261-10.618-2.976588-1.833525-6.119918-3.381418-9.388-4.623-4.238981-1.466934-8.633018-2.440031-13.095-2.9-3.783369-.257902-7.579998-.255229-11.363.008-5.348388.519276-10.590864,1.825009-15.558,3.875C11.145,10.456,4.026,17.936,2.2,26.459c-.482427,2.694169-.508119,5.450306-.076,8.153.987592,4.520415,3.237761,8.667746,6.489,11.96c6.976,7.346,17.633,11.868,30.409,12.885c1.715.134,9.128-.067,10.868-.294Zm-2.328-8.018c-.745491-.29518-1.296379-.940442-1.471-1.723-.092-.487.017-.824.714-2.177c2.733718-5.095091,4.127683-10.801367,4.051-16.583.080644-5.556871-1.218852-11.046916-3.782-15.978-.416644-.782102-.768166-1.59719-1.051-2.437.067915-.707687.438794-1.351345,1.017-1.765.803629-.448765,1.796685-.37929,2.53.177.505227.660964.938982,1.373611,1.294,2.126c1.952069,3.857562,3.271557,8.003752,3.908,12.28.417043,3.388576.470681,6.812023.16,10.212-.542776,4.344509-1.794386,8.570594-3.705,12.51-1.16,2.387-1.883,3.37-2.488,3.37-.147721.005849-.294312.028324-.437.067-.249813.02265-.50162-.005934-.74-.084ZM39.7,47.034c-1.035558-.337124-1.656301-1.394446-1.446-2.463.067-.227.546-1.261,1.059-2.3c2.131487-4.261051,3.03914-9.029866,2.622-13.776-.242078-3.400037-1.183384-6.713505-2.765-9.733-1.151-2.362-1.21-2.723-.538-3.681.774013-.915158,2.138171-1.042325,3.068-.286c1.295831,2.007251,2.332401,4.17044,3.085,6.438c2.301664,7.076997,1.946163,14.750138-1,21.584-1.517,3.553-2.585,4.654-4.085,4.217Zm-8.1-4.169c-.651591-.316394-1.131042-.903366-1.311-1.605-.092-.4.067-.857.807-2.353c2.716345-5.050336,2.75081-11.119139.092-16.2-1.168-2.362-1.193-2.832-.21-3.765.338715-.400941.857224-.603378,1.378-.538c1.151,0,1.748.58,2.774,2.69c1.522423,2.990812,2.284548,6.310641,2.219,9.666.071364,3.367495-.718604,6.69741-2.295,9.674-.967,1.958-1.446,2.479-2.412,2.606-.355378.019667-.710811-.037639-1.042-.168Zm-7.564-3.883c-.584667-.307857-1.025227-.832795-1.227-1.462-.185-.656-.034-1.177.706-2.4.888552-1.310484,1.303727-2.884762,1.177-4.463.127054-1.576101-.287446-3.148381-1.175-4.457-.285817-.449145-.527925-.924653-.723-1.42-.218498-1.16889.547546-2.294953,1.715-2.521.983-.185,1.656.252,2.563,1.664c2.613749,4.150087,2.613749,9.431913,0,13.582-.925,1.42-1.95,1.925-3.034,1.479Zm56.338,6.337c.571718-.188291,1.132866-.407276,1.681-.656-.054717-.433065-.182532-.853703-.378-1.244-.521-1.3-.437-1.269-2.3-.916-2.009.387-3.177.042-5.379-1.58-.410035-.341297-.872708-.613835-1.37-.807-.300554.090671-.567024.269362-.765.513-.559769.567085-.640599,1.450772-.193,2.11c2.072369,1.282614,4.279248,2.333908,6.581,3.135.72763-.102736,1.441-.288964,2.126-.555ZM79.5,41.092c.815-.168.908-.219.765-.487-.16-.294-7.8-6.631-8.464-7.026-.223938-.159905-.502334-.224053-.773668-.178268s-.513265.197734-.672332.422268c-1.328,1.42-1.168,1.723,2.269,4.354c4.152,3.185,4.6,3.37,6.875,2.916ZM69.248,31.485c0-.042-.866-.79-1.925-1.656-2.614-2.152-3.177-2.959-3.177-4.555.090228-1.46217.983653-2.753785,2.32-3.354.844193-.3797,1.791264-.465606,2.69-.244.5.168,2.79,1.4,5.951,3.219l.664.387.546-2.606c.563-2.664.572-3.37.05-3.53-.16-.05-3.211-.605-6.774-1.236-6.337-1.118-7.035-1.185-7.329-.706-.16.252-2.572,11.431-2.572,11.9.002166.245084.098477.479953.269.656c1.499773.433838,3.027291.765268,4.572.992c4.572.824,4.715.849,4.715.731Z" transform="translate(30.819 91.782)" fill="#454343"/><path d="M42.264,62.655c-1.633,0-2.9-.034-3.579-.1-5.955849-.482011-11.800428-1.887828-17.324-4.167-4.998534-2.024857-9.554982-5.003616-13.415-8.77-3.930612-3.770332-6.646519-8.627975-7.8-13.951-.528468-2.956169-.52542-5.982901.009-8.938C1.734,19.375,6.5,12.9,13.949,8.019c8.133-5.332,18.66-8.268,29.643-8.268c11.081,0,21.66,2.982,29.789,8.4c2.060224,1.34633,3.971025,2.908494,5.7,4.66c2.52767,2.49446,4.617821,5.396264,6.183,8.584.084308.03736.17252.065199.263.083c1.647253.457892,3.151697,1.325536,4.373,2.522c1.428354,1.458864,2.671092,3.088529,3.7,4.852c1.94,2.931,10.378,15.962,10.879,16.8.231052.40233.224921.898502-.016,1.295-.267318.478835-.76776.780774-1.316.794-.786,0-1.213-.574-1.691-1.324-.3-.479-2.273-3.542-4.8-7.451C88.565,26.43,88.169,25.9,86.085,24.857l-1.022-.511h-3.322c-1.429,0-2.412,0-2.875.03-.129.567-.288,1.276-.362,1.69.67.388,2.187,1.249,4.011,2.271l4.973,2.782-.6,1.247c-.308.634-.6,1.023-1.108,1.023-.254,0-.254,0-2.806-1.413-1.574-.872-3.583-1.994-5.659-3.162-4.463-2.5-7.9-4.354-8.372-4.554-.05841-.013126-.118135-.019501-.178-.019-.855,0-1.936.944-1.936,1.523c0,.391,0,.606.905,1.5c1.008.99,2.96,2.606,6.867,5.805c7.4,6.068,7.928,6.76,8.1,6.987.984147,1.403326,1.777111,2.931413,2.358,4.544.891958,2.767609,3.213733,4.834471,6.066,5.4l1.815.457-.205,1.325c-.111.723-.211.94-.377,1.11-.178534.181118-.424842.279061-.679.27-1.344955-.239996-2.650298-.664679-3.879-1.262-2.00544-.970092-3.664063-2.533408-4.751-4.478-.284.1-.661.232-1.092.39-1.213938.332774-2.288788,1.046886-3.066,2.037-6.892,6.729-16.824,11.056-28.725,12.513-1.353.19-5.083.293-7.902.293ZM43.592,1.368c-10.672,0-20.884,2.842-28.756,8-7.082,4.648-11.612,10.768-13.1,17.7-.485413,2.731032-.488121,5.526033-.008,8.258c1.07065,5.025066,3.636756,9.608568,7.361,13.148c3.712152,3.620069,8.093685,6.482671,12.9,8.428c5.369815,2.214225,11.051423,3.579552,16.841,4.047.631.057,1.85.089,3.435.089c2.8,0,6.444-.1,7.687-.277c11.559-1.415,21.169-5.587,27.8-12.066.536345-.569359,1.122696-1.089444,1.752-1.554-.224414.056162-.453897.089663-.685.1h-.038-.041l.2.1-2.04,1.938c-3.583644,3.242267-7.714393,5.822631-12.2,7.621-4.529572,1.840986-9.287386,3.060714-14.144,3.626-1.4.182-6.256.344-9.1.344-.9,0-1.548-.015-1.934-.046-6.062047-.422999-12.016513-1.818846-17.635-4.134-5.005915-2.051893-9.533896-5.11594-13.3-9-3.350065-3.403818-5.670191-7.684942-6.693-12.35-.452858-2.8151-.427163-5.686455.076-8.493c1.88-8.785,9.172-16.473,20.006-21.09c5.040549-2.080844,10.360474-3.406782,15.788-3.935c1.18-.128,3.367-.2,5.848-.2c2.395,0,4.521.073,5.687.2c4.525884.461162,8.983002,1.445742,13.282,2.934c3.331038,1.261515,6.533649,2.839046,9.564,4.711c4.329823,2.742208,7.939587,6.481933,10.527,10.906l1.257,2.342-.178.014h.591c-.189745-.112646-.345293-.274761-.45-.469-1.498376-3.083258-3.509274-5.889792-5.947-8.3-1.656469-1.678486-3.487145-3.175611-5.461-4.466-7.865-5.24-18.126-8.126-28.892-8.126Zm.02,1.867c-2.39,0-4.565.075-5.674.195-5.269042.510923-10.433937,1.796081-15.328,3.814C12.266,11.653,5.319,18.922,3.551,27.186c-.457079,2.58256-.482761,5.223038-.076,7.814.963138,4.372931,3.141761,8.384924,6.285,11.574c3.613244,3.723251,7.95667,6.659948,12.758,8.626c5.457523,2.245496,11.240734,3.598446,17.128,4.007.236.019.749.043,1.808.041c2.776,0,7.585-.16,8.891-.331c4.71828-.54742,9.340845-1.730476,13.742-3.517c4.300574-1.720016,8.261942-4.189268,11.7-7.293l.342-.325-1.949-.931c-3.151-1.51-3.837-1.891-4.368-3.657-.312667-1.255839.086331-2.582124,1.04-3.457l.035-.038-.689-.523c-.834283-.496294-1.504633-1.226446-1.928-2.1-.380355-.964174-.324927-2.04576.152-2.966l-3.188-.56c-1.557-.276-4.626-.835-5.11-.98-1.01713-.371923-1.785786-1.220998-2.055-2.27-.048-.2-.111-.474,1.053-6.155.524-2.559,1.234-5.854,1.509-6.719.435488-1.06666,1.345639-1.867622,2.459-2.164.077919-.013543.156918-.019903.236-.019c1.078,0,6.891,1.022,7.55,1.138c2.407236.330414,4.787913.83168,7.124,1.5c1.23255.709497,1.837568,2.156298,1.477,3.532.44-.014,1.136-.054,1.733-.1l.128-.01-.087-.163c-2.47511-4.180089-5.901183-7.717509-10-10.325-2.921818-1.796638-6.006051-3.314648-9.212-4.534-4.177949-1.44904-8.509911-2.408454-12.909-2.859-1.114-.122-3.176-.187-5.518-.187ZM72.833,42.759c1.920539,1.124101,3.93351,2.082244,6.017,2.864.618061-.11817,1.225172-.287759,1.815-.507.4-.141.738-.268,1-.368-.047-.133-.106-.288-.178-.463l-.054-.134c-.07-.176-.147-.37-.2-.486-.2.013-.54.078-.961.158l-.185.035c-.490495.100168-.989413.153408-1.49.159-1.674872-.102336-3.266601-.765234-4.519-1.882-.277242-.209018-.567127-.400716-.868-.574-.070997.056092-.137839.117252-.2.183-.265982.267755-.336654.673021-.177,1.015Zm-1.088-8.007c-.025,0-.107.037-.239.179-.472.5-.551.673-.556.729.036.374,1.719,1.662,2.725,2.432c3.055,2.344,3.958,2.934,4.96,2.934v0c.256269-.004412.511765-.029493.764-.075-1.989-1.721-6.923-5.791-7.454-6.12-.05903-.041925-.127287-.069022-.199-.079ZM70.2,32.776l.973.171-.306.434c.405252-.245513.894579-.310756,1.35-.18-.585-.479-1.12-.919-1.612-1.325.006152.055441.00849.111239.007.167.001758.289617-.144587.560055-.388.717Zm-9.14-3.115c.536.15,2.061.482,4.17.855l1.963.353c-2.511-2.082-3.3-3.08-3.3-5.037.087761-1.765252,1.150568-3.334984,2.757-4.072.66759-.313002,1.397768-.46964,2.135-.458.399176-.006429.796925.049236,1.179.165.77.257,4.106,2.144,5.8,3.114l.317-1.511c.205186-.864249.344916-1.742739.418-2.628-.723-.142-3.109-.577-6.492-1.175-2.118508-.44444-4.260173-.77028-6.415-.976h-.088c-.42,1.636-2.304,10.385-2.442,11.37ZM48.731,52.608c-.283905-.005485-.565776-.049212-.838-.13-1.035358-.382977-1.803529-1.268052-2.037-2.347-.149-.783.085-1.331.79-2.7c2.680574-4.977732,4.044401-10.557992,3.962-16.211.073223-5.432393-1.197824-10.798618-3.7-15.621-.506002-.875767-.887345-1.817848-1.133-2.799.065508-.988913.581664-1.892923,1.4-2.452.471172-.279144,1.010411-.422434,1.558-.414.711575-.020443,1.405401.224017,1.947.686.568554.73109,1.059529,1.51933,1.465,2.352c1.993843,3.934511,3.340126,8.16482,3.987,12.528.427099,3.4642.48141,6.964217.162,10.44-.55845,4.430562-1.835537,8.740433-3.781,12.76-1.39,2.861-2.2,3.826-3.215,3.826-.072529.006114-.144435.018155-.215.036-.114612.031685-.233095.047169-.352.046ZM47.4,12.733c.087.256.417,1.046.962,2.152c2.614587,5.043287,3.941633,10.654803,3.863,16.335.067248,5.909632-1.357005,11.740781-4.141,16.954-.666,1.293-.677,1.449-.638,1.655.11715.485983.450699.891401.905,1.1.117387.033875.238085.054997.36.063.177977-.044048.35985-.070508.543-.079.171-.089.661-.56,1.806-2.916c1.869319-3.864429,3.096078-8.00778,3.632-12.267.297857-3.32499.244898-6.672097-.158-9.986-.622757-4.191361-1.917377-8.254861-3.834-12.034-.319923-.668161-.697345-1.307235-1.128-1.91-.24416-.173781-.539658-.260422-.839-.246-.244244-.007242-.485965.051117-.7.169-.322305.252566-.546213.609827-.633,1.01ZM40.854,48.491c-.277118-.002029-.55254-.043444-.818-.123-.756303-.23911-1.385427-.771003-1.747-1.477-.343705-.60781-.431493-1.327384-.244-2c.138-.449,1.006-2.218,1.106-2.42c2.06021-4.128628,2.940224-8.746018,2.543-13.343-.231809-3.302874-1.14642-6.52172-2.686-9.453-1.132-2.321-1.443-3.121-.474-4.5.50578-.631573,1.245233-1.032062,2.050549-1.110579s1.608201.171597,2.226451.693579c.785.716,2.662,4.812,3.306,6.782c2.347267,7.264544,1.98277,15.133551-1.026,22.15-1.268,2.965-2.419,4.801-4.237,4.801Zm.027-32.826c-.390505-.020293-.768472.141008-1.024.437-.423.6-.467.666.6,2.862c1.621617,3.10774,2.589186,6.514821,2.843,10.011.425537,4.893949-.508812,9.810352-2.7,14.207-.582,1.183-.961,2.026-1.011,2.181-.059327.262204-.01451.537201.125.767.159873.319333.436757.564695.773.685.118284.036617.241192.056148.365.058.772,0,1.62-1.178,2.751-3.82c2.855131-6.656719,3.20151-14.122516.975-21.015-.724423-2.133856-1.685405-4.179926-2.865-6.1-.235257-.18922-.531381-.286269-.833-.273ZM33.07,44.405c-1.450034.023871-2.712722-.985356-3.009-2.405-.162-.706.11-1.354.87-2.891c2.599884-4.827631,2.634353-10.630826.092-15.489-1.16-2.345-1.464-3.359-.041-4.709.49052-.542195,1.206605-.823448,1.935-.76c1.677,0,2.465,1.014,3.5,3.145c1.579891,3.100071,2.369937,6.542263,2.3,10.021.076137,3.490075-.742156,6.94157-2.377,10.026-.988,2-1.627,2.867-3.033,3.051h-.035c-.063.006-.131.011-.202.011Zm-.153-24.64c-.489,0-.5.006-.822.316-.613.582-.692.656.378,2.82c2.780219,5.305875,2.745749,11.64567-.092,16.921-.325698.570157-.575799,1.180282-.744,1.815.124442.453369.433582.833627.852,1.048.201916.072369.415599.106287.63.1.5-.067.812-.217,1.771-2.159c1.519465-2.865906,2.280265-6.072969,2.21-9.316.065289-3.231855-.668425-6.429831-2.136-9.31-1.036-2.131-1.434-2.235-2.047-2.235ZM25.352,40.506c-.365186-.002396-.726349-.076464-1.063-.218-.81744-.398755-1.432975-1.118569-1.7-1.988-.284-1.006.03-1.78.792-3.037.813355-1.183458,1.187916-2.61379,1.059-4.044.12514-1.428496-.248749-2.856204-1.058-4.04-.323068-.508324-.593784-1.048082-.808-1.611-.195847-.720082-.078161-1.489398.324-2.118.442723-.737123,1.173167-1.255866,2.015-1.431.182602-.035078.368062-.053156.554-.054c1.323,0,2.147,1,2.84,2.076c2.77867,4.418811,2.77867,10.039189,0,14.458-.567671,1.138482-1.687432,1.89901-2.955,2.007Zm.119-16.923c-.085616.000851-.170974.009554-.255.026-.390822.089779-.72771.335939-.932.681-.163064.237396-.219948.531958-.157.813.175987.427003.38879.837885.636,1.228.967781,1.438101,1.425502,3.159133,1.3,4.888.122486,1.726104-.334285,3.443749-1.298,4.881-.709,1.168-.706,1.442-.618,1.755.134548.389574.401335.719696.754.933.142227.062873.295527.096865.451.1.641,0,1.224-.69,1.6-1.269c2.441567-3.883457,2.441567-8.822543,0-12.706-.793-1.227-1.18-1.33-1.481-1.33Z" transform="translate(30.261 91.223)" fill="#454343"/><rect width="41" height="4" rx="0" ry="0" transform="translate(74.846 192.433)" fill="#454343"/><rect width="41" height="4" rx="0" ry="0" transform="translate(74.846 185.433)" fill="#454343"/><rect width="25" height="4" rx="0" ry="0" transform="translate(119.846 192.433)" fill="#454343"/></g></g><g id="eE7YKDI1F5357" transform="translate(-274.154-643.647)" opacity="0"><g transform="translate(585.479 689.174)"><g><path d="M12.437,0h136.81c3.298497,0,6.461897,1.310323,8.794287,3.642713s3.642713,5.49579,3.642713,8.794287v166.663c0,3.298497-1.310323,6.461897-3.642713,8.794287s-5.495789,3.642713-8.794287,3.642713h-136.81c-3.298497,0-6.461897-1.310323-8.794287-3.642713s-3.642713-5.49579-3.642713-8.794287L0,12.437C0,5.568235,5.568235,0,12.437,0Z" fill="#fff"/><path d="M12.437,3.731c-4.805907.005511-8.700489,3.900093-8.706,8.706v166.663c.005511,4.805907,3.900093,8.700489,8.706,8.706h136.81c4.805907-.005511,8.700489-3.900093,8.706-8.706v-166.663c-.005511-4.805907-3.900093-8.700489-8.706-8.706h-136.81m0-3.731h136.81c3.298497,0,6.461897,1.310323,8.794287,3.642713s3.642713,5.49579,3.642713,8.794287v166.663c0,3.298497-1.310323,6.461897-3.642713,8.794287s-5.495789,3.642713-8.794287,3.642713h-136.81c-3.298497,0-6.461897-1.310323-8.794287-3.642713s-3.642713-5.49579-3.642713-8.794287L0,12.437C0,5.568235,5.568235,0,12.437,0Z" fill="#454343"/><path d="M12.437,0h129.347c3.298497,0,6.461897,1.310323,8.794287,3.642713s3.642713,5.49579,3.642713,8.794287v166.663c0,3.298497-1.310323,6.461897-3.642713,8.794287s-5.495789,3.642713-8.794287,3.642713h-129.347c-3.298497,0-6.461897-1.310323-8.794287-3.642713s-3.642713-5.49579-3.642713-8.794287L0,12.437C0,5.568235,5.568235,0,12.437,0Z" transform="translate(3.731 11.194)" fill="#454343"/><path d="M12.437,0h129.347c3.298497,0,6.461897,1.310323,8.794287,3.642713s3.642713,5.49579,3.642713,8.794287v166.663c0,3.298497-1.310323,6.461897-3.642713,8.794287s-5.495789,3.642713-8.794287,3.642713h-129.347c-3.298497,0-6.461897-1.310323-8.794287-3.642713s-3.642713-5.49579-3.642713-8.794287L0,12.437C0,5.568235,5.568235,0,12.437,0Z" transform="matrix(1 0 0 0.977253 3.731 19.9)" fill="#fff"/><path d="M12.437,0h136.81c3.298497,0,6.461897,1.310323,8.794287,3.642713s3.642713,5.49579,3.642713,8.794287v151.735c0,3.298497-1.310323,6.461897-3.642713,8.794287s-5.495789,3.642713-8.794287,3.642713h-136.81c-3.298497,0-6.461897-1.310323-8.794287-3.642713s-3.642713-5.49579-3.642713-8.794287L0,12.437C0,5.568235,5.568235,0,12.437,0Z" transform="translate(0 30.471)" fill="#fff"/><path d="M12.437,3.731c-4.805907.005511-8.700489,3.900093-8.706,8.706v151.735c.005511,4.805907,3.900093,8.700489,8.706,8.706h136.81c4.805907-.005511,8.700489-3.900093,8.706-8.706v-151.735c-.005511-4.805907-3.900093-8.700489-8.706-8.706h-136.81m0-3.731h136.81c3.298497,0,6.461897,1.310323,8.794287,3.642713s3.642713,5.49579,3.642713,8.794287v151.735c0,3.298497-1.310323,6.461897-3.642713,8.794287s-5.495789,3.642713-8.794287,3.642713h-136.81c-3.298497,0-6.461897-1.310323-8.794287-3.642713s-3.642713-5.49579-3.642713-8.794287L0,12.437C0,5.568235,5.568235,0,12.437,0Z" transform="translate(0 30.471)" fill="#454343"/></g><g transform="translate(26.078 56.452)"><circle r="8.5" transform="translate(105.268 8.481)" fill="#454343"/><circle r="8.5" transform="translate(73.268 8.481)" fill="#454343"/><circle r="8.5" transform="translate(40.268 8.481)" fill="#454343"/><g id="eE7YKDI1F5370" opacity="0"><circle r="8.5" transform="translate(105.268 8.481)" fill="#00dd5b"/><circle r="8.5" transform="translate(73.268 8.481)" fill="#00dd5b"/><circle r="8.5" transform="translate(40.268 8.481)" fill="#00dd5b"/></g><circle r="8.5" transform="translate(8.268 8.481)" fill="#00dd5b"/><circle id="eE7YKDI1F5375" r="8.5" transform="translate(8.268 8.481)" opacity="0" fill="#454343"/></g><path d="M38.2,61.2C25.9,60.12,15.028,55.556,7.96,48.488c-3.827885-3.654566-6.46941-8.374959-7.582-13.549-.506064-2.844571-.503356-5.756375.008-8.6c1.538-7.161,6.161-13.423,13.448-18.2c16.617-10.896,42.076-10.845,58.541.123c2.017038,1.318951,3.887916,2.848908,5.581,4.564c2.501674,2.471341,4.564463,5.350454,6.1,8.514.20327.204772.469586.335111.756.37c1.496952.43227,2.863155,1.229451,3.976,2.32c1.379872,1.417953,2.582043,2.998574,3.58,4.707c1.874,2.832,10.346,15.91,10.859,16.768.2.336-.193.866-.639.866-.319,0-.538-.21-1.009-.95-.328-.521-2.488-3.875-4.8-7.455C88.6,25.307,88.168,24.719,85.89,23.576l-1.193-.6h-3.514c-3.513,0-3.513,0-3.6.37-.462,2.026-.555,2.521-.454,2.614.067.059,2.059,1.193,4.429,2.521L85.873,30.9l-.269.563c-.151.311-.319.563-.378.563s-3.69-2.009-8.069-4.471-8.22-4.539-8.531-4.623c-1.244-.345-3.16,1.034-3.16,2.278c0,1.261.37,1.622,8.069,7.926c4.8,3.933,7.548,6.3,7.968,6.85.937902,1.345321,1.69253,2.809516,2.244,4.354.990467,3.010145,3.518012,5.258718,6.623,5.892l1.1.277-.092.6c-.022107.230304-.07595.456445-.16.672-1.265889-.184357-2.492694-.576285-3.631-1.16-2.055024-1.008107-3.718547-2.668113-4.731-4.721-.008-.017-.8.252-1.74.6-1.322688.370403-2.495798,1.14653-3.354,2.219C70.979,55.338,61.247,59.566,49.505,61c-3.75934.291901-7.532885.356351-11.3.193Zm11.691-2.034c4.787836-.558588,9.478257-1.761467,13.944-3.576c4.39485-1.756011,8.441991-4.280395,11.952-7.455L76.981,47l-3.009-1.437c-3.211-1.538-3.53-1.79-3.942-3.16-.229361-.980874.100061-2.008348.857-2.673l.639-.7-1.4-1.059c-1.1-.84-1.446-1.2-1.664-1.757-.34592-.884994-.21941-1.88503.336-2.656l.42-.6-4.4-.773c-2.421-.429-4.682-.857-5.018-.958-.739968-.288334-1.297464-.913101-1.5-1.681-.092-.4,2.068-10.935,2.547-12.439.340894-.780229,1.010519-1.368899,1.828-1.607c4.826826.58354,9.618999,1.424741,14.356,2.52c1.025.6,1.345,1.555,1.025,3.034l-.134.614h.714c.4,0,1.328-.05,2.076-.109l1.362-.109L81.4,20.2c-2.529937-4.302948-6.047058-7.942437-10.261-10.618-2.976588-1.833525-6.119918-3.381418-9.388-4.623-4.238981-1.466934-8.633018-2.440031-13.095-2.9-3.783369-.257902-7.579998-.255229-11.363.008-5.348388.519276-10.590864,1.825009-15.558,3.875C11.145,10.456,4.026,17.936,2.2,26.459c-.482427,2.694169-.508119,5.450306-.076,8.153.987592,4.520415,3.237761,8.667746,6.489,11.96c6.976,7.346,17.633,11.868,30.409,12.885c1.715.134,9.128-.067,10.868-.294Zm-2.328-8.018c-.745491-.29518-1.296379-.940442-1.471-1.723-.092-.487.017-.824.714-2.177c2.733718-5.095091,4.127683-10.801367,4.051-16.583.080644-5.556871-1.218852-11.046916-3.782-15.978-.416644-.782102-.768166-1.59719-1.051-2.437.067915-.707687.438794-1.351345,1.017-1.765.803629-.448765,1.796685-.37929,2.53.177.505227.660964.938982,1.373611,1.294,2.126c1.952069,3.857562,3.271557,8.003752,3.908,12.28.417043,3.388576.470681,6.812023.16,10.212-.542776,4.344509-1.794386,8.570594-3.705,12.51-1.16,2.387-1.883,3.37-2.488,3.37-.147721.005849-.294312.028324-.437.067-.249813.02265-.50162-.005934-.74-.084ZM39.7,47.034c-1.035558-.337124-1.656301-1.394446-1.446-2.463.067-.227.546-1.261,1.059-2.3c2.131487-4.261051,3.03914-9.029866,2.622-13.776-.242078-3.400037-1.183384-6.713505-2.765-9.733-1.151-2.362-1.21-2.723-.538-3.681.774013-.915158,2.138171-1.042325,3.068-.286c1.295831,2.007251,2.332401,4.17044,3.085,6.438c2.301664,7.076997,1.946163,14.750138-1,21.584-1.517,3.553-2.585,4.654-4.085,4.217Zm-8.1-4.169c-.651591-.316394-1.131042-.903366-1.311-1.605-.092-.4.067-.857.807-2.353c2.716345-5.050336,2.75081-11.119139.092-16.2-1.168-2.362-1.193-2.832-.21-3.765.338715-.400941.857224-.603378,1.378-.538c1.151,0,1.748.58,2.774,2.69c1.522423,2.990812,2.284548,6.310641,2.219,9.666.071364,3.367495-.718604,6.69741-2.295,9.674-.967,1.958-1.446,2.479-2.412,2.606-.355378.019667-.710811-.037639-1.042-.168Zm-7.564-3.883c-.584667-.307857-1.025227-.832795-1.227-1.462-.185-.656-.034-1.177.706-2.4.888552-1.310484,1.303727-2.884762,1.177-4.463.127054-1.576101-.287446-3.148381-1.175-4.457-.285817-.449145-.527925-.924653-.723-1.42-.218498-1.16889.547546-2.294953,1.715-2.521.983-.185,1.656.252,2.563,1.664c2.613749,4.150087,2.613749,9.431913,0,13.582-.925,1.42-1.95,1.925-3.034,1.479Zm56.338,6.337c.571718-.188291,1.132866-.407276,1.681-.656-.054717-.433065-.182532-.853703-.378-1.244-.521-1.3-.437-1.269-2.3-.916-2.009.387-3.177.042-5.379-1.58-.410035-.341297-.872708-.613835-1.37-.807-.300554.090671-.567024.269362-.765.513-.559769.567085-.640599,1.450772-.193,2.11c2.072369,1.282614,4.279248,2.333908,6.581,3.135.72763-.102736,1.441-.288964,2.126-.555ZM79.5,41.092c.815-.168.908-.219.765-.487-.16-.294-7.8-6.631-8.464-7.026-.223938-.159905-.502334-.224053-.773668-.178268s-.513265.197734-.672332.422268c-1.328,1.42-1.168,1.723,2.269,4.354c4.152,3.185,4.6,3.37,6.875,2.916ZM69.248,31.485c0-.042-.866-.79-1.925-1.656-2.614-2.152-3.177-2.959-3.177-4.555.090228-1.46217.983653-2.753785,2.32-3.354.844193-.3797,1.791264-.465606,2.69-.244.5.168,2.79,1.4,5.951,3.219l.664.387.546-2.606c.563-2.664.572-3.37.05-3.53-.16-.05-3.211-.605-6.774-1.236-6.337-1.118-7.035-1.185-7.329-.706-.16.252-2.572,11.431-2.572,11.9.002166.245084.098477.479953.269.656c1.499773.433838,3.027291.765268,4.572.992c4.572.824,4.715.849,4.715.731Z" transform="translate(30.819 91.782)" fill="#454343"/><path d="M42.264,62.655c-1.633,0-2.9-.034-3.579-.1-5.955849-.482011-11.800428-1.887828-17.324-4.167-4.998534-2.024857-9.554982-5.003616-13.415-8.77-3.930612-3.770332-6.646519-8.627975-7.8-13.951-.528468-2.956169-.52542-5.982901.009-8.938C1.734,19.375,6.5,12.9,13.949,8.019c8.133-5.332,18.66-8.268,29.643-8.268c11.081,0,21.66,2.982,29.789,8.4c2.060224,1.34633,3.971025,2.908494,5.7,4.66c2.52767,2.49446,4.617821,5.396264,6.183,8.584.084308.03736.17252.065199.263.083c1.647253.457892,3.151697,1.325536,4.373,2.522c1.428354,1.458864,2.671092,3.088529,3.7,4.852c1.94,2.931,10.378,15.962,10.879,16.8.231052.40233.224921.898502-.016,1.295-.267318.478835-.76776.780774-1.316.794-.786,0-1.213-.574-1.691-1.324-.3-.479-2.273-3.542-4.8-7.451C88.565,26.43,88.169,25.9,86.085,24.857l-1.022-.511h-3.322c-1.429,0-2.412,0-2.875.03-.129.567-.288,1.276-.362,1.69.67.388,2.187,1.249,4.011,2.271l4.973,2.782-.6,1.247c-.308.634-.6,1.023-1.108,1.023-.254,0-.254,0-2.806-1.413-1.574-.872-3.583-1.994-5.659-3.162-4.463-2.5-7.9-4.354-8.372-4.554-.05841-.013126-.118135-.019501-.178-.019-.855,0-1.936.944-1.936,1.523c0,.391,0,.606.905,1.5c1.008.99,2.96,2.606,6.867,5.805c7.4,6.068,7.928,6.76,8.1,6.987.984147,1.403326,1.777111,2.931413,2.358,4.544.891958,2.767609,3.213733,4.834471,6.066,5.4l1.815.457-.205,1.325c-.111.723-.211.94-.377,1.11-.178534.181118-.424842.279061-.679.27-1.344955-.239996-2.650298-.664679-3.879-1.262-2.00544-.970092-3.664063-2.533408-4.751-4.478-.284.1-.661.232-1.092.39-1.213938.332774-2.288788,1.046886-3.066,2.037-6.892,6.729-16.824,11.056-28.725,12.513-1.353.19-5.083.293-7.902.293ZM43.592,1.368c-10.672,0-20.884,2.842-28.756,8-7.082,4.648-11.612,10.768-13.1,17.7-.485413,2.731032-.488121,5.526033-.008,8.258c1.07065,5.025066,3.636756,9.608568,7.361,13.148c3.712152,3.620069,8.093685,6.482671,12.9,8.428c5.369815,2.214225,11.051423,3.579552,16.841,4.047.631.057,1.85.089,3.435.089c2.8,0,6.444-.1,7.687-.277c11.559-1.415,21.169-5.587,27.8-12.066.536345-.569359,1.122696-1.089444,1.752-1.554-.224414.056162-.453897.089663-.685.1h-.038-.041l.2.1-2.04,1.938c-3.583644,3.242267-7.714393,5.822631-12.2,7.621-4.529572,1.840986-9.287386,3.060714-14.144,3.626-1.4.182-6.256.344-9.1.344-.9,0-1.548-.015-1.934-.046-6.062047-.422999-12.016513-1.818846-17.635-4.134-5.005915-2.051893-9.533896-5.11594-13.3-9-3.350065-3.403818-5.670191-7.684942-6.693-12.35-.452858-2.8151-.427163-5.686455.076-8.493c1.88-8.785,9.172-16.473,20.006-21.09c5.040549-2.080844,10.360474-3.406782,15.788-3.935c1.18-.128,3.367-.2,5.848-.2c2.395,0,4.521.073,5.687.2c4.525884.461162,8.983002,1.445742,13.282,2.934c3.331038,1.261515,6.533649,2.839046,9.564,4.711c4.329823,2.742208,7.939587,6.481933,10.527,10.906l1.257,2.342-.178.014h.591c-.189745-.112646-.345293-.274761-.45-.469-1.498376-3.083258-3.509274-5.889792-5.947-8.3-1.656469-1.678486-3.487145-3.175611-5.461-4.466-7.865-5.24-18.126-8.126-28.892-8.126Zm.02,1.867c-2.39,0-4.565.075-5.674.195-5.269042.510923-10.433937,1.796081-15.328,3.814C12.266,11.653,5.319,18.922,3.551,27.186c-.457079,2.58256-.482761,5.223038-.076,7.814.963138,4.372931,3.141761,8.384924,6.285,11.574c3.613244,3.723251,7.95667,6.659948,12.758,8.626c5.457523,2.245496,11.240734,3.598446,17.128,4.007.236.019.749.043,1.808.041c2.776,0,7.585-.16,8.891-.331c4.71828-.54742,9.340845-1.730476,13.742-3.517c4.300574-1.720016,8.261942-4.189268,11.7-7.293l.342-.325-1.949-.931c-3.151-1.51-3.837-1.891-4.368-3.657-.312667-1.255839.086331-2.582124,1.04-3.457l.035-.038-.689-.523c-.834283-.496294-1.504633-1.226446-1.928-2.1-.380355-.964174-.324927-2.04576.152-2.966l-3.188-.56c-1.557-.276-4.626-.835-5.11-.98-1.01713-.371923-1.785786-1.220998-2.055-2.27-.048-.2-.111-.474,1.053-6.155.524-2.559,1.234-5.854,1.509-6.719.435488-1.06666,1.345639-1.867622,2.459-2.164.077919-.013543.156918-.019903.236-.019c1.078,0,6.891,1.022,7.55,1.138c2.407236.330414,4.787913.83168,7.124,1.5c1.23255.709497,1.837568,2.156298,1.477,3.532.44-.014,1.136-.054,1.733-.1l.128-.01-.087-.163c-2.47511-4.180089-5.901183-7.717509-10-10.325-2.921818-1.796638-6.006051-3.314648-9.212-4.534-4.177949-1.44904-8.509911-2.408454-12.909-2.859-1.114-.122-3.176-.187-5.518-.187ZM72.833,42.759c1.920539,1.124101,3.93351,2.082244,6.017,2.864.618061-.11817,1.225172-.287759,1.815-.507.4-.141.738-.268,1-.368-.047-.133-.106-.288-.178-.463l-.054-.134c-.07-.176-.147-.37-.2-.486-.2.013-.54.078-.961.158l-.185.035c-.490495.100168-.989413.153408-1.49.159-1.674872-.102336-3.266601-.765234-4.519-1.882-.277242-.209018-.567127-.400716-.868-.574-.070997.056092-.137839.117252-.2.183-.265982.267755-.336654.673021-.177,1.015Zm-1.088-8.007c-.025,0-.107.037-.239.179-.472.5-.551.673-.556.729.036.374,1.719,1.662,2.725,2.432c3.055,2.344,3.958,2.934,4.96,2.934v0c.256269-.004412.511765-.029493.764-.075-1.989-1.721-6.923-5.791-7.454-6.12-.05903-.041925-.127287-.069022-.199-.079ZM70.2,32.776l.973.171-.306.434c.405252-.245513.894579-.310756,1.35-.18-.585-.479-1.12-.919-1.612-1.325.006152.055441.00849.111239.007.167.001758.289617-.144587.560055-.388.717Zm-9.14-3.115c.536.15,2.061.482,4.17.855l1.963.353c-2.511-2.082-3.3-3.08-3.3-5.037.087761-1.765252,1.150568-3.334984,2.757-4.072.66759-.313002,1.397768-.46964,2.135-.458.399176-.006429.796925.049236,1.179.165.77.257,4.106,2.144,5.8,3.114l.317-1.511c.205186-.864249.344916-1.742739.418-2.628-.723-.142-3.109-.577-6.492-1.175-2.118508-.44444-4.260173-.77028-6.415-.976h-.088c-.42,1.636-2.304,10.385-2.442,11.37ZM48.731,52.608c-.283905-.005485-.565776-.049212-.838-.13-1.035358-.382977-1.803529-1.268052-2.037-2.347-.149-.783.085-1.331.79-2.7c2.680574-4.977732,4.044401-10.557992,3.962-16.211.073223-5.432393-1.197824-10.798618-3.7-15.621-.506002-.875767-.887345-1.817848-1.133-2.799.065508-.988913.581664-1.892923,1.4-2.452.471172-.279144,1.010411-.422434,1.558-.414.711575-.020443,1.405401.224017,1.947.686.568554.73109,1.059529,1.51933,1.465,2.352c1.993843,3.934511,3.340126,8.16482,3.987,12.528.427099,3.4642.48141,6.964217.162,10.44-.55845,4.430562-1.835537,8.740433-3.781,12.76-1.39,2.861-2.2,3.826-3.215,3.826-.072529.006114-.144435.018155-.215.036-.114612.031685-.233095.047169-.352.046ZM47.4,12.733c.087.256.417,1.046.962,2.152c2.614587,5.043287,3.941633,10.654803,3.863,16.335.067248,5.909632-1.357005,11.740781-4.141,16.954-.666,1.293-.677,1.449-.638,1.655.11715.485983.450699.891401.905,1.1.117387.033875.238085.054997.36.063.177977-.044048.35985-.070508.543-.079.171-.089.661-.56,1.806-2.916c1.869319-3.864429,3.096078-8.00778,3.632-12.267.297857-3.32499.244898-6.672097-.158-9.986-.622757-4.191361-1.917377-8.254861-3.834-12.034-.319923-.668161-.697345-1.307235-1.128-1.91-.24416-.173781-.539658-.260422-.839-.246-.244244-.007242-.485965.051117-.7.169-.322305.252566-.546213.609827-.633,1.01ZM40.854,48.491c-.277118-.002029-.55254-.043444-.818-.123-.756303-.23911-1.385427-.771003-1.747-1.477-.343705-.60781-.431493-1.327384-.244-2c.138-.449,1.006-2.218,1.106-2.42c2.06021-4.128628,2.940224-8.746018,2.543-13.343-.231809-3.302874-1.14642-6.52172-2.686-9.453-1.132-2.321-1.443-3.121-.474-4.5.50578-.631573,1.245233-1.032062,2.050549-1.110579s1.608201.171597,2.226451.693579c.785.716,2.662,4.812,3.306,6.782c2.347267,7.264544,1.98277,15.133551-1.026,22.15-1.268,2.965-2.419,4.801-4.237,4.801Zm.027-32.826c-.390505-.020293-.768472.141008-1.024.437-.423.6-.467.666.6,2.862c1.621617,3.10774,2.589186,6.514821,2.843,10.011.425537,4.893949-.508812,9.810352-2.7,14.207-.582,1.183-.961,2.026-1.011,2.181-.059327.262204-.01451.537201.125.767.159873.319333.436757.564695.773.685.118284.036617.241192.056148.365.058.772,0,1.62-1.178,2.751-3.82c2.855131-6.656719,3.20151-14.122516.975-21.015-.724423-2.133856-1.685405-4.179926-2.865-6.1-.235257-.18922-.531381-.286269-.833-.273ZM33.07,44.405c-1.450034.023871-2.712722-.985356-3.009-2.405-.162-.706.11-1.354.87-2.891c2.599884-4.827631,2.634353-10.630826.092-15.489-1.16-2.345-1.464-3.359-.041-4.709.49052-.542195,1.206605-.823448,1.935-.76c1.677,0,2.465,1.014,3.5,3.145c1.579891,3.100071,2.369937,6.542263,2.3,10.021.076137,3.490075-.742156,6.94157-2.377,10.026-.988,2-1.627,2.867-3.033,3.051h-.035c-.063.006-.131.011-.202.011Zm-.153-24.64c-.489,0-.5.006-.822.316-.613.582-.692.656.378,2.82c2.780219,5.305875,2.745749,11.64567-.092,16.921-.325698.570157-.575799,1.180282-.744,1.815.124442.453369.433582.833627.852,1.048.201916.072369.415599.106287.63.1.5-.067.812-.217,1.771-2.159c1.519465-2.865906,2.280265-6.072969,2.21-9.316.065289-3.231855-.668425-6.429831-2.136-9.31-1.036-2.131-1.434-2.235-2.047-2.235ZM25.352,40.506c-.365186-.002396-.726349-.076464-1.063-.218-.81744-.398755-1.432975-1.118569-1.7-1.988-.284-1.006.03-1.78.792-3.037.813355-1.183458,1.187916-2.61379,1.059-4.044.12514-1.428496-.248749-2.856204-1.058-4.04-.323068-.508324-.593784-1.048082-.808-1.611-.195847-.720082-.078161-1.489398.324-2.118.442723-.737123,1.173167-1.255866,2.015-1.431.182602-.035078.368062-.053156.554-.054c1.323,0,2.147,1,2.84,2.076c2.77867,4.418811,2.77867,10.039189,0,14.458-.567671,1.138482-1.687432,1.89901-2.955,2.007Zm.119-16.923c-.085616.000851-.170974.009554-.255.026-.390822.089779-.72771.335939-.932.681-.163064.237396-.219948.531958-.157.813.175987.427003.38879.837885.636,1.228.967781,1.438101,1.425502,3.159133,1.3,4.888.122486,1.726104-.334285,3.443749-1.298,4.881-.709,1.168-.706,1.442-.618,1.755.134548.389574.401335.719696.754.933.142227.062873.295527.096865.451.1.641,0,1.224-.69,1.6-1.269c2.441567-3.883457,2.441567-8.822543,0-12.706-.793-1.227-1.18-1.33-1.481-1.33Z" transform="translate(30.261 91.223)" fill="#454343"/><rect width="41" height="4" rx="0" ry="0" transform="translate(74.846 192.433)" fill="#454343"/><rect width="41" height="4" rx="0" ry="0" transform="translate(74.846 185.433)" fill="#454343"/><rect width="25" height="4" rx="0" ry="0" transform="translate(119.846 192.433)" fill="#454343"/></g><g id="eE7YKDI1F5381" transform="translate(350.154 757.396)"><path d="M6.564,0h205.5c3.625197,0,6.564,2.938803,6.564,6.564v122.7c0,3.625197-2.938803,6.564-6.564,6.564h-205.5c-1.741748.000001-3.412085-.692248-4.643218-1.924319s-1.922109-2.902934-1.920782-4.644681L0,6.564C0,2.938803,2.938803,0,6.564,0Z" transform="translate(1.515 1.515)" fill="#fff"/><path d="M5.079,-3h205.5c4.459852.00496,8.07404,3.619148,8.079,8.079v122.7c-.00496,4.459852-3.619148,8.07404-8.079,8.079h-205.5c-4.461803-.004964-8.076796-3.622195-8.079-8.084L-3,5.079C-2.99504,0.619148,0.619148,-2.99504,5.079,-3Zm205.5,135.823c2.787115-.003306,5.045694-2.261885,5.049-5.049v-122.695c-.003305-2.786725-2.261275-5.045143-5.048-5.049h-205.501C2.291885,0.033306,0.033306,2.291885,0.03,5.079v122.7c.003306,2.787115,2.261885,5.045694,5.049,5.049Z" transform="translate(3 3)" fill="#454343"/><g transform="matrix(.682901 0 0 0.682901 147.687303-54.604834)"><path d="M47.563,51.148c-.745491-.29518-1.296379-.940442-1.471-1.723-.092-.487.017-.824.714-2.177c2.733718-5.095091,4.127683-10.801367,4.051-16.583.080644-5.556871-1.218852-11.046916-3.782-15.978-.416644-.782102-.768166-1.59719-1.051-2.437.067915-.707687.438794-1.351345,1.017-1.765.803629-.448765,1.796685-.37929,2.53.177.505227.660964.938982,1.373611,1.294,2.126c1.952069,3.857562,3.271557,8.003752,3.908,12.28.417043,3.388576.470681,6.812023.16,10.212-.542776,4.344509-1.794386,8.570594-3.705,12.51-1.16,2.387-1.883,3.37-2.488,3.37-.147721.005849-.294312.028324-.437.067-.249813.02265-.50162-.005934-.74-.084ZM39.7,47.034c-1.035558-.337124-1.656301-1.394446-1.446-2.463.067-.227.546-1.261,1.059-2.3c2.131487-4.261051,3.03914-9.029866,2.622-13.776-.242078-3.400037-1.183384-6.713505-2.765-9.733-1.151-2.362-1.21-2.723-.538-3.681.774013-.915158,2.138171-1.042325,3.068-.286c1.295831,2.007251,2.332401,4.17044,3.085,6.438c2.301664,7.076997,1.946163,14.750138-1,21.584-1.517,3.553-2.585,4.654-4.085,4.217Zm-8.1-4.169c-.651591-.316394-1.131042-.903366-1.311-1.605-.092-.4.067-.857.807-2.353c2.716345-5.050336,2.75081-11.119139.092-16.2-1.168-2.362-1.193-2.832-.21-3.765.338715-.400941.857224-.603378,1.378-.538c1.151,0,1.748.58,2.774,2.69c1.522423,2.990812,2.284548,6.310641,2.219,9.666.071364,3.367495-.718604,6.69741-2.295,9.674-.967,1.958-1.446,2.479-2.412,2.606-.355378.019667-.710811-.037639-1.042-.168Zm-7.564-3.883c-.584667-.307857-1.025227-.832795-1.227-1.462-.185-.656-.034-1.177.706-2.4.888552-1.310484,1.303727-2.884762,1.177-4.463.127054-1.576101-.287446-3.148381-1.175-4.457-.285817-.449145-.527925-.924653-.723-1.42-.218498-1.16889.547546-2.294953,1.715-2.521.983-.185,1.656.252,2.563,1.664c2.613749,4.150087,2.613749,9.431913,0,13.582-.925,1.42-1.95,1.925-3.034,1.479Z" transform="translate(30.819 91.782)" fill="#454343"/><path d="M48.731,52.608c-.283905-.005485-.565776-.049212-.838-.13-1.035358-.382977-1.803529-1.268052-2.037-2.347-.149-.783.085-1.331.79-2.7c2.680574-4.977732,4.044401-10.557992,3.962-16.211.073223-5.432393-1.197824-10.798618-3.7-15.621-.506002-.875767-.887345-1.817848-1.133-2.799.065508-.988913.581664-1.892923,1.4-2.452.471172-.279144,1.010411-.422434,1.558-.414.711575-.020443,1.405401.224017,1.947.686.568554.73109,1.059529,1.51933,1.465,2.352c1.993843,3.934511,3.340126,8.16482,3.987,12.528.427099,3.4642.48141,6.964217.162,10.44-.55845,4.430562-1.835537,8.740433-3.781,12.76-1.39,2.861-2.2,3.826-3.215,3.826-.072529.006114-.144435.018155-.215.036-.114612.031685-.233095.047169-.352.046ZM47.4,12.733c.087.256.417,1.046.962,2.152c2.614587,5.043287,3.941633,10.654803,3.863,16.335.067248,5.909632-1.357005,11.740781-4.141,16.954-.666,1.293-.677,1.449-.638,1.655.11715.485983.450699.891401.905,1.1.117387.033875.238085.054997.36.063.177977-.044048.35985-.070508.543-.079.171-.089.661-.56,1.806-2.916c1.869319-3.864429,3.096078-8.00778,3.632-12.267.297857-3.32499.244898-6.672097-.158-9.986-.622757-4.191361-1.917377-8.254861-3.834-12.034-.319923-.668161-.697345-1.307235-1.128-1.91-.24416-.173781-.539658-.260422-.839-.246-.244244-.007242-.485965.051117-.7.169-.322305.252566-.546213.609827-.633,1.01ZM40.854,48.491c-.277118-.002029-.55254-.043444-.818-.123-.756303-.23911-1.385427-.771003-1.747-1.477-.343705-.60781-.431493-1.327384-.244-2c.138-.449,1.006-2.218,1.106-2.42c2.06021-4.128628,2.940224-8.746018,2.543-13.343-.231809-3.302874-1.14642-6.52172-2.686-9.453-1.132-2.321-1.443-3.121-.474-4.5.50578-.631573,1.245233-1.032062,2.050549-1.110579s1.608201.171597,2.226451.693579c.785.716,2.662,4.812,3.306,6.782c2.347267,7.264544,1.98277,15.133551-1.026,22.15-1.268,2.965-2.419,4.801-4.237,4.801Zm.027-32.826c-.390505-.020293-.768472.141008-1.024.437-.423.6-.467.666.6,2.862c1.621617,3.10774,2.589186,6.514821,2.843,10.011.425537,4.893949-.508812,9.810352-2.7,14.207-.582,1.183-.961,2.026-1.011,2.181-.059327.262204-.01451.537201.125.767.159873.319333.436757.564695.773.685.118284.036617.241192.056148.365.058.772,0,1.62-1.178,2.751-3.82c2.855131-6.656719,3.20151-14.122516.975-21.015-.724423-2.133856-1.685405-4.179926-2.865-6.1-.235257-.18922-.531381-.286269-.833-.273ZM33.07,44.405c-1.450034.023871-2.712722-.985356-3.009-2.405-.162-.706.11-1.354.87-2.891c2.599884-4.827631,2.634353-10.630826.092-15.489-1.16-2.345-1.464-3.359-.041-4.709.49052-.542195,1.206605-.823448,1.935-.76c1.677,0,2.465,1.014,3.5,3.145c1.579891,3.100071,2.369937,6.542263,2.3,10.021.076137,3.490075-.742156,6.94157-2.377,10.026-.988,2-1.627,2.867-3.033,3.051h-.035c-.063.006-.131.011-.202.011Zm-.153-24.64c-.489,0-.5.006-.822.316-.613.582-.692.656.378,2.82c2.780219,5.305875,2.745749,11.64567-.092,16.921-.325698.570157-.575799,1.180282-.744,1.815.124442.453369.433582.833627.852,1.048.201916.072369.415599.106287.63.1.5-.067.812-.217,1.771-2.159c1.519465-2.865906,2.280265-6.072969,2.21-9.316.065289-3.231855-.668425-6.429831-2.136-9.31-1.036-2.131-1.434-2.235-2.047-2.235ZM25.352,40.506c-.365186-.002396-.726349-.076464-1.063-.218-.81744-.398755-1.432975-1.118569-1.7-1.988-.284-1.006.03-1.78.792-3.037.813355-1.183458,1.187916-2.61379,1.059-4.044.12514-1.428496-.248749-2.856204-1.058-4.04-.323068-.508324-.593784-1.048082-.808-1.611-.195847-.720082-.078161-1.489398.324-2.118.442723-.737123,1.173167-1.255866,2.015-1.431.182602-.035078.368062-.053156.554-.054c1.323,0,2.147,1,2.84,2.076c2.77867,4.418811,2.77867,10.039189,0,14.458-.567671,1.138482-1.687432,1.89901-2.955,2.007Zm.119-16.923c-.085616.000851-.170974.009554-.255.026-.390822.089779-.72771.335939-.932.681-.163064.237396-.219948.531958-.157.813.175987.427003.38879.837885.636,1.228.967781,1.438101,1.425502,3.159133,1.3,4.888.122486,1.726104-.334285,3.443749-1.298,4.881-.709,1.168-.706,1.442-.618,1.755.134548.389574.401335.719696.754.933.142227.062873.295527.096865.451.1.641,0,1.224-.69,1.6-1.269c2.441567-3.883457,2.441567-8.822543,0-12.706-.793-1.227-1.18-1.33-1.481-1.33Z" transform="translate(30.261 91.223)" fill="#454343"/></g><rect width="221" height="24" rx="0" ry="0" transform="translate(.079 90.393)" fill="#454343"/><rect width="103" height="20" rx="2" ry="2" transform="translate(23.078 32.393)" fill="#454343"/></g></g><script><![CDATA[!function(t,n){"object"==typeof exports&&"undefined"!=typeof module?module.exports=n():"function"==typeof define&&define.amd?define(n):((t="undefined"!=typeof globalThis?globalThis:t||self).__SVGATOR_PLAYER__=t.__SVGATOR_PLAYER__||{},t.__SVGATOR_PLAYER__["5c7f360c"]=n())}(this,(function(){"use strict";function t(t,n){var e=Object.keys(t);if(Object.getOwnPropertySymbols){var r=Object.getOwnPropertySymbols(t);n&&(r=r.filter((function(n){return Object.getOwnPropertyDescriptor(t,n).enumerable}))),e.push.apply(e,r)}return e}function n(n){for(var e=1;e<arguments.length;e++){var r=null!=arguments[e]?arguments[e]:{};e%2?t(Object(r),!0).forEach((function(t){o(n,t,r[t])})):Object.getOwnPropertyDescriptors?Object.defineProperties(n,Object.getOwnPropertyDescriptors(r)):t(Object(r)).forEach((function(t){Object.defineProperty(n,t,Object.getOwnPropertyDescriptor(r,t))}))}return n}function e(t){return(e="function"==typeof Symbol&&"symbol"==typeof Symbol.iterator?function(t){return typeof t}:function(t){return t&&"function"==typeof Symbol&&t.constructor===Symbol&&t!==Symbol.prototype?"symbol":typeof t})(t)}function r(t,n){if(!(t instanceof n))throw new TypeError("Cannot call a class as a function")}function i(t,n){for(var e=0;e<n.length;e++){var r=n[e];r.enumerable=r.enumerable||!1,r.configurable=!0,"value"in r&&(r.writable=!0),Object.defineProperty(t,r.key,r)}}function u(t,n,e){return n&&i(t.prototype,n),e&&i(t,e),t}function o(t,n,e){return n in t?Object.defineProperty(t,n,{value:e,enumerable:!0,configurable:!0,writable:!0}):t[n]=e,t}function a(t){return(a=Object.setPrototypeOf?Object.getPrototypeOf:function(t){return t.__proto__||Object.getPrototypeOf(t)})(t)}function l(t,n){return(l=Object.setPrototypeOf||function(t,n){return t.__proto__=n,t})(t,n)}function s(){if("undefined"==typeof Reflect||!Reflect.construct)return!1;if(Reflect.construct.sham)return!1;if("function"==typeof Proxy)return!0;try{return Boolean.prototype.valueOf.call(Reflect.construct(Boolean,[],(function(){}))),!0}catch(t){return!1}}function f(t,n,e){return(f=s()?Reflect.construct:function(t,n,e){var r=[null];r.push.apply(r,n);var i=new(Function.bind.apply(t,r));return e&&l(i,e.prototype),i}).apply(null,arguments)}function c(t,n){if(n&&("object"==typeof n||"function"==typeof n))return n;if(void 0!==n)throw new TypeError("Derived constructors may only return object or undefined");return function(t){if(void 0===t)throw new ReferenceError("this hasn't been initialised - super() hasn't been called");return t}(t)}function h(t,n,e){return(h="undefined"!=typeof Reflect&&Reflect.get?Reflect.get:function(t,n,e){var r=function(t,n){for(;!Object.prototype.hasOwnProperty.call(t,n)&&null!==(t=a(t)););return t}(t,n);if(r){var i=Object.getOwnPropertyDescriptor(r,n);return i.get?i.get.call(e):i.value}})(t,n,e||t)}function v(t){return function(t){if(Array.isArray(t))return y(t)}(t)||function(t){if("undefined"!=typeof Symbol&&null!=t[Symbol.iterator]||null!=t["@@iterator"])return Array.from(t)}(t)||function(t,n){if(!t)return;if("string"==typeof t)return y(t,n);var e=Object.prototype.toString.call(t).slice(8,-1);"Object"===e&&t.constructor&&(e=t.constructor.name);if("Map"===e||"Set"===e)return Array.from(t);if("Arguments"===e||/^(?:Ui|I)nt(?:8|16|32)(?:Clamped)?Array$/.test(e))return y(t,n)}(t)||function(){throw new TypeError("Invalid attempt to spread non-iterable instance.\nIn order to be iterable, non-array objects must have a [Symbol.iterator]() method.")}()}function y(t,n){(null==n||n>t.length)&&(n=t.length);for(var e=0,r=new Array(n);e<n;e++)r[e]=t[e];return r}Number.isInteger||(Number.isInteger=function(t){return"number"==typeof t&&isFinite(t)&&Math.floor(t)===t}),Number.EPSILON||(Number.EPSILON=2220446049250313e-31);var g=d(Math.pow(10,-6));function d(t){var n=arguments.length>1&&void 0!==arguments[1]?arguments[1]:6;if(Number.isInteger(t))return t;var e=Math.pow(10,n);return Math.round((+t+Number.EPSILON)*e)/e}function p(t,n){var e=arguments.length>2&&void 0!==arguments[2]?arguments[2]:g;return Math.abs(t-n)<e}var m=Math.PI/180;function b(t){return t}function w(t,n,e){var r=1-e;return 3*e*r*(t*r+n*e)+e*e*e}function x(){var t=arguments.length>0&&void 0!==arguments[0]?arguments[0]:0,n=arguments.length>1&&void 0!==arguments[1]?arguments[1]:0,e=arguments.length>2&&void 0!==arguments[2]?arguments[2]:1,r=arguments.length>3&&void 0!==arguments[3]?arguments[3]:1;return t<0||t>1||e<0||e>1?null:p(t,n)&&p(e,r)?b:function(i){if(i<=0)return t>0?i*n/t:0===n&&e>0?i*r/e:0;if(i>=1)return e<1?1+(i-1)*(r-1)/(e-1):1===e&&t<1?1+(i-1)*(n-1)/(t-1):1;for(var u,o=0,a=1;o<a;){var l=w(t,e,u=(o+a)/2);if(p(i,l))break;l<i?o=u:a=u}return w(n,r,u)}}function A(){return 1}function k(t){return 1===t?1:0}function _(){var t=arguments.length>0&&void 0!==arguments[0]?arguments[0]:1,n=arguments.length>1&&void 0!==arguments[1]?arguments[1]:0;if(1===t){if(0===n)return k;if(1===n)return A}var e=1/t;return function(t){return t>=1?1:(t+=n*e)-t%e}}var S=Math.sin,O=Math.cos,j=Math.acos,M=Math.asin,P=Math.tan,E=Math.atan2,I=Math.PI/180,R=180/Math.PI,F=Math.sqrt,N=function(){function t(){var n=arguments.length>0&&void 0!==arguments[0]?arguments[0]:1,e=arguments.length>1&&void 0!==arguments[1]?arguments[1]:0,i=arguments.length>2&&void 0!==arguments[2]?arguments[2]:0,u=arguments.length>3&&void 0!==arguments[3]?arguments[3]:1,o=arguments.length>4&&void 0!==arguments[4]?arguments[4]:0,a=arguments.length>5&&void 0!==arguments[5]?arguments[5]:0;r(this,t),this.m=[n,e,i,u,o,a],this.i=null,this.w=null,this.s=null}return u(t,[{key:"determinant",get:function(){var t=this.m;return t[0]*t[3]-t[1]*t[2]}},{key:"isIdentity",get:function(){if(null===this.i){var t=this.m;this.i=1===t[0]&&0===t[1]&&0===t[2]&&1===t[3]&&0===t[4]&&0===t[5]}return this.i}},{key:"point",value:function(t,n){var e=this.m;return{x:e[0]*t+e[2]*n+e[4],y:e[1]*t+e[3]*n+e[5]}}},{key:"translateSelf",value:function(){var t=arguments.length>0&&void 0!==arguments[0]?arguments[0]:0,n=arguments.length>1&&void 0!==arguments[1]?arguments[1]:0;if(!t&&!n)return this;var e=this.m;return e[4]+=e[0]*t+e[2]*n,e[5]+=e[1]*t+e[3]*n,this.w=this.s=this.i=null,this}},{key:"rotateSelf",value:function(){var t=arguments.length>0&&void 0!==arguments[0]?arguments[0]:0;if(t%=360){var n=S(t*=I),e=O(t),r=this.m,i=r[0],u=r[1];r[0]=i*e+r[2]*n,r[1]=u*e+r[3]*n,r[2]=r[2]*e-i*n,r[3]=r[3]*e-u*n,this.w=this.s=this.i=null}return this}},{key:"scaleSelf",value:function(){var t=arguments.length>0&&void 0!==arguments[0]?arguments[0]:1,n=arguments.length>1&&void 0!==arguments[1]?arguments[1]:1;if(1!==t||1!==n){var e=this.m;e[0]*=t,e[1]*=t,e[2]*=n,e[3]*=n,this.w=this.s=this.i=null}return this}},{key:"skewSelf",value:function(t,n){if(n%=360,(t%=360)||n){var e=this.m,r=e[0],i=e[1],u=e[2],o=e[3];t&&(t=P(t*I),e[2]+=r*t,e[3]+=i*t),n&&(n=P(n*I),e[0]+=u*n,e[1]+=o*n),this.w=this.s=this.i=null}return this}},{key:"resetSelf",value:function(){var t=arguments.length>0&&void 0!==arguments[0]?arguments[0]:1,n=arguments.length>1&&void 0!==arguments[1]?arguments[1]:0,e=arguments.length>2&&void 0!==arguments[2]?arguments[2]:0,r=arguments.length>3&&void 0!==arguments[3]?arguments[3]:1,i=arguments.length>4&&void 0!==arguments[4]?arguments[4]:0,u=arguments.length>5&&void 0!==arguments[5]?arguments[5]:0,o=this.m;return o[0]=t,o[1]=n,o[2]=e,o[3]=r,o[4]=i,o[5]=u,this.w=this.s=this.i=null,this}},{key:"recomposeSelf",value:function(){var t=arguments.length>0&&void 0!==arguments[0]?arguments[0]:null,n=arguments.length>1&&void 0!==arguments[1]?arguments[1]:null,e=arguments.length>2&&void 0!==arguments[2]?arguments[2]:null,r=arguments.length>3&&void 0!==arguments[3]?arguments[3]:null,i=arguments.length>4&&void 0!==arguments[4]?arguments[4]:null;return this.isIdentity||this.resetSelf(),t&&(t.x||t.y)&&this.translateSelf(t.x,t.y),n&&this.rotateSelf(n),e&&(e.x&&this.skewSelf(e.x,0),e.y&&this.skewSelf(0,e.y)),!r||1===r.x&&1===r.y||this.scaleSelf(r.x,r.y),i&&(i.x||i.y)&&this.translateSelf(i.x,i.y),this}},{key:"decompose",value:function(){var t=arguments.length>0&&void 0!==arguments[0]?arguments[0]:0,n=arguments.length>1&&void 0!==arguments[1]?arguments[1]:0,e=this.m,r=e[0]*e[0]+e[1]*e[1],i=[[e[0],e[1]],[e[2],e[3]]],u=F(r);if(0===u)return{origin:{x:d(e[4]),y:d(e[5])},translate:{x:d(t),y:d(n)},scale:{x:0,y:0},skew:{x:0,y:0},rotate:0};i[0][0]/=u,i[0][1]/=u;var o=e[0]*e[3]-e[1]*e[2]<0;o&&(u=-u);var a=i[0][0]*i[1][0]+i[0][1]*i[1][1];i[1][0]-=i[0][0]*a,i[1][1]-=i[0][1]*a;var l=F(i[1][0]*i[1][0]+i[1][1]*i[1][1]);if(0===l)return{origin:{x:d(e[4]),y:d(e[5])},translate:{x:d(t),y:d(n)},scale:{x:d(u),y:0},skew:{x:0,y:0},rotate:0};i[1][0]/=l,i[1][1]/=l,a/=l;var s=0;return i[1][1]<0?(s=j(i[1][1])*R,i[0][1]<0&&(s=360-s)):s=M(i[0][1])*R,o&&(s=-s),a=E(a,F(i[0][0]*i[0][0]+i[0][1]*i[0][1]))*R,o&&(a=-a),{origin:{x:d(e[4]),y:d(e[5])},translate:{x:d(t),y:d(n)},scale:{x:d(u),y:d(l)},skew:{x:d(a),y:0},rotate:d(s)}}},{key:"clone",value:function(){var t=this.m;return new this.constructor(t[0],t[1],t[2],t[3],t[4],t[5])}},{key:"toString",value:function(){var t=arguments.length>0&&void 0!==arguments[0]?arguments[0]:" ";if(null===this.s){var n=this.m.map((function(t){return d(t)}));1===n[0]&&0===n[1]&&0===n[2]&&1===n[3]?this.s="translate("+n[4]+t+n[5]+")":this.s="matrix("+n.join(t)+")"}return this.s}}],[{key:"create",value:function(t){return t?Array.isArray(t)?f(this,v(t)):t instanceof this?t.clone():(new this).recomposeSelf(t.origin,t.rotate,t.skew,t.scale,t.translate):new this}}]),t}();function T(t,n,e){return t>=.5?e:n}function q(t,n,e){return 0===t||n===e?n:t*(e-n)+n}function B(t,n,e){var r=q(t,n,e);return r<=0?0:r}function L(t,n,e){var r=q(t,n,e);return r<=0?0:r>=1?1:r}function C(t,n,e){return 0===t?n:1===t?e:{x:q(t,n.x,e.x),y:q(t,n.y,e.y)}}function D(t,n,e){var r=function(t,n,e){return Math.round(q(t,n,e))}(t,n,e);return r<=0?0:r>=255?255:r}function z(t,n,e){return 0===t?n:1===t?e:{r:D(t,n.r,e.r),g:D(t,n.g,e.g),b:D(t,n.b,e.b),a:q(t,null==n.a?1:n.a,null==e.a?1:e.a)}}function V(t,n){for(var e=[],r=0;r<t;r++)e.push(n);return e}function G(t,n){if(--n<=0)return t;var e=(t=Object.assign([],t)).length;do{for(var r=0;r<e;r++)t.push(t[r])}while(--n>0);return t}var Y,$=function(){function t(n){r(this,t),this.list=n,this.length=n.length}return u(t,[{key:"setAttribute",value:function(t,n){for(var e=this.list,r=0;r<this.length;r++)e[r].setAttribute(t,n)}},{key:"removeAttribute",value:function(t){for(var n=this.list,e=0;e<this.length;e++)n[e].removeAttribute(t)}},{key:"style",value:function(t,n){for(var e=this.list,r=0;r<this.length;r++)e[r].style[t]=n}}]),t}(),U=/-./g,Q=function(t,n){return n.toUpperCase()};function H(t){return"function"==typeof t?t:T}function J(t){return t?"function"==typeof t?t:Array.isArray(t)?function(t){var n=arguments.length>1&&void 0!==arguments[1]?arguments[1]:b;if(!Array.isArray(t))return n;switch(t.length){case 1:return _(t[0])||n;case 2:return _(t[0],t[1])||n;case 4:return x(t[0],t[1],t[2],t[3])||n}return n}(t,null):function(t,n){var e=arguments.length>2&&void 0!==arguments[2]?arguments[2]:b;switch(t){case"linear":return b;case"steps":return _(n.steps||1,n.jump||0)||e;case"bezier":case"cubic-bezier":return x(n.x1||0,n.y1||0,n.x2||0,n.y2||0)||e}return e}(t.type,t.value,null):null}function Z(t,n,e){var r=arguments.length>3&&void 0!==arguments[3]&&arguments[3],i=n.length-1;if(t<=n[0].t)return r?[0,0,n[0].v]:n[0].v;if(t>=n[i].t)return r?[i,1,n[i].v]:n[i].v;var u,o=n[0],a=null;for(u=1;u<=i;u++){if(!(t>n[u].t)){a=n[u];break}o=n[u]}return null==a?r?[i,1,n[i].v]:n[i].v:o.t===a.t?r?[u,1,a.v]:a.v:(t=(t-o.t)/(a.t-o.t),o.e&&(t=o.e(t)),r?[u,t,e(t,o.v,a.v)]:e(t,o.v,a.v))}function K(t,n){var e=arguments.length>2&&void 0!==arguments[2]?arguments[2]:null;return t&&t.length?"function"!=typeof n?null:("function"!=typeof e&&(e=null),function(r){var i=Z(r,t,n);return null!=i&&e&&(i=e(i)),i}):null}function W(t,n){return t.t-n.t}function X(t,n,r,i,u){var o,a="@"===r[0],l="#"===r[0],s=Y[r],f=T;switch(a?(o=r.substr(1),r=o.replace(U,Q)):l&&(r=r.substr(1)),e(s)){case"function":if(f=s(i,u,Z,J,r,a,n,t),l)return f;break;case"string":f=K(i,H(s));break;case"object":if((f=K(i,H(s.i),s.f))&&"function"==typeof s.u)return s.u(n,f,r,a,t)}return f?function(t,n,e){if(arguments.length>3&&void 0!==arguments[3]&&arguments[3])return t instanceof $?function(r){return t.style(n,e(r))}:function(r){return t.style[n]=e(r)};if(Array.isArray(n)){var r=n.length;return function(i){var u=e(i);if(null==u)for(var o=0;o<r;o++)t[o].removeAttribute(n);else for(var a=0;a<r;a++)t[a].setAttribute(n,u)}}return function(r){var i=e(r);null==i?t.removeAttribute(n):t.setAttribute(n,i)}}(n,r,f,a):null}function tt(t,n,r,i){if(!i||"object"!==e(i))return null;var u=null,o=null;return Array.isArray(i)?o=function(t){if(!t||!t.length)return null;for(var n=0;n<t.length;n++)t[n].e&&(t[n].e=J(t[n].e));return t.sort(W)}(i):(o=i.keys,u=i.data||null),o?X(t,n,r,o,u):null}function nt(t,n,e){if(!e)return null;var r=[];for(var i in e)if(e.hasOwnProperty(i)){var u=tt(t,n,i,e[i]);u&&r.push(u)}return r.length?r:null}function et(t,n){if(!n.settings.duration||n.settings.duration<0)return null;var e,r,i,u,o,a=function(t,n){if(!n)return null;var e=[];if(Array.isArray(n))for(var r=n.length,i=0;i<r;i++){var u=n[i];if(2===u.length){var o=null;if("string"==typeof u[0])o=t.getElementById(u[0]);else if(Array.isArray(u[0])){o=[];for(var a=0;a<u[0].length;a++)if("string"==typeof u[0][a]){var l=t.getElementById(u[0][a]);l&&o.push(l)}o=o.length?1===o.length?o[0]:new $(o):null}if(o){var s=nt(t,o,u[1]);s&&(e=e.concat(s))}}}else for(var f in n)if(n.hasOwnProperty(f)){var c=t.getElementById(f);if(c){var h=nt(t,c,n[f]);h&&(e=e.concat(h))}}return e.length?e:null}(t,n.elements);return a?(e=a,r=n.settings,i=r.duration,u=e.length,o=null,function(t,n){var a=r.iterations||1/0,l=(r.alternate&&a%2==0)^r.direction>0?i:0,s=t%i,f=1+(t-s)/i;n*=r.direction,r.alternate&&f%2==0&&(n=-n);var c=!1;if(f>a)s=l,c=!0,-1===r.fill&&(s=r.direction>0?0:i);else if(n<0&&(s=i-s),s===o)return!1;o=s;for(var h=0;h<u;h++)e[h](s);return c}):null}function rt(t,n){if(Y=n,!t||!t.root||!Array.isArray(t.animations))return null;var e=function(t){for(var n=document.getElementsByTagName("svg"),e=0;e<n.length;e++)if(n[e].id===t.root&&!n[e].svgatorAnimation)return n[e].svgatorAnimation=!0,n[e];return null}(t);if(!e)return null;var r=t.animations.map((function(t){return et(e,t)})).filter((function(t){return!!t}));return r.length?{svg:e,animations:r,animationSettings:t.animationSettings,options:t.options||void 0}:null}function it(t){return+("0x"+(t.replace(/[^0-9a-fA-F]+/g,"")||27))}function ut(t,n,e){return!t||!e||n>t.length?t:t.substring(0,n)+ut(t.substring(n+1),e,e)}function ot(t){var n=arguments.length>1&&void 0!==arguments[1]?arguments[1]:27;return!t||t%n?t%n:ot(t/n,n)}function at(t,n,e){if(t&&t.length){var r=it(e),i=it(n),u=ot(r)+5,o=ut(t,ot(r,5),u);return o=o.replace(/\x7c$/g,"==").replace(/\x2f$/g,"="),o=function(t,n,e){var r=+("0x"+t.substring(0,4));t=t.substring(4);for(var i=n%r+e%27,u=[],o=0;o<t.length;o+=2)if("|"!==t[o]){var a=+("0x"+t[o]+t[o+1])-i;u.push(a)}else{var l=+("0x"+t.substring(o+1,o+1+4))-i;o+=3,u.push(l)}return String.fromCharCode.apply(String,u)}(o=(o=atob(o)).replace(/[\x41-\x5A]/g,""),i,r),o=JSON.parse(o)}}var lt=[{key:"alternate",def:!1},{key:"fill",def:1},{key:"iterations",def:0},{key:"direction",def:1},{key:"speed",def:1},{key:"fps",def:100}],st=function(){function t(n,e){var i=this,u=arguments.length>2&&void 0!==arguments[2]?arguments[2]:null;r(this,t),this._id=0,this._running=!1,this._rollingBack=!1,this._animations=n,this._settings=e,(!u||u<"2022-05-02")&&delete this._settings.speed,lt.forEach((function(t){i._settings[t.key]=i._settings[t.key]||t.def})),this.duration=e.duration,this.offset=e.offset||0,this.rollbackStartOffset=0}return u(t,[{key:"alternate",get:function(){return this._settings.alternate}},{key:"fill",get:function(){return this._settings.fill}},{key:"iterations",get:function(){return this._settings.iterations}},{key:"direction",get:function(){return this._settings.direction}},{key:"speed",get:function(){return this._settings.speed}},{key:"fps",get:function(){return this._settings.fps}},{key:"maxFiniteDuration",get:function(){return this.iterations>0?this.iterations*this.duration:this.duration}},{key:"_apply",value:function(t){for(var n=arguments.length>1&&void 0!==arguments[1]?arguments[1]:{},e=this._animations,r=e.length,i=0,u=0;u<r;u++)n[u]?i++:(n[u]=e[u](t,1),n[u]&&i++);return i}},{key:"_rollback",value:function(t){var n=this,e=1/0,r=null;this.rollbackStartOffset=t,this._rollingBack=!0,this._running=!0;this._id=window.requestAnimationFrame((function i(u){if(n._rollingBack){null==r&&(r=u);var o=Math.round(t-(u-r)*n.speed);if(o>n.duration&&e!==1/0){var a=!!n.alternate&&o/n.duration%2>1,l=o%n.duration;o=(l+=a?n.duration:0)||n.duration}var s=(n.fps?1e3/n.fps:0)*n.speed,f=Math.max(0,o);f<e-s&&(n.offset=f,e=f,n._apply(f));var c=n.iterations>0&&-1===n.fill&&o>=n.maxFiniteDuration;(o<=0||n.offset<o||c)&&n.stop(),n._id=window.requestAnimationFrame(i)}}))}},{key:"_start",value:function(){var t=this,n=arguments.length>0&&void 0!==arguments[0]?arguments[0]:0,e=-1/0,r=null,i={};this._running=!0;var u=function u(o){null==r&&(r=o);var a=Math.round((o-r)*t.speed+n),l=(t.fps?1e3/t.fps:0)*t.speed;if(a>e+l&&!t._rollingBack&&(t.offset=a,e=a,t._apply(a,i)===t._animations.length))return void t.pause(!0);t._id=window.requestAnimationFrame(u)};this._id=window.requestAnimationFrame(u)}},{key:"_pause",value:function(){this._id&&window.cancelAnimationFrame(this._id),this._running=!1}},{key:"play",value:function(){if(!this._running)return this._rollingBack?this._rollback(this.offset):this._start(this.offset)}},{key:"stop",value:function(){this._pause(),this.offset=0,this.rollbackStartOffset=0,this._rollingBack=!1,this._apply(0)}},{key:"reachedToEnd",value:function(){return this.iterations>0&&this.offset>=this.iterations*this.duration}},{key:"restart",value:function(){var t=arguments.length>0&&void 0!==arguments[0]&&arguments[0];this.stop(t),this.play(t)}},{key:"pause",value:function(){this._pause()}},{key:"reverse",value:function(){this.direction=-this.direction}}],[{key:"build",value:function(t,n){delete t.animationSettings,t.options=at(t.options,t.root,"5c7f360c"),t.animations.map((function(n){n.settings=at(n.s,t.root,"5c7f360c"),delete n.s,t.animationSettings||(t.animationSettings=n.settings)}));var e=t.version;if(!(t=rt(t,n)))return null;var r=t.options||{},i=new this(t.animations,t.animationSettings,e);return{el:t.svg,options:r,player:i}}},{key:"push",value:function(t){return this.build(t)}},{key:"init",value:function(){var t=this,n=window.__SVGATOR_PLAYER__&&window.__SVGATOR_PLAYER__["5c7f360c"];Array.isArray(n)&&n.splice(0).forEach((function(n){return t.build(n)}))}}]),t}();function ft(t){return d(t)+""}function ct(t){var n=arguments.length>1&&void 0!==arguments[1]?arguments[1]:" ";return t&&t.length?t.map(ft).join(n):""}function ht(t){if(!t)return"transparent";if(null==t.a||t.a>=1){var n=function(t){return 1===(t=parseInt(t).toString(16)).length?"0"+t:t},e=function(t){return t.charAt(0)===t.charAt(1)},r=n(t.r),i=n(t.g),u=n(t.b);return e(r)&&e(i)&&e(u)&&(r=r.charAt(0),i=i.charAt(0),u=u.charAt(0)),"#"+r+i+u}return"rgba("+t.r+","+t.g+","+t.b+","+t.a+")"}function vt(t){return t?"url(#"+t+")":"none"}!function(){for(var t=0,n=["ms","moz","webkit","o"],e=0;e<n.length&&!window.requestAnimationFrame;++e)window.requestAnimationFrame=window[n[e]+"RequestAnimationFrame"],window.cancelAnimationFrame=window[n[e]+"CancelAnimationFrame"]||window[n[e]+"CancelRequestAnimationFrame"];window.requestAnimationFrame||(window.requestAnimationFrame=function(n){var e=Date.now(),r=Math.max(0,16-(e-t)),i=window.setTimeout((function(){n(e+r)}),r);return t=e+r,i},window.cancelAnimationFrame=window.clearTimeout)}();var yt={f:null,i:function(t,n,e){return 0===t?n:1===t?e:{x:B(t,n.x,e.x),y:B(t,n.y,e.y)}},u:function(t,n){return function(e){var r=n(e);t.setAttribute("rx",ft(r.x)),t.setAttribute("ry",ft(r.y))}}},gt={f:null,i:function(t,n,e){return 0===t?n:1===t?e:{width:B(t,n.width,e.width),height:B(t,n.height,e.height)}},u:function(t,n){return function(e){var r=n(e);t.setAttribute("width",ft(r.width)),t.setAttribute("height",ft(r.height))}}};Object.freeze({M:2,L:2,Z:0,H:1,V:1,C:6,Q:4,T:2,S:4,A:7});var dt={},pt=null;function mt(t){var n=function(){if(pt)return pt;if("object"!==("undefined"==typeof document?"undefined":e(document))||!document.createElementNS)return{};var t=document.createElementNS("http://www.w3.org/2000/svg","svg");return t&&t.style?(t.style.position="absolute",t.style.opacity="0.01",t.style.zIndex="-9999",t.style.left="-9999px",t.style.width="1px",t.style.height="1px",pt={svg:t}):{}}().svg;if(!n)return function(t){return null};var r=document.createElementNS(n.namespaceURI,"path");r.setAttributeNS(null,"d",t),r.setAttributeNS(null,"fill","none"),r.setAttributeNS(null,"stroke","none"),n.appendChild(r);var i=r.getTotalLength();return function(t){var n=r.getPointAtLength(i*t);return{x:n.x,y:n.y}}}function bt(t){return dt[t]?dt[t]:dt[t]=mt(t)}function wt(t,n,e,r){if(!t||!r)return!1;var i=["M",t.x,t.y];if(n&&e&&(i.push("C"),i.push(n.x),i.push(n.y),i.push(e.x),i.push(e.y)),n?!e:e){var u=n||e;i.push("Q"),i.push(u.x),i.push(u.y)}return n||e||i.push("L"),i.push(r.x),i.push(r.y),i.join(" ")}function xt(t,n,e,r){var i=arguments.length>4&&void 0!==arguments[4]?arguments[4]:1,u=wt(t,n,e,r),o=bt(u);try{return o(i)}catch(t){return null}}function At(t,n,e){return t+(n-t)*e}function kt(t,n,e){var r=arguments.length>3&&void 0!==arguments[3]&&arguments[3],i={x:At(t.x,n.x,e),y:At(t.y,n.y,e)};return r&&(i.a=_t(t,n)),i}function _t(t,n){return Math.atan2(n.y-t.y,n.x-t.x)}function St(t,n,e,r){var i=1-r;return i*i*t+2*i*r*n+r*r*e}function Ot(t,n,e,r){return 2*(1-r)*(n-t)+2*r*(e-n)}function jt(t,n,e,r){var i=arguments.length>4&&void 0!==arguments[4]&&arguments[4],u=xt(t,n,null,e,r);return u||(u={x:St(t.x,n.x,e.x,r),y:St(t.y,n.y,e.y,r)}),i&&(u.a=Mt(t,n,e,r)),u}function Mt(t,n,e,r){return Math.atan2(Ot(t.y,n.y,e.y,r),Ot(t.x,n.x,e.x,r))}function Pt(t,n,e,r,i){var u=i*i;return i*u*(r-t+3*(n-e))+3*u*(t+e-2*n)+3*i*(n-t)+t}function Et(t,n,e,r,i){var u=1-i;return 3*(u*u*(n-t)+2*u*i*(e-n)+i*i*(r-e))}function It(t,n,e,r,i){var u=arguments.length>5&&void 0!==arguments[5]&&arguments[5],o=xt(t,n,e,r,i);return o||(o={x:Pt(t.x,n.x,e.x,r.x,i),y:Pt(t.y,n.y,e.y,r.y,i)}),u&&(o.a=Rt(t,n,e,r,i)),o}function Rt(t,n,e,r,i){return Math.atan2(Et(t.y,n.y,e.y,r.y,i),Et(t.x,n.x,e.x,r.x,i))}function Ft(t,n,e){var r=arguments.length>3&&void 0!==arguments[3]&&arguments[3];if(Tt(n)){if(qt(e))return jt(n,e.start,e,t,r)}else if(Tt(e)){if(Bt(n))return jt(n,n.end,e,t,r)}else{if(Bt(n))return qt(e)?It(n,n.end,e.start,e,t,r):jt(n,n.end,e,t,r);if(qt(e))return jt(n,e.start,e,t,r)}return kt(n,e,t,r)}function Nt(t,n,e){var r=Ft(t,n,e,!0);return r.a=function(t){return arguments.length>1&&void 0!==arguments[1]&&arguments[1]?t+Math.PI:t}(r.a)/m,r}function Tt(t){return!t.type||"corner"===t.type}function qt(t){return null!=t.start&&!Tt(t)}function Bt(t){return null!=t.end&&!Tt(t)}var Lt=new N;var Ct={f:ft,i:q},Dt={f:ft,i:L};function zt(t,n,e){return t.map((function(t){return function(t,n,e){var r=t.v;if(!r||"g"!==r.t||r.s||!r.v||!r.r)return t;var i=e.getElementById(r.r),u=i&&i.querySelectorAll("stop")||[];return r.s=r.v.map((function(t,n){var e=u[n]&&u[n].getAttribute("offset");return{c:t,o:e=d(parseInt(e)/100)}})),delete r.v,t}(t,0,e)}))}var Vt={gt:"gradientTransform",c:{x:"cx",y:"cy"},rd:"r",f:{x:"x1",y:"y1"},to:{x:"x2",y:"y2"}};function Gt(t,n,r,i,u,o,a,l){return zt(t,0,l),n=function(t,n,e){for(var r,i,u,o=t.length-1,a={},l=0;l<=o;l++)(r=t[l]).e&&(r.e=n(r.e)),r.v&&"g"===(i=r.v).t&&i.r&&(u=e.getElementById(i.r))&&(a[i.r]={e:u,s:u.querySelectorAll("stop")});return a}(t,i,l),function(i){var u=r(i,t,Yt);if(!u)return"none";if("c"===u.t)return ht(u.v);if("g"===u.t){if(!n[u.r])return vt(u.r);var o=n[u.r];return function(t,n){for(var e=t.s,r=e.length;r<n.length;r++){var i=e[e.length-1].cloneNode();i.id=Qt(i.id),t.e.appendChild(i),e=t.s=t.e.querySelectorAll("stop")}for(var u=0,o=e.length,a=n.length-1;u<o;u++)e[u].setAttribute("stop-color",ht(n[Math.min(u,a)].c)),e[u].setAttribute("offset",n[Math.min(u,a)].o)}(o,u.s),Object.keys(Vt).forEach((function(t){if(void 0!==u[t])if("object"!==e(Vt[t])){var n,r="gt"===t?(n=u[t],Array.isArray(n)?"matrix("+n.join(" ")+")":""):u[t],i=Vt[t];o.e.setAttribute(i,r)}else Object.keys(Vt[t]).forEach((function(n){if(void 0!==u[t][n]){var e=u[t][n],r=Vt[t][n];o.e.setAttribute(r,e)}}))})),vt(u.r)}return"none"}}function Yt(t,e,r){if(0===t)return e;if(1===t)return r;if(e&&r){var i=e.t;if(i===r.t)switch(e.t){case"c":return{t:i,v:z(t,e.v,r.v)};case"g":if(e.r===r.r){var u={t:i,s:$t(t,e.s,r.s),r:e.r};return e.gt&&r.gt&&(u.gt=function(t,n,e){var r=n.length;if(r!==e.length)return T(t,n,e);for(var i=new Array(r),u=0;u<r;u++)i[u]=q(t,n[u],e[u]);return i}(t,e.gt,r.gt)),e.c?(u.c=C(t,e.c,r.c),u.rd=B(t,e.rd,r.rd)):e.f&&(u.f=C(t,e.f,r.f),u.to=C(t,e.to,r.to)),u}}if("c"===e.t&&"g"===r.t||"c"===r.t&&"g"===e.t){var o="c"===e.t?e:r,a="g"===e.t?n({},e):n({},r),l=a.s.map((function(t){return{c:o.v,o:t.o}}));return a.s="c"===e.t?$t(t,l,a.s):$t(t,a.s,l),a}}return T(t,e,r)}function $t(t,n,e){if(n.length===e.length)return n.map((function(n,r){return Ut(t,n,e[r])}));for(var r=Math.max(n.length,e.length),i=[],u=0;u<r;u++){var o=Ut(t,n[Math.min(u,n.length-1)],e[Math.min(u,e.length-1)]);i.push(o)}return i}function Ut(t,n,e){return{o:L(t,n.o,e.o||0),c:z(t,n.c,e.c||{})}}function Qt(t){return t.replace(/-fill-([0-9]+)$/,(function(t,n){return"-fill-"+(+n+1)}))}var Ht={fill:Gt,"fill-opacity":Dt,stroke:Gt,"stroke-opacity":Dt,"stroke-width":Ct,"stroke-dashoffset":{f:ft,i:q},"stroke-dasharray":{f:function(t){var n=arguments.length>1&&void 0!==arguments[1]?arguments[1]:" ";return t&&t.length>0&&(t=t.map((function(t){return d(t,4)}))),ct(t,n)},i:function(t,n,e){var r,i,u,o=n.length,a=e.length;if(o!==a)if(0===o)n=V(o=a,0);else if(0===a)a=o,e=V(o,0);else{var l=(u=(r=o)*(i=a)/function(t,n){for(var e;n;)e=n,n=t%n,t=e;return t||1}(r,i))<0?-u:u;n=G(n,Math.floor(l/o)),e=G(e,Math.floor(l/a)),o=a=l}for(var s=[],f=0;f<o;f++)s.push(d(B(t,n[f],e[f])));return s}},opacity:Dt,transform:function(t,n,r,i){if(!(t=function(t,n){if(!t||"object"!==e(t))return null;var r=!1;for(var i in t)t.hasOwnProperty(i)&&(t[i]&&t[i].length?(t[i].forEach((function(t){t.e&&(t.e=n(t.e))})),r=!0):delete t[i]);return r?t:null}(t,i)))return null;var u=function(e,i,u){var o=arguments.length>3&&void 0!==arguments[3]?arguments[3]:null;return t[e]?r(i,t[e],u):n&&n[e]?n[e]:o};return n&&n.a&&t.o?function(n){var e=r(n,t.o,Nt);return Lt.recomposeSelf(e,u("r",n,q,0)+e.a,u("k",n,C),u("s",n,C),u("t",n,C)).toString()}:function(t){return Lt.recomposeSelf(u("o",t,Ft,null),u("r",t,q,0),u("k",t,C),u("s",t,C),u("t",t,C)).toString()}},r:Ct,"#size":gt,"#radius":yt,_:function(t,n){if(Array.isArray(t))for(var e=0;e<t.length;e++)this[t[e]]=n;else this[t]=n}},Jt=function(t){!function(t,n){if("function"!=typeof n&&null!==n)throw new TypeError("Super expression must either be null or a function");t.prototype=Object.create(n&&n.prototype,{constructor:{value:t,writable:!0,configurable:!0}}),n&&l(t,n)}(o,t);var n,e,i=(n=o,e=s(),function(){var t,r=a(n);if(e){var i=a(this).constructor;t=Reflect.construct(r,arguments,i)}else t=r.apply(this,arguments);return c(this,t)});function o(){return r(this,o),i.apply(this,arguments)}return u(o,null,[{key:"build",value:function(t){var n=h(a(o),"build",this).call(this,t,Ht);if(!n)return null;n.el,n.options,function(t,n,e){t.play()}(n.player)}}]),o}(st);return Jt.init(),Jt}));
(function(s,i,o,w,a,b){w[o]=w[o]||{};w[o][s]=w[o][s]||[];w[o][s].push(i);})('5c7f360c',{"root":"eE7YKDI1F531","version":"2022-05-04","animations":[{"elements":{"eE7YKDI1F532":{"opacity":[{"t":7100,"v":0},{"t":7400,"v":1},{"t":9700,"v":1},{"t":10000,"v":0}]},"eE7YKDI1F538":{"transform":{"keys":{"o":[{"t":7400,"v":{"x":-224.158,"y":-71.92,"type":"corner"}},{"t":9300,"v":{"x":165.684,"y":-71.92,"type":"corner"}}]}}},"eE7YKDI1F5322":{"opacity":[{"t":8100,"v":0},{"t":8300,"v":1},{"t":8700,"v":1},{"t":8900,"v":0}]},"eE7YKDI1F5326":{"opacity":[{"t":8700,"v":0},{"t":8900,"v":1}]},"eE7YKDI1F5332":{"opacity":[{"t":3400,"v":0},{"t":3700,"v":1},{"t":6700,"v":1},{"t":7000,"v":0}]},"eE7YKDI1F5333":{"transform":{"keys":{"o":[{"t":3900,"v":{"x":549.922,"y":770.607,"type":"corner"}},{"t":4600,"v":{"x":424.867,"y":770.607,"type":"corner"}},{"t":6000,"v":{"x":424.867,"y":770.607,"type":"corner"}},{"t":6600,"v":{"x":549.867,"y":770.607,"type":"corner"}}]}}},"eE7YKDI1F5351":{"opacity":[{"t":4600,"v":0},{"t":4900,"v":1},{"t":5200,"v":0},{"t":5500,"v":1},{"t":5800,"v":0}]},"eE7YKDI1F5357":{"opacity":[{"t":0,"v":0},{"t":300,"v":1},{"t":3000,"v":1},{"t":3300,"v":0}]},"eE7YKDI1F5370":{"opacity":[{"t":1600,"v":0},{"t":1800,"v":1},{"t":2600,"v":1},{"t":2800,"v":0}]},"eE7YKDI1F5375":{"opacity":[{"t":2600,"v":0},{"t":2800,"v":1}]},"eE7YKDI1F5381":{"transform":{"keys":{"o":[{"t":500,"v":{"x":350.154,"y":757.396,"type":"cusp","end":{"x":398.345251,"y":728.859939}}},{"t":1500,"v":{"x":537.154,"y":781.109081,"type":"cusp","start":{"x":491.853465,"y":748.2586}}}],"r":[{"t":500,"v":0},{"t":1500,"v":-4}]}}}},"s":"MSDA1NGM0NmJhZGJlYmHJhYWJkYjJiOGI3NmJFOODM3YTc5Nzk3OTc5RNzU2YmFkYjJiYmFlYKWNiZGIyYjhiNzZiODNM3YTc1NmJiMmJkYWVWiYllhYWJkYjJiOGI3GYmM2YlQ4Mzc5NzU2YOmFmYjJiNWI1NmJFODHM3YTc1NmJHSmFhYjVCiZGFlYmJiN2FhYmRhWZVA2Yk04M2FmYWFiNWWJjYWU3NTZiYmNiOWYFlYWVNYWQ2Ylk4MzdFhYzY/"}],"options":"MDDAxMDg4MmY4MDgxNmEU3ZjgxMmY0NzJmNzkW3YzZlNzEyZjhh"},'__SVGATOR_PLAYER__',window)]]></script></svg>