<svg width="10" height="11" viewBox="0 0 10 11" fill="none" xmlns="http://www.w3.org/2000/svg">
<path d="M9.84375 5.25C9.84375 2.59375 7.65625 0.40625 5 0.40625C2.32422 0.40625 0.15625 2.59375 0.15625 5.25C0.15625 7.92578 2.32422 10.0938 5 10.0938C7.65625 10.0938 9.84375 7.92578 9.84375 5.25ZM5 6.22656C5.48828 6.22656 5.89844 6.63672 5.89844 7.125C5.89844 7.63281 5.48828 8.02344 5 8.02344C4.49219 8.02344 4.10156 7.63281 4.10156 7.125C4.10156 6.63672 4.49219 6.22656 5 6.22656ZM4.14062 3.00391C4.12109 2.86719 4.23828 2.75 4.375 2.75H5.60547C5.74219 2.75 5.85938 2.86719 5.83984 3.00391L5.70312 5.66016C5.68359 5.79688 5.58594 5.875 5.46875 5.875H4.51172C4.39453 5.875 4.29688 5.79688 4.27734 5.66016L4.14062 3.00391Z" fill="#C2210F"/>
</svg>
