<svg width="70" height="70" viewBox="0 0 70 70" fill="none" xmlns="http://www.w3.org/2000/svg">
<path d="M63.7129 54.5L38.6125 11.275C37.7781 9.83434 36.3375 9 34.6693 9C33.0012 9 31.56 9.83434 30.7262 11.275L5.62576 54.5C4.79142 55.9407 4.79142 57.6093 5.62576 59.05C6.4601 60.4907 7.90076 61.325 9.56892 61.325H59.6943C61.3625 61.325 62.8037 60.4907 63.6375 59.05C64.4718 57.6093 64.5475 55.9407 63.7131 54.5H63.7129ZM61.1347 57.5332C60.9829 57.7607 60.6041 58.2913 59.8454 58.2913L9.64458 58.2918C8.88642 58.2918 8.43142 57.7612 8.35524 57.5337C8.2034 57.3062 7.9759 56.6993 8.35524 56.0168L33.4556 12.7918C33.835 12.1093 34.5175 12.0337 34.745 12.0337C34.9725 12.0337 35.655 12.1093 36.0343 12.7918L61.1347 56.0168C61.5141 56.6993 61.2866 57.3057 61.1347 57.5331V57.5332Z" fill="#FA8A07"/>
<path d="M34.7449 23.7871C33.9105 23.7871 33.228 24.4696 33.228 25.3039V42.746C33.228 43.5804 33.9105 44.2629 34.7449 44.2629C35.5792 44.2629 36.2617 43.5804 36.2617 42.746V25.3039C36.2617 24.4696 35.5792 23.7871 34.7449 23.7871Z" fill="#FA8A07"/>
<path d="M36.262 49.7605C36.262 50.5984 35.5825 51.2773 34.7451 51.2773C33.9077 51.2773 33.2283 50.5984 33.2283 49.7605C33.2283 48.9231 33.9077 48.2441 34.7451 48.2441C35.5825 48.2441 36.262 48.9231 36.262 49.7605Z" fill="#FA8A07"/>
</svg>
