<svg width="12" height="12" viewBox="0 0 12 12" fill="none" xmlns="http://www.w3.org/2000/svg">
<path d="M1.84615 7.84653H0.923077C0.413365 7.84653 0 8.25989 0 8.76961V10.6158C0 11.1255 0.413365 11.5388 0.923077 11.5388H1.84615C2.35587 11.5388 2.76923 11.1255 2.76923 10.6158V8.76961C2.76923 8.25989 2.35587 7.84653 1.84615 7.84653ZM6.46154 4.15422H5.53846C5.02875 4.15422 4.61538 4.56759 4.61538 5.0773V10.6158C4.61538 11.1255 5.02875 11.5388 5.53846 11.5388H6.46154C6.97125 11.5388 7.38462 11.1255 7.38462 10.6158V5.0773C7.38462 4.56759 6.97125 4.15422 6.46154 4.15422ZM11.0769 0.461914H10.1538C9.64413 0.461914 9.23077 0.875279 9.23077 1.38499V10.6158C9.23077 11.1255 9.64413 11.5388 10.1538 11.5388H11.0769C11.5866 11.5388 12 11.1255 12 10.6158V1.38499C12 0.875279 11.5866 0.461914 11.0769 0.461914Z" fill="#F4C15F"/>
</svg>
