<svg width="14" height="16" viewBox="0 0 14 16" fill="none" xmlns="http://www.w3.org/2000/svg">
<path d="M4.77344 8.9375H3.60156C3.4082 8.9375 3.25 8.7793 3.25 8.58594V7.41406C3.25 7.2207 3.4082 7.0625 3.60156 7.0625H4.77344C4.9668 7.0625 5.125 7.2207 5.125 7.41406V8.58594C5.125 8.7793 4.9668 8.9375 4.77344 8.9375ZM7.9375 8.58594V7.41406C7.9375 7.2207 7.7793 7.0625 7.58594 7.0625H6.41406C6.2207 7.0625 6.0625 7.2207 6.0625 7.41406V8.58594C6.0625 8.7793 6.2207 8.9375 6.41406 8.9375H7.58594C7.7793 8.9375 7.9375 8.7793 7.9375 8.58594ZM10.75 8.58594V7.41406C10.75 7.2207 10.5918 7.0625 10.3984 7.0625H9.22656C9.0332 7.0625 8.875 7.2207 8.875 7.41406V8.58594C8.875 8.7793 9.0332 8.9375 9.22656 8.9375H10.3984C10.5918 8.9375 10.75 8.7793 10.75 8.58594ZM7.9375 11.3984V10.2266C7.9375 10.0332 7.7793 9.875 7.58594 9.875H6.41406C6.2207 9.875 6.0625 10.0332 6.0625 10.2266V11.3984C6.0625 11.5918 6.2207 11.75 6.41406 11.75H7.58594C7.7793 11.75 7.9375 11.5918 7.9375 11.3984ZM5.125 11.3984V10.2266C5.125 10.0332 4.9668 9.875 4.77344 9.875H3.60156C3.4082 9.875 3.25 10.0332 3.25 10.2266V11.3984C3.25 11.5918 3.4082 11.75 3.60156 11.75H4.77344C4.9668 11.75 5.125 11.5918 5.125 11.3984ZM10.75 11.3984V10.2266C10.75 10.0332 10.5918 9.875 10.3984 9.875H9.22656C9.0332 9.875 8.875 10.0332 8.875 10.2266V11.3984C8.875 11.5918 9.0332 11.75 9.22656 11.75H10.3984C10.5918 11.75 10.75 11.5918 10.75 11.3984ZM13.5625 3.78125V14.0938C13.5625 14.8701 12.9326 15.5 12.1562 15.5H1.84375C1.06738 15.5 0.4375 14.8701 0.4375 14.0938V3.78125C0.4375 3.00488 1.06738 2.375 1.84375 2.375H3.25V0.851562C3.25 0.658203 3.4082 0.5 3.60156 0.5H4.77344C4.9668 0.5 5.125 0.658203 5.125 0.851562V2.375H8.875V0.851562C8.875 0.658203 9.0332 0.5 9.22656 0.5H10.3984C10.5918 0.5 10.75 0.658203 10.75 0.851562V2.375H12.1562C12.9326 2.375 13.5625 3.00488 13.5625 3.78125ZM12.1562 13.918V5.1875H1.84375V13.918C1.84375 14.0146 1.92285 14.0938 2.01953 14.0938H11.9805C12.0771 14.0938 12.1562 14.0146 12.1562 13.918Z" fill="#272431"/>
</svg>
