<svg width="80" height="80" viewBox="0 0 80 80" fill="none" xmlns="http://www.w3.org/2000/svg">
<path d="M40 10C23.4548 10 10 23.4548 10 40C10 56.5452 23.4548 70 40 70C56.5452 70 70 56.5452 70 40C70 23.4548 56.5452 10 40 10ZM40 14.0002C54.3833 14.0002 66 25.6171 66 40.0002C66 54.3833 54.3831 66.0002 40 66.0002C25.6169 66.0002 14 54.3833 14 40.0002C14 25.6171 25.6169 14.0002 40 14.0002ZM54.1048 27.9788C53.5821 27.9997 53.0887 28.2239 52.7296 28.6038L35.9999 45.7919L28.9375 38.5212C28.5683 38.1371 28.0605 37.9157 27.5275 37.9069C26.9946 37.8976 26.4798 38.1013 26.0975 38.4728C25.7148 38.8439 25.4962 39.3527 25.4897 39.8856C25.4832 40.4185 25.6892 40.9323 26.0626 41.3127L34.5624 50.0627C34.9395 50.4524 35.458 50.6724 35.9998 50.6724C36.542 50.6724 37.0605 50.4524 37.4376 50.0627L55.6043 31.396C55.9884 31.0142 56.2014 30.493 56.1944 29.9512C56.187 29.4099 55.961 28.8941 55.5671 28.5226C55.1732 28.151 54.6456 27.9546 54.1048 27.9788Z" fill="#2FAC10"/>
</svg>
