<svg width="60" height="60" viewBox="0 0 60 60" fill="none" xmlns="http://www.w3.org/2000/svg">
<path d="M35.625 5.625C35.625 8.73164 33.1066 11.25 30 11.25C26.8934 11.25 24.375 8.73164 24.375 5.625C24.375 2.51836 26.8934 0 30 0C33.1066 0 35.625 2.51836 35.625 5.625ZM30 48.75C26.8934 48.75 24.375 51.2684 24.375 54.375C24.375 57.4816 26.8934 60 30 60C33.1066 60 35.625 57.4816 35.625 54.375C35.625 51.2684 33.1066 48.75 30 48.75ZM54.375 24.375C51.2684 24.375 48.75 26.8934 48.75 30C48.75 33.1066 51.2684 35.625 54.375 35.625C57.4816 35.625 60 33.1066 60 30C60 26.8934 57.4816 24.375 54.375 24.375ZM11.25 30C11.25 26.8934 8.73164 24.375 5.625 24.375C2.51836 24.375 0 26.8934 0 30C0 33.1066 2.51836 35.625 5.625 35.625C8.73164 35.625 11.25 33.1066 11.25 30ZM12.7643 41.6107C9.65766 41.6107 7.1393 44.1291 7.1393 47.2357C7.1393 50.3423 9.65766 52.8607 12.7643 52.8607C15.8709 52.8607 18.3893 50.3423 18.3893 47.2357C18.3893 44.1292 15.8708 41.6107 12.7643 41.6107ZM47.2357 41.6107C44.1291 41.6107 41.6107 44.1291 41.6107 47.2357C41.6107 50.3423 44.1291 52.8607 47.2357 52.8607C50.3423 52.8607 52.8607 50.3423 52.8607 47.2357C52.8607 44.1292 50.3423 41.6107 47.2357 41.6107ZM12.7643 7.1393C9.65766 7.1393 7.1393 9.65766 7.1393 12.7643C7.1393 15.8709 9.65766 18.3893 12.7643 18.3893C15.8709 18.3893 18.3893 15.8709 18.3893 12.7643C18.3893 9.65766 15.8708 7.1393 12.7643 7.1393Z" fill="#272431"/>
</svg>
