<svg width="80" height="80" viewBox="0 0 80 80" fill="none" xmlns="http://www.w3.org/2000/svg">
<path d="M59.2874 34.1814C59.5606 34.1907 59.8348 34.18 60.1066 34.1492C61.2905 33.0675 61.2776 29.7907 60.1066 28.709V28.7094C59.7999 28.688 59.4919 28.688 59.1852 28.7094C58.9209 28.6902 58.6557 28.6902 58.3915 28.7094C57.1945 29.7911 57.1884 33.0679 58.3915 34.1497V34.1492C58.6892 34.1796 58.9883 34.1903 59.2874 34.1814Z" fill="black"/>
<path d="M59.2874 24.5936C59.5606 24.6025 59.8348 24.5918 60.1066 24.5614C61.2905 23.4797 61.2776 20.2029 60.1066 19.1212C59.7999 19.1002 59.4919 19.1002 59.1852 19.1212C58.9209 19.1025 58.6557 19.1025 58.3915 19.1212C57.1945 20.2029 57.1884 23.4797 58.3915 24.5614C58.6892 24.5918 58.9883 24.6025 59.2874 24.5936Z" fill="black"/>
<path d="M59.2874 43.7742C59.5606 43.7832 59.8348 43.7725 60.1066 43.7421C61.2905 42.6542 61.2776 39.3836 60.1066 38.3019C59.7999 38.2809 59.4919 38.2809 59.1852 38.3019C58.9209 38.2831 58.6557 38.2831 58.3915 38.3019C57.1945 39.3836 57.1884 42.6604 58.3915 43.7421C58.6892 43.7725 58.9883 43.7832 59.2874 43.7742Z" fill="black"/>
<path d="M12.292 66.2008C12.7335 66.2646 13.0983 66.2008 13.1434 66.0535C14.5447 61.4647 16.4965 52.082 18.0965 42.6489L18.4166 40.9079C18.509 40.411 18.6376 39.9208 18.8005 39.4423C19.1295 38.4963 19.5952 37.6034 20.1832 36.7927C20.7555 36.0016 21.4363 35.295 22.2054 34.6936C22.5903 34.3994 22.992 34.128 23.4085 33.8806L24.746 33.0869L24.7465 33.0873C27.5804 31.4244 30.5603 30.0234 33.6487 28.9016C33.6487 28.9016 33.7001 28.857 33.7193 28.8186C33.8215 33.1387 33.9434 36.94 34.084 40.0441C33.4586 39.8713 32.8028 39.8405 32.1639 39.9543C31.6023 40.0356 31.0898 40.3204 30.7237 40.7543C30.7522 41.0642 30.8103 41.3708 30.8964 41.6695C31.0116 42.0856 31.1138 42.4119 31.133 42.4249H31.1335C31.383 42.6718 31.6701 42.8767 31.9848 43.0329C32.3545 43.2115 32.7402 43.3552 33.1366 43.4615C33.5692 43.5851 34.0129 43.6642 34.4616 43.6985L34.1223 44.2874C33.2214 45.874 32.0572 47.2958 30.679 48.4918C30.5192 48.6325 30.6214 49.0744 30.9094 49.4775C31.1973 49.8807 31.5112 50.028 31.7031 49.9191C33.5085 48.8342 35.0621 47.3771 36.2598 45.6441C37.5781 43.7691 39.0437 41.6312 40.5991 39.3146L41.7701 37.574V37.5736C42.1804 36.9932 42.7964 36.5901 43.4924 36.4463C44.1888 36.3026 44.9139 36.4285 45.5205 36.7995C46.1383 37.1852 46.5759 37.8026 46.7348 38.5138C46.8937 39.2245 46.7607 39.9695 46.3656 40.5816L45.0857 42.6107L42.5768 46.6683C41.166 48.8933 40.3714 51.4531 40.2728 54.0856V55.3655V56.3445V56.345C40.2246 57.6048 39.9763 58.8494 39.5366 60.0312C38.7442 62.1955 37.3687 64.0981 35.5621 65.5289C35.1652 65.8552 34.6532 66.2199 34.2246 66.6039C33.8059 66.9713 33.4103 67.3646 33.0407 67.7816C32.4046 68.4981 31.8506 69.2839 31.3894 70.124C31.2742 70.3351 31.5367 70.7066 31.9528 70.9494C32.3689 71.1927 32.6952 71.2182 32.8167 71.0776C33.3434 70.4365 33.9233 69.841 34.551 69.2986C34.9171 68.9879 35.2993 68.6972 35.6965 68.428C36.0934 68.1464 36.5157 67.916 37.0469 67.5642C39.4345 66.0134 41.3041 63.7848 42.4165 61.1642C42.4165 61.0937 42.4679 61.0169 42.4996 60.9468L42.7938 61.3566L42.9536 61.574C43.0112 61.6508 43.1134 61.7597 43.1969 61.849H43.1973C43.5741 62.2463 44.0183 62.5736 44.5093 62.8151C45.6384 63.3651 46.9365 63.4566 48.1316 63.0713C49.4307 62.6557 50.5066 61.7325 51.1143 60.5111C51.241 60.2504 51.3442 59.9781 51.4214 59.6986C52.1379 59.9049 52.8946 59.929 53.6232 59.7687C54.4969 59.5718 55.296 59.1281 55.9259 58.4905C56.5553 57.853 56.9888 57.0486 57.175 56.1722C57.3469 55.3669 57.2937 54.5298 57.0214 53.753C56.9598 53.591 56.8893 53.4329 56.8103 53.2794L56.6245 52.9593L56.5094 52.7736L61.6932 52.8888H63.6195C64.6195 52.8289 65.5615 52.3981 66.261 51.6812C66.9601 50.9638 67.3673 50.0116 67.4021 49.0107L67.4342 47.0268L67.607 30.3868L67.6516 21.5739V17.094V14.3226V13.6315C67.6066 12.9989 67.4208 12.3847 67.1075 11.8333C66.4771 10.7186 65.3852 9.94054 64.1253 9.70831C63.9681 9.68644 63.8101 9.67349 63.6516 9.66992H48.2848L39.7536 9.74046H37.3344C37.1951 9.74537 37.0558 9.76055 36.9187 9.7851C36.6428 9.82573 36.3723 9.89671 36.112 9.99627C35.3411 10.286 34.6736 10.7985 34.1951 11.4686C33.7161 12.1387 33.4478 12.9365 33.4241 13.7597V15.795C33.4817 20.083 33.5585 24.1151 33.6415 27.7893C33.5393 27.4246 33.3728 27.1491 33.2317 27.1813C30.7486 27.3987 27.1259 28.4611 23.267 30.3366C22.7849 30.5714 22.2965 30.8165 21.8014 31.0727L21.8019 31.0723C21.2675 31.3727 20.7523 31.7062 20.2595 32.0705C18.0761 33.6058 16.4143 35.7719 15.4979 38.2785C15.2657 38.9249 15.084 39.5883 14.9537 40.2624L14.6336 42.0544C12.9952 51.4816 11.651 60.9664 11.4336 65.7344C11.3765 65.9268 11.805 66.1313 12.2916 66.2018L12.292 66.2008ZM47.94 58.9495C47.7347 59.3544 47.3981 59.6772 46.9856 59.8655C46.5726 60.0539 46.1083 60.0963 45.6682 59.9865C45.4441 59.9365 45.2284 59.8548 45.028 59.7432C44.9767 59.7111 44.9383 59.6986 44.8744 59.6472L44.657 59.4999L44.2472 59.199C43.8762 58.9365 43.5432 58.7191 43.2231 58.5588L43.2235 58.5593C43.374 57.8892 43.4767 57.2089 43.5307 56.524C43.5753 56.1079 43.5628 55.6918 43.5753 55.2441C43.5883 54.7959 43.5753 54.6039 43.5753 54.2392C43.6204 53.5928 43.7169 52.9508 43.8633 52.3191L45.7834 52.4088C46.1209 53.5298 46.549 54.6213 47.0633 55.6727L47.6137 56.7861L47.761 57.074C47.8124 57.1763 47.8633 57.2722 47.8762 57.3106V57.3111C47.9271 57.4151 47.9655 57.5249 47.9914 57.6379C48.1289 58.0673 48.111 58.5321 47.9401 58.9495L47.94 58.9495ZM53.4119 55.9991V55.9995C53.0137 56.4013 52.474 56.6308 51.9079 56.6393C51.7084 56.6455 51.5088 56.6285 51.3128 56.5879V56.5366V56.537C51.203 56.2348 51.0615 55.9451 50.8905 55.6727C50.8008 55.5254 50.7432 55.4361 50.6856 55.3527L50.4874 55.1098L49.7771 54.0919C49.361 53.516 48.9517 52.9977 48.5673 52.5303C50.1994 52.5879 51.9655 52.6455 53.8472 52.6969V53.2027C53.8472 53.3817 53.8918 53.6509 53.9302 53.8875L53.9878 54.2522H53.9882C53.9945 54.3353 53.9945 54.4187 53.9882 54.5018C53.9923 55.0576 53.7865 55.5946 53.4119 56.0058L53.4119 55.9991ZM48.2918 13.0871L57.1047 13.1255H63.415L63.4154 13.1259C63.4449 13.1237 63.4753 13.1237 63.5047 13.1259C63.7373 13.1715 63.9382 13.3166 64.0552 13.5224C64.1154 13.6237 64.1503 13.738 64.1579 13.8554V14.2844V17.0875V21.5674L64.2025 30.3803L64.3753 47.0203V48.9404V48.94C64.3806 49.2096 64.282 49.4708 64.1003 49.6694C63.9172 49.8712 63.6668 49.9984 63.3962 50.0279H61.6681L54.8266 50.1815C50.8204 50.2837 47.3194 50.4056 44.4458 50.5462C44.7369 49.815 45.0994 49.1141 45.5271 48.4534L48.0869 44.4087L49.3667 42.3797H49.3672C49.9542 41.4391 50.2788 40.3587 50.3078 39.2502C50.3337 38.1569 50.0672 37.0762 49.5364 36.1203C49.0051 35.164 48.2288 34.3667 47.2873 33.8104C46.514 33.3613 45.6502 33.0904 44.7591 33.0167C45.6297 28.2359 45.6489 17.9127 44.8038 13.0293L48.2918 13.0871ZM36.5421 15.8393V13.9192C36.5622 13.529 36.8144 13.1884 37.1818 13.0554C37.2416 13.0335 37.3041 13.0205 37.3675 13.017H42.4747C41.6171 17.9575 41.6426 28.4981 42.5453 33.2021C42.0872 33.3226 41.6462 33.5012 41.2333 33.7334C40.3534 34.2173 39.6096 34.9151 39.0698 35.7619L38.0011 37.6436C37.2841 38.8405 36.5993 39.9989 35.9529 41.1061L35.889 41.0423C36.1774 35.0772 36.3948 26.2 36.5421 15.8389L36.5421 15.8393Z" fill="black"/>
</svg>
