<svg width="81" height="81" viewBox="0 0 81 81" fill="none" xmlns="http://www.w3.org/2000/svg">
<path d="M0.834884 22.1942L0.834881 22.1937L0.833871 21.7682C0.825338 18.1742 0.816798 14.5774 0.800002 10.9063L0.799998 10.9054L0.8 5.18933V4.43695V4.43397L0.800022 4.43397C0.806435 4.00319 0.876326 3.5769 1.00726 3.17479C1.20106 2.57105 1.52372 2.03647 1.94624 1.62636L1.94637 1.62623C2.3696 1.2162 2.87859 0.94497 3.42315 0.846059L0.834884 22.1942ZM0.834884 22.1942L0.887568 33.0922L0.887569 33.0924M0.834884 22.1942L0.887569 33.0924M0.887569 33.0924L0.918197 38.359M0.887569 33.0924L0.918197 38.3596M3.59682 11.7592L3.59682 11.7595L3.57081 22.1937L3.57081 22.1943L3.51384 33.0923L3.51384 33.0924L3.48321 38.359V38.3596V42.511V42.5219L3.48291 42.5219C3.48116 42.5537 3.48116 42.5859 3.48291 42.6177L3.48331 42.6251L3.48317 42.6325C3.4818 42.7034 3.49282 42.7731 3.51471 42.8368C3.55861 42.9485 3.62574 43.0358 3.70312 43.0928C3.73954 43.1158 3.77698 43.134 3.81503 43.1477C3.89298 43.1563 3.97078 43.1558 4.04784 43.1458L4.06061 43.1441H4.07349H6.08043H6.08317L9.96933 43.1974L9.97015 43.1974L17.1718 43.3255L17.1722 43.3255C21.6944 43.4159 25.6201 43.528 28.7564 43.6508C29.2299 43.6523 29.5857 44.0604 29.6529 44.544L29.6543 44.5542L29.654 44.5542C29.6998 45.0814 29.2695 45.5377 28.7213 45.5399C25.5844 45.6624 21.6546 45.7692 17.1372 45.8653L17.1365 45.8653L9.93492 45.9934L9.93411 45.9934L6.04795 46.0466L6.04521 46.0466L4.04227 46.0466C3.7906 46.0566 3.53855 46.0354 3.2907 45.984L3.28327 45.9825L3.28331 45.9823C2.99136 45.9102 2.7111 45.7875 2.45034 45.6199L2.44837 45.6186C1.92111 45.2708 1.49899 44.7408 1.23247 44.1044M3.59682 11.7592L1.15771 43.0608L0.959361 43.0865C0.959401 43.0868 0.959441 43.0871 0.959482 43.0874C1.00526 43.441 1.09741 43.7843 1.23247 44.1044M3.59682 11.7592V11.7592M3.59682 11.7592V11.7592M1.23247 44.1044C1.23244 44.1044 1.2324 44.1043 1.23237 44.1042L1.41685 44.0269L1.23258 44.1047C1.23255 44.1046 1.23251 44.1045 1.23247 44.1044ZM0.918197 38.3596L0.9182 38.3601L1.1182 38.359H0.918197M0.918197 38.3596V38.359M0.918197 38.3596V38.359M3.59682 11.7592L3.59682 11.759V11.759L3.59682 11.7584L3.59682 11.7558L3.59683 11.7458L3.59688 11.7064L3.59707 11.5553L3.59777 11.0014L3.60011 9.19087C3.60194 7.79495 3.60414 6.16283 3.60567 5.20537H3.60599V4.51239C3.6065 4.46461 3.61475 4.4179 3.62987 4.37494L3.62989 4.37495L3.63092 4.37189C3.66122 4.28113 3.71331 4.21239 3.77191 4.17058C3.79481 4.1562 3.8178 4.14634 3.84054 4.14037L5.40859 4.14037L5.40916 4.14036L24.1111 4.08713L24.1118 4.08713L33.0919 4.02831L33.0923 4.0283L37.4248 3.99108H37.4257H40.505C40.5816 3.997 40.6602 4.03085 40.7298 4.09636C40.8031 4.16625 40.8619 4.26599 40.8933 4.38516C40.9089 4.44707 40.9172 4.51118 40.9179 4.57614V4.59462V4.59669V7.65499H40.9613L41.0935 21.1119L41.0936 21.1127C41.1683 26.6037 41.2559 31.3799 41.3612 35.192C41.3618 35.4941 41.4486 35.7745 41.5939 35.9803C41.7375 36.1838 41.9615 36.3406 42.2285 36.3112L42.245 36.3094L42.261 36.3049C42.7195 36.1755 42.9939 35.6851 42.9692 35.1865C43.0702 31.376 43.1577 26.6067 43.2367 21.1128L43.2367 21.1124L43.3421 12.3597L43.3421 12.3591L43.3859 7.63594V7.63409V5.19498V5.19489L43.3862 4.5825C43.3862 4.58217 43.3862 4.58183 43.3862 4.5815C43.3887 4.24028 43.3515 3.8997 43.2758 3.57044L43.2757 3.57016C43.1152 2.87722 42.7819 2.25574 42.3156 1.79319M3.59682 11.7592L42.3156 1.79319M42.3156 1.79319C42.3156 1.79321 42.3157 1.79323 42.3157 1.79325L42.1748 1.93514L42.3156 1.79319ZM37.4249 0.992098L33.0931 0.954886L33.0907 1.15487M37.4249 0.992098L3.42332 0.84603C3.42329 0.846035 3.42326 0.84604 3.42324 0.846044C3.5923 0.815209 3.76265 0.8 3.93321 0.8H5.40867H5.40912L24.111 0.842813L24.1131 0.842818V0.842828L33.0924 0.954878L33.0907 1.15487M37.4249 0.992098V1.1921M37.4249 0.992098V1.1921M33.0907 1.15487L37.4249 1.1921M33.0907 1.15487L24.1106 1.04281L5.40867 1L37.4249 1.1921M37.4249 1.1921H40.6392C41.2016 1.24199 41.738 1.50146 42.1748 1.93517C42.6116 2.36852 42.928 2.95523 43.0808 3.61528L37.4257 0.992098L37.4266 0.992105L37.4249 1.1921ZM3.59682 5.20195V5.20537V5.20545V5.20195ZM3.59682 5.20195L3.60568 5.2018C3.60569 5.19773 3.60569 5.19368 3.6057 5.18964L3.59682 5.18963M3.59682 5.20195V5.18963M3.59682 5.18963V5.1859V5.18582V5.18963ZM41.1179 3.23631L41.1249 3.94559C41.1226 3.94231 41.1203 3.93905 41.1179 3.9358V3.23631ZM40.9179 4.00462C40.9205 4.00763 40.923 4.01066 40.9256 4.01371L40.9179 4.37806V4.00462ZM43.0367 21.1099L43.1421 12.3572L43.1859 7.63409V5.19489L43.0367 21.1099Z" fill="#272431" stroke="black" stroke-width="0.4"/>
<mask id="path-2-outside-1_814_9801" maskUnits="userSpaceOnUse" x="10.9941" y="7.26797" width="70.953" height="74.577" fill="black">
<rect fill="white" x="10.9941" y="7.26797" width="70.953" height="74.577"/>
<path d="M64.505 31.9809C62.9188 31.9106 61.3818 32.5475 60.2953 33.7258C60.1738 33.6172 60.0583 33.506 59.9284 33.4092C58.998 32.7007 57.8762 32.2996 56.7151 32.26C56.1003 32.237 55.4867 32.3244 54.9018 32.5179C54.3126 32.711 53.7587 33.0027 53.2634 33.3807C53.0113 33.5689 52.7756 33.7783 52.5585 34.0071C52.3219 33.8023 52.0698 33.6166 51.8047 33.4519C50.636 32.7151 49.2438 32.4382 47.8885 32.6734C46.6082 32.9116 45.4445 33.5825 44.5854 34.5777L39.5613 25.2293L38.933 23.9931C38.8669 23.8632 38.7405 23.6145 38.6069 23.4527L38.6067 23.4533C38.1122 22.716 37.4619 22.1006 36.704 21.6516C35.921 21.1824 35.038 20.9117 34.1306 20.8629C33.2242 20.808 32.3187 20.9831 31.4959 21.3736C30.2574 21.9479 29.2655 22.9587 28.7029 24.2196C28.1407 25.4805 28.0453 26.9059 28.4352 28.2327C28.5484 28.6181 28.6947 28.9928 28.8718 29.3524L29.2926 30.1802L41.1566 55.0709C40.827 55.038 40.5045 54.9553 40.1994 54.8252L37.9067 53.3716L36.7116 52.6143C36.5347 52.4978 36.2546 52.3378 36.0215 52.2279C35.789 52.1182 35.5062 51.967 35.256 51.8812L35.2565 51.881C33.1623 51.0083 30.8188 50.9892 28.7112 51.8272C28.2041 52.0342 27.7178 52.2903 27.2589 52.5921L26.9166 52.8173C26.7709 52.9207 26.6312 53.0319 26.4973 53.1506C25.789 53.7976 25.3509 54.6961 25.2731 55.661C25.1952 56.6265 25.4839 57.5856 26.079 58.341C26.3071 58.6261 26.5738 58.8768 26.8703 59.0861L27.3988 59.4599L28.4532 60.2013L30.511 61.5543L38.3141 66.9951L41.8841 69.4403C43.1864 70.3581 44.7257 70.8668 46.3097 70.9027L46.362 70.8751L46.4411 70.8711L50.995 70.3543L51.0416 70.3297L51.0412 70.33C51.6135 70.2372 52.2001 70.3006 52.7403 70.5144C52.9994 70.6038 53.2468 70.7256 53.4765 70.8765C53.7146 71.0356 53.9377 71.2167 54.1422 71.418C54.323 71.614 54.5745 71.7257 54.8388 71.7283C55.1027 71.731 55.3563 71.6236 55.5409 71.4307C55.8229 71.0113 55.7548 70.4438 55.3823 70.1051C55.1237 69.8187 54.84 69.5566 54.5352 69.3218C54.1926 69.0662 53.8203 68.8544 53.4267 68.6914C52.5815 68.3454 51.6622 68.2298 50.76 68.3567L50.8297 68.32L46.3544 68.5853C45.2409 68.4998 44.1764 68.0863 43.2896 67.3957L39.8199 64.8003L32.1807 59.1158L30.1502 57.6286L29.1128 56.8631L28.5925 56.4772L28.5931 56.4774C28.5358 56.4343 28.4849 56.3827 28.4421 56.3247C28.2885 56.1075 28.2774 55.8179 28.4141 55.5896C28.4477 55.5374 28.4887 55.4907 28.5353 55.451L28.6573 55.3868L28.8899 55.2643C29.189 55.0796 29.5052 54.9256 29.8339 54.8042C31.1673 54.2934 32.6417 54.3185 33.9572 54.8744C34.1192 54.9465 34.2812 55.0337 34.44 55.1148C34.5989 55.1958 34.7287 55.2775 34.9446 55.4263L36.1252 56.1986L38.5104 57.7609L38.5106 57.7613C38.5666 57.7967 38.6245 57.8289 38.6841 57.8571C39.5595 58.3028 40.5234 58.5387 41.5022 58.5472C42.1121 58.5444 42.7148 58.4132 43.2728 58.1617C43.9493 57.8504 44.512 57.3281 44.8792 56.6709C45.156 56.1837 45.1863 55.5905 44.9598 55.077L32.5421 28.6333L32.5419 28.6329C32.3052 28.1693 32.0929 27.6928 31.9053 27.2065C31.8122 26.889 31.7956 26.5532 31.8567 26.2276C31.9838 25.5641 32.4176 25.0036 33.0211 24.7224C33.6192 24.4377 34.3179 24.4781 34.8806 24.8302C35.1735 25.0001 35.427 25.2321 35.624 25.5106L35.7563 25.7708L36.3815 27.0008L43.3444 39.7279L43.344 39.7281C43.6042 40.2076 44.0688 40.5365 44.6007 40.6177C45.133 40.6987 45.6722 40.5224 46.0584 40.1413C46.445 39.7599 46.6344 39.2167 46.5711 38.6728C46.4954 38.07 46.6513 37.4603 47.008 36.9724C47.364 36.4842 47.8919 36.1555 48.4811 36.0554C49.0352 35.9408 49.6112 36.0411 50.0968 36.3365C50.3439 36.483 50.566 36.6704 50.7537 36.89C50.9695 37.158 51.1497 37.4538 51.2892 37.7698C51.6139 38.367 52.261 38.7044 52.9264 38.6237C53.5922 38.5429 54.1432 38.0603 54.3209 37.4025C54.4457 36.8526 54.7547 36.3641 55.1945 36.0206C55.4065 35.8577 55.6444 35.7324 55.8976 35.6503C56.1307 35.5652 56.377 35.5243 56.6244 35.53C57.134 35.543 57.6273 35.7151 58.0382 36.0221C58.2463 36.1729 58.4342 36.3516 58.5953 36.5533C58.7764 36.8025 58.9341 37.0682 59.0655 37.3479L59.0986 37.413C59.4031 38.0009 60.0379 38.3302 60.6839 38.2357C61.3303 38.1411 61.8481 37.6425 61.9774 36.9914C62.0968 36.4359 62.4002 35.9394 62.8362 35.5843C63.2722 35.2292 63.8146 35.0371 64.3734 35.0399C65.234 35.0734 66.0321 35.5065 66.5394 36.2156C66.6281 36.3425 66.708 36.4756 66.7789 36.614L67.0795 37.2055L71.6464 45.8423L72.712 47.8376L73.1718 48.7422C73.3311 49.0557 73.4376 49.352 73.5262 49.6426L73.5264 49.642C73.9406 50.8226 74.166 52.0634 74.1936 53.3164C74.2108 54.4922 74.0928 55.666 73.8431 56.814C73.7766 57.1037 73.7272 57.3247 73.6441 57.6686C73.5643 57.9988 73.5109 58.3354 73.4849 58.6743C73.459 59.0054 73.4607 59.3381 73.4896 59.669C73.5034 59.8265 73.5233 59.9959 73.549 60.1476L73.6187 60.5454C73.6418 60.8062 73.7687 61.0458 73.9699 61.2091C74.1709 61.372 74.429 61.4442 74.6834 61.4091C75.1446 61.2613 75.4292 60.7925 75.3532 60.3064L75.3125 59.908C75.3019 59.786 75.2948 59.6852 75.2963 59.5719C75.2924 59.3439 75.3069 59.1157 75.3399 58.8896C75.3741 58.6557 75.4267 58.4246 75.4971 58.1992C75.5732 57.972 75.6823 57.6217 75.7775 57.3017L75.7777 57.3021C76.1399 56.0075 76.3469 54.6724 76.3936 53.327C76.4499 51.8218 76.2625 50.3172 75.8389 48.8744C75.7343 48.4949 75.5887 48.1214 75.446 47.7396C75.3032 47.3578 75.1139 46.9702 74.9546 46.6567L73.9701 44.6188L69.682 35.8351L69.3813 35.2436C69.259 34.9927 69.1206 34.7498 68.9678 34.517C68.6477 34.0278 68.2553 33.5923 67.8034 33.2258C66.8622 32.4634 65.7064 32.0268 64.5045 31.98L64.505 31.9809Z"/>
</mask>
<path d="M64.505 31.9809C62.9188 31.9106 61.3818 32.5475 60.2953 33.7258C60.1738 33.6172 60.0583 33.506 59.9284 33.4092C58.998 32.7007 57.8762 32.2996 56.7151 32.26C56.1003 32.237 55.4867 32.3244 54.9018 32.5179C54.3126 32.711 53.7587 33.0027 53.2634 33.3807C53.0113 33.5689 52.7756 33.7783 52.5585 34.0071C52.3219 33.8023 52.0698 33.6166 51.8047 33.4519C50.636 32.7151 49.2438 32.4382 47.8885 32.6734C46.6082 32.9116 45.4445 33.5825 44.5854 34.5777L39.5613 25.2293L38.933 23.9931C38.8669 23.8632 38.7405 23.6145 38.6069 23.4527L38.6067 23.4533C38.1122 22.716 37.4619 22.1006 36.704 21.6516C35.921 21.1824 35.038 20.9117 34.1306 20.8629C33.2242 20.808 32.3187 20.9831 31.4959 21.3736C30.2574 21.9479 29.2655 22.9587 28.7029 24.2196C28.1407 25.4805 28.0453 26.9059 28.4352 28.2327C28.5484 28.6181 28.6947 28.9928 28.8718 29.3524L29.2926 30.1802L41.1566 55.0709C40.827 55.038 40.5045 54.9553 40.1994 54.8252L37.9067 53.3716L36.7116 52.6143C36.5347 52.4978 36.2546 52.3378 36.0215 52.2279C35.789 52.1182 35.5062 51.967 35.256 51.8812L35.2565 51.881C33.1623 51.0083 30.8188 50.9892 28.7112 51.8272C28.2041 52.0342 27.7178 52.2903 27.2589 52.5921L26.9166 52.8173C26.7709 52.9207 26.6312 53.0319 26.4973 53.1506C25.789 53.7976 25.3509 54.6961 25.2731 55.661C25.1952 56.6265 25.4839 57.5856 26.079 58.341C26.3071 58.6261 26.5738 58.8768 26.8703 59.0861L27.3988 59.4599L28.4532 60.2013L30.511 61.5543L38.3141 66.9951L41.8841 69.4403C43.1864 70.3581 44.7257 70.8668 46.3097 70.9027L46.362 70.8751L46.4411 70.8711L50.995 70.3543L51.0416 70.3297L51.0412 70.33C51.6135 70.2372 52.2001 70.3006 52.7403 70.5144C52.9994 70.6038 53.2468 70.7256 53.4765 70.8765C53.7146 71.0356 53.9377 71.2167 54.1422 71.418C54.323 71.614 54.5745 71.7257 54.8388 71.7283C55.1027 71.731 55.3563 71.6236 55.5409 71.4307C55.8229 71.0113 55.7548 70.4438 55.3823 70.1051C55.1237 69.8187 54.84 69.5566 54.5352 69.3218C54.1926 69.0662 53.8203 68.8544 53.4267 68.6914C52.5815 68.3454 51.6622 68.2298 50.76 68.3567L50.8297 68.32L46.3544 68.5853C45.2409 68.4998 44.1764 68.0863 43.2896 67.3957L39.8199 64.8003L32.1807 59.1158L30.1502 57.6286L29.1128 56.8631L28.5925 56.4772L28.5931 56.4774C28.5358 56.4343 28.4849 56.3827 28.4421 56.3247C28.2885 56.1075 28.2774 55.8179 28.4141 55.5896C28.4477 55.5374 28.4887 55.4907 28.5353 55.451L28.6573 55.3868L28.8899 55.2643C29.189 55.0796 29.5052 54.9256 29.8339 54.8042C31.1673 54.2934 32.6417 54.3185 33.9572 54.8744C34.1192 54.9465 34.2812 55.0337 34.44 55.1148C34.5989 55.1958 34.7287 55.2775 34.9446 55.4263L36.1252 56.1986L38.5104 57.7609L38.5106 57.7613C38.5666 57.7967 38.6245 57.8289 38.6841 57.8571C39.5595 58.3028 40.5234 58.5387 41.5022 58.5472C42.1121 58.5444 42.7148 58.4132 43.2728 58.1617C43.9493 57.8504 44.512 57.3281 44.8792 56.6709C45.156 56.1837 45.1863 55.5905 44.9598 55.077L32.5421 28.6333L32.5419 28.6329C32.3052 28.1693 32.0929 27.6928 31.9053 27.2065C31.8122 26.889 31.7956 26.5532 31.8567 26.2276C31.9838 25.5641 32.4176 25.0036 33.0211 24.7224C33.6192 24.4377 34.3179 24.4781 34.8806 24.8302C35.1735 25.0001 35.427 25.2321 35.624 25.5106L35.7563 25.7708L36.3815 27.0008L43.3444 39.7279L43.344 39.7281C43.6042 40.2076 44.0688 40.5365 44.6007 40.6177C45.133 40.6987 45.6722 40.5224 46.0584 40.1413C46.445 39.7599 46.6344 39.2167 46.5711 38.6728C46.4954 38.07 46.6513 37.4603 47.008 36.9724C47.364 36.4842 47.8919 36.1555 48.4811 36.0554C49.0352 35.9408 49.6112 36.0411 50.0968 36.3365C50.3439 36.483 50.566 36.6704 50.7537 36.89C50.9695 37.158 51.1497 37.4538 51.2892 37.7698C51.6139 38.367 52.261 38.7044 52.9264 38.6237C53.5922 38.5429 54.1432 38.0603 54.3209 37.4025C54.4457 36.8526 54.7547 36.3641 55.1945 36.0206C55.4065 35.8577 55.6444 35.7324 55.8976 35.6503C56.1307 35.5652 56.377 35.5243 56.6244 35.53C57.134 35.543 57.6273 35.7151 58.0382 36.0221C58.2463 36.1729 58.4342 36.3516 58.5953 36.5533C58.7764 36.8025 58.9341 37.0682 59.0655 37.3479L59.0986 37.413C59.4031 38.0009 60.0379 38.3302 60.6839 38.2357C61.3303 38.1411 61.8481 37.6425 61.9774 36.9914C62.0968 36.4359 62.4002 35.9394 62.8362 35.5843C63.2722 35.2292 63.8146 35.0371 64.3734 35.0399C65.234 35.0734 66.0321 35.5065 66.5394 36.2156C66.6281 36.3425 66.708 36.4756 66.7789 36.614L67.0795 37.2055L71.6464 45.8423L72.712 47.8376L73.1718 48.7422C73.3311 49.0557 73.4376 49.352 73.5262 49.6426L73.5264 49.642C73.9406 50.8226 74.166 52.0634 74.1936 53.3164C74.2108 54.4922 74.0928 55.666 73.8431 56.814C73.7766 57.1037 73.7272 57.3247 73.6441 57.6686C73.5643 57.9988 73.5109 58.3354 73.4849 58.6743C73.459 59.0054 73.4607 59.3381 73.4896 59.669C73.5034 59.8265 73.5233 59.9959 73.549 60.1476L73.6187 60.5454C73.6418 60.8062 73.7687 61.0458 73.9699 61.2091C74.1709 61.372 74.429 61.4442 74.6834 61.4091C75.1446 61.2613 75.4292 60.7925 75.3532 60.3064L75.3125 59.908C75.3019 59.786 75.2948 59.6852 75.2963 59.5719C75.2924 59.3439 75.3069 59.1157 75.3399 58.8896C75.3741 58.6557 75.4267 58.4246 75.4971 58.1992C75.5732 57.972 75.6823 57.6217 75.7775 57.3017L75.7777 57.3021C76.1399 56.0075 76.3469 54.6724 76.3936 53.327C76.4499 51.8218 76.2625 50.3172 75.8389 48.8744C75.7343 48.4949 75.5887 48.1214 75.446 47.7396C75.3032 47.3578 75.1139 46.9702 74.9546 46.6567L73.9701 44.6188L69.682 35.8351L69.3813 35.2436C69.259 34.9927 69.1206 34.7498 68.9678 34.517C68.6477 34.0278 68.2553 33.5923 67.8034 33.2258C66.8622 32.4634 65.7064 32.0268 64.5045 31.98L64.505 31.9809Z" fill="#272431"/>
<path d="M64.505 31.9809C62.9188 31.9106 61.3818 32.5475 60.2953 33.7258C60.1738 33.6172 60.0583 33.506 59.9284 33.4092C58.998 32.7007 57.8762 32.2996 56.7151 32.26C56.1003 32.237 55.4867 32.3244 54.9018 32.5179C54.3126 32.711 53.7587 33.0027 53.2634 33.3807C53.0113 33.5689 52.7756 33.7783 52.5585 34.0071C52.3219 33.8023 52.0698 33.6166 51.8047 33.4519C50.636 32.7151 49.2438 32.4382 47.8885 32.6734C46.6082 32.9116 45.4445 33.5825 44.5854 34.5777L39.5613 25.2293L38.933 23.9931C38.8669 23.8632 38.7405 23.6145 38.6069 23.4527L38.6067 23.4533C38.1122 22.716 37.4619 22.1006 36.704 21.6516C35.921 21.1824 35.038 20.9117 34.1306 20.8629C33.2242 20.808 32.3187 20.9831 31.4959 21.3736C30.2574 21.9479 29.2655 22.9587 28.7029 24.2196C28.1407 25.4805 28.0453 26.9059 28.4352 28.2327C28.5484 28.6181 28.6947 28.9928 28.8718 29.3524L29.2926 30.1802L41.1566 55.0709C40.827 55.038 40.5045 54.9553 40.1994 54.8252L37.9067 53.3716L36.7116 52.6143C36.5347 52.4978 36.2546 52.3378 36.0215 52.2279C35.789 52.1182 35.5062 51.967 35.256 51.8812L35.2565 51.881C33.1623 51.0083 30.8188 50.9892 28.7112 51.8272C28.2041 52.0342 27.7178 52.2903 27.2589 52.5921L26.9166 52.8173C26.7709 52.9207 26.6312 53.0319 26.4973 53.1506C25.789 53.7976 25.3509 54.6961 25.2731 55.661C25.1952 56.6265 25.4839 57.5856 26.079 58.341C26.3071 58.6261 26.5738 58.8768 26.8703 59.0861L27.3988 59.4599L28.4532 60.2013L30.511 61.5543L38.3141 66.9951L41.8841 69.4403C43.1864 70.3581 44.7257 70.8668 46.3097 70.9027L46.362 70.8751L46.4411 70.8711L50.995 70.3543L51.0416 70.3297L51.0412 70.33C51.6135 70.2372 52.2001 70.3006 52.7403 70.5144C52.9994 70.6038 53.2468 70.7256 53.4765 70.8765C53.7146 71.0356 53.9377 71.2167 54.1422 71.418C54.323 71.614 54.5745 71.7257 54.8388 71.7283C55.1027 71.731 55.3563 71.6236 55.5409 71.4307C55.8229 71.0113 55.7548 70.4438 55.3823 70.1051C55.1237 69.8187 54.84 69.5566 54.5352 69.3218C54.1926 69.0662 53.8203 68.8544 53.4267 68.6914C52.5815 68.3454 51.6622 68.2298 50.76 68.3567L50.8297 68.32L46.3544 68.5853C45.2409 68.4998 44.1764 68.0863 43.2896 67.3957L39.8199 64.8003L32.1807 59.1158L30.1502 57.6286L29.1128 56.8631L28.5925 56.4772L28.5931 56.4774C28.5358 56.4343 28.4849 56.3827 28.4421 56.3247C28.2885 56.1075 28.2774 55.8179 28.4141 55.5896C28.4477 55.5374 28.4887 55.4907 28.5353 55.451L28.6573 55.3868L28.8899 55.2643C29.189 55.0796 29.5052 54.9256 29.8339 54.8042C31.1673 54.2934 32.6417 54.3185 33.9572 54.8744C34.1192 54.9465 34.2812 55.0337 34.44 55.1148C34.5989 55.1958 34.7287 55.2775 34.9446 55.4263L36.1252 56.1986L38.5104 57.7609L38.5106 57.7613C38.5666 57.7967 38.6245 57.8289 38.6841 57.8571C39.5595 58.3028 40.5234 58.5387 41.5022 58.5472C42.1121 58.5444 42.7148 58.4132 43.2728 58.1617C43.9493 57.8504 44.512 57.3281 44.8792 56.6709C45.156 56.1837 45.1863 55.5905 44.9598 55.077L32.5421 28.6333L32.5419 28.6329C32.3052 28.1693 32.0929 27.6928 31.9053 27.2065C31.8122 26.889 31.7956 26.5532 31.8567 26.2276C31.9838 25.5641 32.4176 25.0036 33.0211 24.7224C33.6192 24.4377 34.3179 24.4781 34.8806 24.8302C35.1735 25.0001 35.427 25.2321 35.624 25.5106L35.7563 25.7708L36.3815 27.0008L43.3444 39.7279L43.344 39.7281C43.6042 40.2076 44.0688 40.5365 44.6007 40.6177C45.133 40.6987 45.6722 40.5224 46.0584 40.1413C46.445 39.7599 46.6344 39.2167 46.5711 38.6728C46.4954 38.07 46.6513 37.4603 47.008 36.9724C47.364 36.4842 47.8919 36.1555 48.4811 36.0554C49.0352 35.9408 49.6112 36.0411 50.0968 36.3365C50.3439 36.483 50.566 36.6704 50.7537 36.89C50.9695 37.158 51.1497 37.4538 51.2892 37.7698C51.6139 38.367 52.261 38.7044 52.9264 38.6237C53.5922 38.5429 54.1432 38.0603 54.3209 37.4025C54.4457 36.8526 54.7547 36.3641 55.1945 36.0206C55.4065 35.8577 55.6444 35.7324 55.8976 35.6503C56.1307 35.5652 56.377 35.5243 56.6244 35.53C57.134 35.543 57.6273 35.7151 58.0382 36.0221C58.2463 36.1729 58.4342 36.3516 58.5953 36.5533C58.7764 36.8025 58.9341 37.0682 59.0655 37.3479L59.0986 37.413C59.4031 38.0009 60.0379 38.3302 60.6839 38.2357C61.3303 38.1411 61.8481 37.6425 61.9774 36.9914C62.0968 36.4359 62.4002 35.9394 62.8362 35.5843C63.2722 35.2292 63.8146 35.0371 64.3734 35.0399C65.234 35.0734 66.0321 35.5065 66.5394 36.2156C66.6281 36.3425 66.708 36.4756 66.7789 36.614L67.0795 37.2055L71.6464 45.8423L72.712 47.8376L73.1718 48.7422C73.3311 49.0557 73.4376 49.352 73.5262 49.6426L73.5264 49.642C73.9406 50.8226 74.166 52.0634 74.1936 53.3164C74.2108 54.4922 74.0928 55.666 73.8431 56.814C73.7766 57.1037 73.7272 57.3247 73.6441 57.6686C73.5643 57.9988 73.5109 58.3354 73.4849 58.6743C73.459 59.0054 73.4607 59.3381 73.4896 59.669C73.5034 59.8265 73.5233 59.9959 73.549 60.1476L73.6187 60.5454C73.6418 60.8062 73.7687 61.0458 73.9699 61.2091C74.1709 61.372 74.429 61.4442 74.6834 61.4091C75.1446 61.2613 75.4292 60.7925 75.3532 60.3064L75.3125 59.908C75.3019 59.786 75.2948 59.6852 75.2963 59.5719C75.2924 59.3439 75.3069 59.1157 75.3399 58.8896C75.3741 58.6557 75.4267 58.4246 75.4971 58.1992C75.5732 57.972 75.6823 57.6217 75.7775 57.3017L75.7777 57.3021C76.1399 56.0075 76.3469 54.6724 76.3936 53.327C76.4499 51.8218 76.2625 50.3172 75.8389 48.8744C75.7343 48.4949 75.5887 48.1214 75.446 47.7396C75.3032 47.3578 75.1139 46.9702 74.9546 46.6567L73.9701 44.6188L69.682 35.8351L69.3813 35.2436C69.259 34.9927 69.1206 34.7498 68.9678 34.517C68.6477 34.0278 68.2553 33.5923 67.8034 33.2258C66.8622 32.4634 65.7064 32.0268 64.5045 31.98L64.505 31.9809Z" stroke="black" stroke-width="0.2" mask="url(#path-2-outside-1_814_9801)"/>
<path d="M32.6295 19.6718C32.5429 19.9022 32.5123 20.1484 32.5398 20.3922C32.5398 20.7284 32.6097 20.9876 32.6942 20.997L32.6946 20.997C33.521 21.0894 34.3526 20.8731 35.0181 20.3922C35.4535 20.0888 35.8142 19.6969 36.0751 19.2445C36.3742 18.7378 36.545 18.1705 36.5739 17.5881L36.6139 16.9304C36.6274 16.6728 36.6274 16.415 36.6139 16.1574C36.5753 15.4732 36.3502 14.8108 35.9607 14.2372C35.5551 13.6371 34.9881 13.1541 34.32 12.84C33.9794 12.6799 33.6167 12.5684 33.2431 12.5088C33.057 12.4753 32.8685 12.4559 32.6796 12.4512L32.2507 12.4512C31.3144 12.4498 30.4062 12.7596 29.6796 13.3282C28.9527 13.8965 28.4522 14.6892 28.2615 15.5717C28.2275 15.7304 28.2024 15.8905 28.1868 16.0519L28.1868 16.5322L28.2216 17.209L28.2216 17.9722C28.377 19.0767 29.0518 20.0509 30.0518 20.6129C30.7544 21.0074 31.5854 21.134 32.3801 20.9682C32.45 20.9682 32.5046 20.6417 32.4998 20.277C32.4949 19.912 32.4448 19.696 32.3801 19.6815L32.1905 19.6383L32.0361 19.5905L32.0361 19.5901C31.9318 19.556 31.8302 19.5141 31.7321 19.4655C31.5199 19.3651 31.3265 19.2321 31.1585 19.0717C30.7933 18.7264 30.5885 18.2539 30.5902 17.7609L30.6998 16.5513C30.6963 16.5098 30.6963 16.4679 30.6998 16.4264L30.6998 16.3303C30.6998 16.268 30.6998 16.2054 30.7495 16.1478L30.7499 16.1481C30.7892 16.0289 30.8427 15.9143 30.9092 15.8072C31.1996 15.3678 31.705 15.1046 32.2455 15.1109L32.5846 15.1109C32.6493 15.1052 32.7144 15.1052 32.7791 15.1109C32.9085 15.1283 33.0347 15.1638 33.1533 15.2164C33.3968 15.3239 33.6076 15.489 33.7665 15.6967C33.9234 15.8969 34.0278 16.131 34.0705 16.3785C34.0705 16.4602 34.1005 16.7482 34.1105 16.9545L34.1505 17.6123C34.2013 18.0945 34.0504 18.5768 33.7318 18.9519C33.4427 19.2878 33.0605 19.5373 32.6295 19.6719L32.6295 19.6718Z" fill="#272431"/>
</svg>
