<?xml version="1.0" standalone="no"?>
<!DOCTYPE svg PUBLIC "-//W3C//DTD SVG 1.0//EN" "http://www.w3.org/TR/2001/REC-SVG-20010904/DTD/svg10.dtd">
<svg xmlns="http://www.w3.org/2000/svg" xmlns:xlink="http://www.w3.org/1999/xlink" id="body_1" width="181" height="148">

<g transform="matrix(0.6999854 0 0 0.6999854 0.25753856 -0)">
	<g transform="matrix(1 0 0 1 96.157 0)">
		<g transform="matrix(1 0 0 1 0 0)">
            <path d="M12.437 0L149.247 0C 156.11575 1.9073486E-06 161.68398 5.5682364 161.68399 12.437L161.68399 12.437L161.68399 179.1C 161.68398 185.96878 156.11575 191.537 149.247 191.537L149.247 191.537L12.437 191.537C 5.5682364 191.537 1.9073486E-06 185.96878 0 179.1L0 179.1L0 12.437C 0 5.5682344 5.5682344 0 12.437 0z" stroke="none" fill="#FFFFFF" fill-rule="nonzero" />
            <path d="M12.437 3.731C 7.6310935 3.7365093 3.7365093 7.6310935 3.731 12.437L3.731 12.437L3.731 179.1C 3.7365131 183.90591 7.6310954 187.80049 12.437 187.806L12.437 187.806L149.247 187.806C 154.0529 187.80049 157.94748 183.90591 157.95299 179.1L157.95299 179.1L157.95299 12.437C 157.94748 7.6310954 154.0529 3.7365131 149.247 3.731L149.247 3.731L12.437 3.731zM12.437 0L149.247 0C 156.11575 1.9073486E-06 161.68398 5.5682364 161.68399 12.437L161.68399 12.437L161.68399 179.1C 161.68398 185.96878 156.11575 191.537 149.247 191.537L149.247 191.537L12.437 191.537C 5.5682364 191.537 1.9073486E-06 185.96878 0 179.1L0 179.1L0 12.437C 0 5.5682344 5.5682344 0 12.437 0z" stroke="none" fill="#454343" fill-rule="nonzero" />
            <path transform="matrix(1 0 0 1 3.731 11.194)"  d="M12.437 0L141.784 0C 148.65277 1.9073486E-06 154.221 5.5682364 154.221 12.437L154.221 12.437L154.221 179.1C 154.221 185.96878 148.65277 191.537 141.784 191.537L141.784 191.537L12.437 191.537C 5.5682364 191.537 1.9073486E-06 185.96878 0 179.1L0 179.1L0 12.437C 0 5.5682344 5.5682344 0 12.437 0z" stroke="none" fill="#454343" fill-rule="nonzero" />
            <path transform="matrix(1 0 0 1 3.731 19.9)"  d="M12.437 0L141.784 0C 148.65277 1.9073486E-06 154.221 5.5682364 154.221 12.437L154.221 12.437L154.221 179.1C 154.221 185.96878 148.65277 191.537 141.784 191.537L141.784 191.537L12.437 191.537C 5.5682364 191.537 1.9073486E-06 185.96878 0 179.1L0 179.1L0 12.437C 0 5.5682344 5.5682344 0 12.437 0z" stroke="none" fill="#FFFFFF" fill-rule="nonzero" />
            <path transform="matrix(1 0 0 1 0 30.471)"  d="M12.437 0L149.247 0C 156.11575 1.9073486E-06 161.68398 5.5682364 161.68399 12.437L161.68399 12.437L161.68399 164.172C 161.68398 171.04077 156.11575 176.609 149.247 176.609L149.247 176.609L12.437 176.609C 5.5682364 176.609 1.9073486E-06 171.04077 0 164.172L0 164.172L0 12.437C 0 5.5682344 5.5682344 0 12.437 0z" stroke="none" fill="#FFFFFF" fill-rule="nonzero" />
            <path transform="matrix(1 0 0 1 0 30.471)"  d="M12.437 3.731C 7.6310935 3.7365093 3.7365093 7.6310935 3.731 12.437L3.731 12.437L3.731 164.172C 3.7365131 168.9779 7.6310954 172.87248 12.437 172.87799L12.437 172.87799L149.247 172.87799C 154.0529 172.87248 157.94748 168.9779 157.95299 164.172L157.95299 164.172L157.95299 12.437C 157.94748 7.6310954 154.0529 3.7365131 149.247 3.731L149.247 3.731L12.437 3.731zM12.437 0L149.247 0C 156.11575 1.9073486E-06 161.68398 5.5682364 161.68399 12.437L161.68399 12.437L161.68399 164.172C 161.68398 171.04077 156.11575 176.609 149.247 176.609L149.247 176.609L12.437 176.609C 5.5682364 176.609 1.9073486E-06 171.04077 0 164.172L0 164.172L0 12.437C 0 5.5682344 5.5682344 0 12.437 0z" stroke="none" fill="#454343" fill-rule="nonzero" />
		</g>
		<g transform="matrix(1 0 0 1 26.078 56.452)">
            <path transform="matrix(1 0 0 1 96.768 -0.019)"  d="M17 8.5C 17 10.84721 16.170135 12.850679 14.510407 14.510407C 12.850679 16.170135 10.84721 17 8.5 17C 6.15279 17 4.1493206 16.170135 2.4895926 14.510407C 0.8298642 12.850679 0 10.84721 0 8.5C 0 6.15279 0.8298642 4.1493206 2.4895926 2.4895926C 4.1493206 0.8298642 6.15279 0 8.5 0C 10.84721 0 12.850679 0.8298642 14.510407 2.4895926C 16.170135 4.1493206 17 6.15279 17 8.5C 17 8.598912 16.998276 8.697794 16.994823 8.796646" stroke="none" fill="#454343" fill-rule="nonzero" />
            <path transform="matrix(1 0 0 1 64.768 -0.019)"  d="M17 8.5C 17 10.84721 16.170135 12.850679 14.510407 14.510407C 12.850679 16.170135 10.84721 17 8.5 17C 6.15279 17 4.1493206 16.170135 2.4895926 14.510407C 0.8298642 12.850679 0 10.84721 0 8.5C 0 6.15279 0.8298642 4.1493206 2.4895926 2.4895926C 4.1493206 0.8298642 6.15279 0 8.5 0C 10.84721 0 12.850679 0.8298642 14.510407 2.4895926C 16.170135 4.1493206 17 6.15279 17 8.5C 17 8.598912 16.998276 8.697794 16.994823 8.796646" stroke="none" fill="#454343" fill-rule="nonzero" />
            <path transform="matrix(1 0 0 1 31.768 -0.019)"  d="M17 8.5C 17 10.84721 16.170135 12.850679 14.510407 14.510407C 12.850679 16.170135 10.84721 17 8.5 17C 6.15279 17 4.1493206 16.170135 2.4895926 14.510407C 0.8298642 12.850679 0 10.84721 0 8.5C 0 6.15279 0.8298642 4.1493206 2.4895926 2.4895926C 4.1493206 0.8298642 6.15279 0 8.5 0C 10.84721 0 12.850679 0.8298642 14.510407 2.4895926C 16.170135 4.1493206 17 6.15279 17 8.5C 17 8.598912 16.998276 8.697794 16.994823 8.796646" stroke="none" fill="#454343" fill-rule="nonzero" />
            <path transform="matrix(1 0 0 1 -0.232 -0.019)"  d="M17 8.5C 17 10.84721 16.170135 12.850679 14.510407 14.510407C 12.850679 16.170135 10.84721 17 8.5 17C 6.15279 17 4.1493206 16.170135 2.4895926 14.510407C 0.8298642 12.850679 0 10.84721 0 8.5C 0 6.15279 0.8298642 4.1493206 2.4895926 2.4895926C 4.1493206 0.8298642 6.15279 0 8.5 0C 10.84721 0 12.850679 0.8298642 14.510407 2.4895926C 16.170135 4.1493206 17 6.15279 17 8.5C 17 8.598912 16.998276 8.697794 16.994823 8.796646" stroke="none" fill="#454343" fill-rule="nonzero" />
		</g>
        <path transform="matrix(1 0 0 1 30.819 91.782)"  d="M38.2 61.2C 25.9 60.12 15.028 55.556 7.96 48.488C 4.1321144 44.833435 1.4905891 40.113045 0.378 34.939C -0.1280632 32.094433 -0.12535477 29.182623 0.38599998 26.338999C 1.924 19.178 6.547 12.915998 13.834 8.138998C 30.451 -2.757 55.91 -2.706 72.375 8.262C 74.39203 9.580946 76.26291 11.110907 77.956 12.826C 80.45768 15.297348 82.520454 18.176445 84.056 21.34C 84.25927 21.544773 84.52559 21.675114 84.812 21.710001C 86.30895 22.142271 87.67515 22.939451 88.787994 24.03C 90.16787 25.447954 91.37003 27.028568 92.368 28.737C 94.242 31.569 102.714 44.647 103.227 45.504997C 103.426994 45.840996 103.034 46.371 102.588 46.371C 102.269 46.371 102.049995 46.161 101.578995 45.420998C 101.25099 44.899998 99.090996 41.545998 96.77899 37.965996C 88.6 25.307 88.168 24.719 85.89 23.576L85.89 23.576L84.697 22.976L81.183 22.976C 77.67 22.976 77.67 22.976 77.583 23.346C 77.121 25.372002 77.028 25.867 77.129 25.960001C 77.196 26.019001 79.187996 27.153002 81.558 28.481L81.558 28.481L85.873 30.9L85.604004 31.463C 85.453 31.774 85.285 32.026 85.226006 32.026C 85.16701 32.026 81.536 30.017 77.157005 27.555C 72.77801 25.093 68.937004 23.016 68.62601 22.932C 67.382 22.587 65.466 23.966 65.466 25.21C 65.466 26.470999 65.836006 26.831999 73.535 33.135998C 78.33501 37.068996 81.083 39.435997 81.503006 39.985996C 82.4409 41.33131 83.19554 42.795517 83.74701 44.339996C 84.73747 47.35014 87.26502 49.598713 90.37001 50.231995L90.37001 50.231995L91.47001 50.508995L91.378006 51.108994C 91.355896 51.3393 91.302055 51.565437 91.218 51.780994C 89.95212 51.59664 88.72531 51.204712 87.587006 50.620995C 85.53198 49.612892 83.86846 47.95289 82.856 45.9C 82.848 45.883003 82.056 46.152 81.116005 46.5C 79.79332 46.870403 78.62022 47.64653 77.76201 48.719C 70.979 55.338 61.247 59.566 49.505 61C 45.745667 61.291897 41.972115 61.356342 38.205 61.193L38.205 61.193L38.2 61.2zM49.891 59.166C 54.678825 58.607414 59.369263 57.40453 63.835 55.59C 68.229866 53.833984 72.276985 51.309616 75.787 48.135002L75.787 48.135002L76.981 47L73.972 45.563C 70.761 44.025 70.442 43.773 70.03 42.403C 69.80064 41.422127 70.13006 40.39465 70.887 39.73L70.887 39.73L71.526 39.03L70.126 37.971C 69.026 37.131 68.68 36.771 68.462 36.214C 68.11608 35.329006 68.24259 34.32897 68.798 33.558002L68.798 33.558002L69.217995 32.958004L64.81799 32.185005C 62.39699 31.756004 60.135994 31.328005 59.79999 31.227005C 59.06002 30.938671 58.502525 30.313904 58.29999 29.546005C 58.207993 29.146006 60.367992 18.611004 60.846992 17.107006C 61.187885 16.326773 61.857513 15.7381 62.675 15.5C 67.501816 16.083527 72.294 16.924728 77.031 18.02C 78.056 18.62 78.376 19.575 78.056 21.054L78.056 21.054L77.922 21.668001L78.635994 21.668001C 79.035995 21.668001 79.964 21.618002 80.71199 21.559002L80.71199 21.559002L82.07399 21.450003L81.4 20.2C 78.87006 15.897053 75.352936 12.257563 71.139 9.582C 68.16242 7.748478 65.01907 6.200577 61.751 4.9589996C 57.51201 3.4920616 53.117992 2.5189667 48.656 2.0589995C 44.872623 1.8010864 41.076004 1.803772 37.293 2.0669994C 31.944626 2.586277 26.70213 3.8920174 21.735 5.942C 11.145 10.456 4.026 17.936 2.2 26.459C 1.7175732 29.153168 1.6918812 31.909307 2.124 34.612C 3.1115913 39.132416 5.3617573 43.279743 8.613 46.572C 15.589 53.918 26.245998 58.44 39.022 59.457C 40.737 59.591 48.15 59.39 49.89 59.163002zM47.563 51.148003C 46.81751 50.852825 46.26662 50.20756 46.092 49.425003C 46 48.938004 46.108997 48.601 46.806 47.248C 49.539715 42.152912 50.93368 36.446632 50.857 30.665C 50.937637 25.108124 49.638145 19.618088 47.074997 14.687001C 46.65835 13.904897 46.306835 13.089813 46.024 12.250001C 46.09191 11.542315 46.46279 10.898656 47.040997 10.485001C 47.844627 10.036236 48.837685 10.105711 49.570995 10.662001C 50.07622 11.322966 50.509975 12.03561 50.864994 12.788C 52.81706 16.645565 54.13655 20.791752 54.772995 25.068C 55.190033 28.456554 55.243675 31.880045 54.932995 35.28C 54.39022 39.624493 53.138607 43.85061 51.228 47.79C 50.068 50.177002 49.345 51.16 48.74 51.16C 48.592278 51.165848 48.445686 51.188324 48.303 51.227C 48.05319 51.24965 47.80138 51.221066 47.563 51.143zM39.7 47.034C 38.66444 46.696873 38.0437 45.63955 38.254 44.571C 38.321003 44.343998 38.800003 43.309998 39.313004 42.271C 41.44449 38.009953 42.352142 33.241127 41.935005 28.494999C 41.692924 25.09496 40.75162 21.781492 39.170006 18.762C 38.019005 16.4 37.960007 16.039 38.632008 15.080999C 39.406017 14.165841 40.77018 14.038673 41.70001 14.794999C 42.995842 16.802254 44.03241 18.965439 44.785007 21.233C 47.08667 28.309994 46.73117 35.983143 43.785007 42.817C 42.268 46.37 41.2 47.471 39.7 47.034zM31.6 42.865C 30.948408 42.548603 30.468956 41.96163 30.289 41.260002C 30.197 40.86 30.355999 40.403004 31.095999 38.907C 33.812344 33.856667 33.846806 27.787863 31.187998 22.707C 30.019999 20.345001 29.994997 19.875 30.977999 18.942001C 31.316715 18.54106 31.835224 18.338621 32.356 18.404001C 33.507 18.404001 34.104 18.984001 35.129997 21.094002C 36.65242 24.08481 37.414547 27.404646 37.349 30.760002C 37.420364 34.127495 36.630394 37.457413 35.054 40.434002C 34.087 42.392002 33.608 42.913002 32.642002 43.04C 32.286625 43.05967 31.93119 43.00236 31.600002 42.872zM24.036 38.982002C 23.451332 38.67414 23.010773 38.149204 22.809 37.52C 22.624 36.864002 22.775 36.343002 23.515 35.12C 24.403553 33.809513 24.818727 32.235237 24.692 30.657C 24.819054 29.080902 24.404552 27.508621 23.517 26.2C 23.231184 25.750858 22.989075 25.275347 22.794 24.78C 22.575502 23.61111 23.341547 22.485048 24.509 22.259C 25.492 22.074001 26.165 22.511002 27.072 23.923C 29.68575 28.073088 29.68575 33.354916 27.072 37.505C 26.147001 38.925 25.122 39.43 24.038 38.984zM80.374 45.319C 80.945724 45.130707 81.50686 44.91173 82.055 44.663002C 82.000275 44.229935 81.87247 43.809296 81.677 43.419003C 81.156 42.119003 81.240005 42.15 79.377 42.503002C 77.368 42.890003 76.2 42.545002 73.998 40.923C 73.58797 40.581703 73.12529 40.309166 72.628 40.116C 72.327446 40.206673 72.060974 40.385365 71.863 40.629C 71.30323 41.196087 71.2224 42.079773 71.67 42.739002C 73.742355 44.021614 75.94925 45.072914 78.251 45.874C 78.97863 45.771263 79.692 45.585037 80.377 45.319zM79.5 41.092C 80.315 40.924 80.408 40.872997 80.265 40.605C 80.104996 40.311 72.465 33.974 71.801 33.579C 71.577065 33.419094 71.29867 33.354946 71.027336 33.40073C 70.756004 33.446514 70.51407 33.598465 70.355 33.822998C 69.027 35.242996 69.187004 35.545998 72.624 38.177C 76.776 41.362 77.224 41.546997 79.499 41.093zM69.248 31.485C 69.248 31.443 68.382 30.695 67.323 29.829C 64.709 27.677 64.145996 26.87 64.145996 25.274C 64.23623 23.81183 65.129654 22.520216 66.465996 21.92C 67.31019 21.540298 68.25726 21.454393 69.156 21.676C 69.656 21.844 71.946 23.076 75.106995 24.895L75.106995 24.895L75.770996 25.282L76.31699 22.675999C 76.88 20.012 76.88899 19.306 76.367 19.145998C 76.20699 19.095999 73.156 18.540998 69.592995 17.909998C 63.255997 16.791998 62.557995 16.724998 62.263996 17.203999C 62.103996 17.456 59.691998 28.634998 59.691998 29.103998C 59.694164 29.349083 59.790478 29.583952 59.961 29.759998C 61.46075 30.19383 62.988304 30.52527 64.533 30.751999C 69.104996 31.575998 69.248 31.600998 69.248 31.483z" stroke="none" fill="#454343" fill-rule="nonzero" />
        <path transform="matrix(1 0 0 1 30.261 91.223)"  d="M42.264 62.655C 40.631 62.655 39.364 62.621 38.685 62.555C 32.729164 62.072987 26.884558 60.66717 21.361002 58.388C 16.36247 56.36314 11.806017 53.38438 7.946 49.618C 4.0153847 45.847668 1.2994804 40.99003 0.14599991 35.667C -0.38246918 32.710827 -0.37942123 29.684101 0.15499991 26.729C 1.734 19.375 6.5 12.9 13.949 8.019C 22.082 2.687 32.609 -0.249 43.592 -0.249C 54.673 -0.249 65.252 2.733 73.381 8.151C 75.44123 9.497339 77.352005 11.059483 79.08099 12.811C 81.60866 15.305458 83.698814 18.207268 85.26399 21.395C 85.3483 21.43236 85.43651 21.4602 85.52699 21.478C 87.174255 21.935894 88.678696 22.803535 89.9 24C 91.32836 25.458866 92.57109 27.088528 93.6 28.852001C 95.54 31.783 103.978 44.814003 104.479 45.652C 104.71004 46.05433 104.70391 46.550503 104.463 46.947C 104.19568 47.425835 103.69523 47.72777 103.146996 47.740997C 102.36099 47.740997 101.934 47.166996 101.45599 46.416996C 101.15599 45.937996 99.18299 42.874996 96.65599 38.965996C 88.565 26.43 88.169 25.9 86.085 24.857L86.085 24.857L85.062996 24.346L81.741 24.346C 80.312 24.346 79.328995 24.346 78.866 24.376001C 78.737 24.943 78.577995 25.652 78.504 26.066002C 79.173996 26.454002 80.690994 27.315002 82.515 28.337002L82.515 28.337002L87.488 31.119001L86.888 32.366C 86.58 33 86.288 33.389 85.78 33.389C 85.526 33.389 85.526 33.389 82.974 31.976C 81.4 31.104 79.391 29.982 77.315 28.814C 72.852005 26.314 69.415 24.46 68.943 24.259998C 68.88459 24.246874 68.82487 24.240498 68.765 24.241C 67.909996 24.241 66.829 25.185 66.829 25.764C 66.829 26.155 66.829 26.37 67.734 27.264C 68.742004 28.254 70.694 29.869999 74.601 33.069C 82.001 39.137 82.529 39.829002 82.701 40.056C 83.68514 41.459328 84.4781 42.987408 85.059 44.6C 85.95095 47.36761 88.27273 49.43447 91.125 50L91.125 50L92.94 50.457L92.735 51.782C 92.624 52.505 92.524 52.722 92.358 52.892002C 92.17947 53.07312 91.93316 53.171062 91.679 53.162003C 90.334045 52.922005 89.0287 52.497322 87.8 51.9C 85.794556 50.92991 84.13593 49.366592 83.049 47.422C 82.76501 47.522 82.388 47.654 81.957 47.812C 80.74306 48.14477 79.668205 48.858883 78.891 49.849C 71.999 56.578 62.067 60.905 50.166 62.362C 48.813 62.552 45.083 62.655 42.264 62.655zM43.592 1.368C 32.92 1.368 22.707998 4.21 14.835999 9.368C 7.7539988 14.016 3.223998 20.136 1.7359982 27.068C 1.2505836 29.799034 1.2478771 32.594032 1.7279981 35.326C 2.7986488 40.351067 5.364752 44.934566 9.089 48.474C 12.801151 52.09407 17.182684 54.95667 21.988998 56.902C 27.358822 59.116226 33.040413 60.481552 38.829998 60.949C 39.461 61.006 40.679996 61.038002 42.265 61.038002C 45.065 61.038002 48.709 60.938004 49.952 60.761C 61.511 59.346 71.121 55.174004 77.752 48.695C 78.288345 48.125637 78.874695 47.605553 79.504 47.141C 79.27958 47.19716 79.0501 47.23066 78.819 47.240997L78.819 47.240997L78.781 47.240997L78.74 47.240997L78.939995 47.340996L76.9 49.279C 73.31636 52.521267 69.185616 55.101627 64.7 56.9C 60.17044 58.740982 55.412594 59.960716 50.555996 60.526C 49.155994 60.708 44.299995 60.870003 41.455994 60.870003C 40.555992 60.870003 39.907993 60.855003 39.521996 60.824C 33.45996 60.400997 27.505478 59.005154 21.887 56.69C 16.881086 54.638107 12.353102 51.57406 8.586999 47.69C 5.2369366 44.286182 2.916809 40.005054 1.894 35.34C 1.4411411 32.5249 1.466835 29.65355 1.97 26.847C 3.85 18.062 11.142 10.374001 21.976 5.757C 27.016548 3.676155 32.33647 2.3502197 37.764 1.822C 38.944 1.694 41.131 1.622 43.612 1.622C 46.007 1.622 48.133 1.6949999 49.299 1.822C 53.82489 2.283165 58.282005 3.2677422 62.581 4.756C 65.91202 6.0175056 69.11468 7.5950546 72.145004 9.467C 76.47482 12.209206 80.08459 15.948936 82.672 20.373L82.672 20.373L83.929 22.715L83.751 22.729L84.342 22.729C 84.15226 22.616352 83.99671 22.454237 83.892006 22.26C 82.39363 19.17674 80.38272 16.370205 77.94501 13.96C 76.28854 12.281513 74.45786 10.784388 72.48401 9.4939995C 64.619 4.254 54.358 1.368 43.592 1.368zM43.612 3.2350001C 41.222 3.2350001 39.047 3.3100002 37.938 3.43C 32.66897 3.9409218 27.504047 5.2260857 22.61 7.244C 12.266 11.653 5.319 18.922 3.551 27.186C 3.0939217 29.76856 3.0682392 32.40904 3.475 35C 4.438139 39.372936 6.6167564 43.384922 9.76 46.574C 13.373238 50.297245 17.716679 53.23395 22.518 55.2C 27.975534 57.4455 33.758724 58.798443 39.646 59.207C 39.882 59.226 40.395 59.25 41.454 59.248C 44.23 59.248 49.038998 59.088 50.344997 58.917C 55.06327 58.369583 59.68585 57.186523 64.087 55.4C 68.38757 53.67999 72.34894 51.210735 75.786995 48.107002L75.786995 48.107002L76.129 47.782L74.18 46.851C 71.029 45.341003 70.343 44.960003 69.812 43.194C 69.49933 41.93816 69.89833 40.611874 70.852 39.737L70.852 39.737L70.887 39.699L70.198 39.176003C 69.36371 38.67971 68.69336 37.94956 68.27 37.076004C 67.88963 36.111828 67.94507 35.030243 68.422 34.110004L68.422 34.110004L65.23399 33.550003C 63.676994 33.274002 60.607994 32.715004 60.123993 32.570004C 59.106865 32.19808 58.33821 31.348999 58.069 30.3C 58.021 30.099998 57.958 29.825998 59.122 24.144999C 59.646 21.585999 60.356003 18.290998 60.631 17.425999C 61.06649 16.359339 61.976643 15.558376 63.09 15.261999C 63.16792 15.248455 63.246918 15.242095 63.326 15.242999C 64.404 15.242999 70.217 16.265 70.876 16.380999C 73.28323 16.711414 75.66392 17.212685 78 17.881C 79.23255 18.590498 79.83756 20.037298 79.477 21.413C 79.917 21.399 80.613 21.359 81.21 21.313L81.21 21.313L81.338 21.303L81.251 21.14C 78.775894 16.959911 75.349815 13.422489 71.251 10.815C 68.32917 9.0183525 65.24497 7.5003586 62.039 6.2809997C 57.86107 4.831959 53.52908 3.8725395 49.13 3.422C 48.016 3.3 45.954 3.235 43.612 3.235zM72.833 42.759C 74.75355 43.883102 76.7665 44.84124 78.85 45.622997C 79.468056 45.50483 80.07517 45.33524 80.665 45.115997C 81.065 44.975 81.403 44.847996 81.665 44.747997C 81.618004 44.614998 81.559 44.46 81.487 44.284996L81.487 44.284996L81.433 44.150997C 81.363 43.975 81.285995 43.781 81.233 43.664997C 81.033005 43.677998 80.693 43.742996 80.272 43.822998L80.272 43.822998L80.087006 43.857998C 79.59651 43.958168 79.0976 44.01141 78.59701 44.017C 76.922134 43.91466 75.33041 43.251762 74.07801 42.135C 73.80077 41.925987 73.51088 41.734283 73.210014 41.560997C 73.13902 41.61709 73.07218 41.67825 73.01002 41.743996C 72.74403 42.011745 72.673355 42.41701 72.833 42.759zM71.745 34.752C 71.72 34.752 71.638 34.788998 71.506004 34.931C 71.034004 35.431 70.955 35.604 70.950005 35.66C 70.98601 36.034 72.66901 37.322 73.675 38.092C 76.73 40.436 77.633 41.026 78.635 41.026C 78.89127 41.02159 79.14677 40.99651 79.399 40.951C 77.41 39.23 72.476006 35.16 71.945 34.831C 71.88597 34.789078 71.81772 34.76198 71.746 34.752zM70.2 32.776L71.173 32.947002L70.867 33.381C 71.27224 33.13549 71.761566 33.070244 72.216995 33.201C 71.631996 32.722 71.09699 32.282 70.604996 31.876C 70.611145 31.931438 70.61349 31.987238 70.612 32.043C 70.613754 32.332615 70.46741 32.60305 70.224 32.76zM61.059998 29.661001C 61.595997 29.811 63.121 30.143002 65.229996 30.516L65.229996 30.516L67.19299 30.869001C 64.68199 28.787 63.892994 27.789001 63.892994 25.832C 63.98075 24.066748 65.04356 22.497017 66.649994 21.76C 67.31759 21.446999 68.04777 21.290361 68.784996 21.302C 69.18417 21.29557 69.58192 21.351234 69.964 21.467001C 70.73399 21.724 74.07 23.611 75.764 24.581001L75.764 24.581001L76.081 23.070002C 76.286194 22.205753 76.42592 21.327261 76.499 20.442001C 75.776 20.300001 73.39 19.865002 70.007 19.267002C 67.88853 18.822575 65.74679 18.496723 63.592003 18.291002L63.592003 18.291002L63.504 18.291002C 63.084 19.927 61.2 28.676 61.062 29.661zM48.731 52.608C 48.44709 52.602516 48.16522 52.55879 47.892998 52.478C 46.85764 52.095024 46.08947 51.20995 45.856 50.131C 45.707 49.348 45.940998 48.8 46.646 47.431C 49.32657 42.453274 50.6904 36.873005 50.608 31.22C 50.68123 25.787601 49.41018 20.421387 46.908 15.598999C 46.401997 14.723233 46.020653 13.781149 45.775 12.8C 45.840508 11.811087 46.356667 10.907077 47.175003 10.348001C 47.64617 10.068856 48.185413 9.925568 48.733 9.934001C 49.444576 9.913558 50.1384 10.158018 50.68 10.620001C 51.248558 11.351095 51.739525 12.139326 52.145 12.972001C 54.138844 16.906513 55.485126 21.13682 56.132 25.5C 56.5591 28.964193 56.613407 32.464222 56.294 35.94C 55.73555 40.370567 54.458466 44.680428 52.513 48.7C 51.123 51.561 50.313 52.526 49.298 52.526C 49.225468 52.532116 49.15356 52.544155 49.083 52.562C 48.968388 52.593685 48.849903 52.60917 48.731 52.608zM47.4 12.733C 47.487003 12.988999 47.817 13.778999 48.362003 14.885C 50.976597 19.928293 52.303635 25.539797 52.225 31.22C 52.29225 37.129635 50.867996 42.960777 48.084 48.174C 47.418 49.467 47.407 49.623 47.446 49.829C 47.56315 50.314983 47.896698 50.720398 48.350998 50.928997C 48.468388 50.96287 48.589085 50.983994 48.711 50.991997C 48.888977 50.947952 49.07085 50.92149 49.253998 50.913C 49.425 50.823997 49.914997 50.352997 51.059998 47.996998C 52.92932 44.13256 54.156075 39.98922 54.691998 35.729996C 54.989853 32.40501 54.936893 29.057892 54.533997 25.743996C 53.91124 21.552645 52.616615 17.489132 50.7 13.71C 50.38008 13.041847 50.00265 12.40276 49.572 11.8C 49.327835 11.626219 49.032337 11.5395775 48.732998 11.554C 48.48875 11.546759 48.247032 11.605117 48.032997 11.723C 47.710693 11.975566 47.486786 12.332828 47.4 12.733zM40.854 48.491C 40.57688 48.488968 40.30146 48.447556 40.036 48.368C 39.279697 48.12889 38.650574 47.597 38.288998 46.891C 37.945297 46.283188 37.85751 45.563614 38.045 44.891C 38.183 44.441998 39.051 42.673 39.150997 42.471C 41.211205 38.342373 42.09122 33.72498 41.693996 29.128C 41.46219 25.825123 40.547577 22.606283 39.007996 19.675C 37.875996 17.354 37.564995 16.553999 38.533997 15.174999C 39.039776 14.543426 39.77923 14.142937 40.584545 14.064421C 41.389862 13.985903 42.19275 14.236017 42.810997 14.757999C 43.595997 15.473999 45.472996 19.57 46.116997 21.539999C 48.464264 28.804546 48.09977 36.673546 45.091 43.69C 43.823 46.655 42.672 48.491 40.854 48.491zM40.881 15.665001C 40.490498 15.644709 40.11253 15.806009 39.857002 16.102001C 39.434002 16.702002 39.390003 16.768002 40.457 18.964C 42.07862 22.07174 43.04619 25.478825 43.3 28.975C 43.725533 33.868946 42.791183 38.78535 40.6 43.182C 40.017998 44.364998 39.639 45.208 39.588997 45.363C 39.52967 45.625202 39.574486 45.900196 39.713997 46.129997C 39.87387 46.44933 40.150753 46.694695 40.486996 46.815C 40.605278 46.851616 40.728188 46.871147 40.851997 46.872997C 41.623997 46.872997 42.471996 45.694996 43.602997 43.052998C 46.45813 36.39628 46.804504 28.930483 44.577995 22.037998C 43.85357 19.904148 42.892586 17.85807 41.712994 15.937998C 41.477737 15.74878 41.181614 15.6517315 40.88 15.665zM33.07 44.405C 31.619965 44.428867 30.357277 43.419643 30.061 42C 29.899 41.294 30.171001 40.646 30.931002 39.109C 33.530884 34.281372 33.565353 28.478176 31.023 23.62C 29.863 21.275002 29.559 20.261002 30.982 18.911001C 31.472519 18.368807 32.188606 18.087555 32.917 18.151001C 34.594 18.151001 35.382 19.165 36.417 21.296001C 37.996895 24.396076 38.78694 27.838263 38.717 31.317001C 38.793137 34.80708 37.974846 38.25857 36.34 41.343C 35.352 43.343 34.713 44.21 33.307 44.393997L33.307 44.393997L33.272 44.393997C 33.209 44.4 33.141 44.405 33.07 44.405zM32.917 19.765C 32.428 19.765 32.417 19.771 32.095 20.081C 31.482 20.663 31.403002 20.737 32.473 22.901C 35.25322 28.206875 35.21875 34.54667 32.381 39.822C 32.055305 40.39216 31.805206 41.002277 31.637001 41.636997C 31.761444 42.090363 32.070583 42.470623 32.489002 42.684998C 32.690918 42.757366 32.904602 42.791283 33.119003 42.784996C 33.619003 42.717995 33.931004 42.567997 34.890003 40.625996C 36.40947 37.76009 37.170265 34.553032 37.1 31.31C 37.165287 28.078148 36.431572 24.880167 34.964 22C 33.928 19.869 33.53 19.765 32.917 19.765zM25.352 40.506C 24.986813 40.50361 24.62565 40.429543 24.289 40.288002C 23.47156 39.889248 22.856024 39.169434 22.588999 38.300003C 22.304998 37.294003 22.619 36.520004 23.380999 35.263004C 24.194355 34.079548 24.568914 32.649216 24.439999 31.219004C 24.56514 29.79051 24.191248 28.3628 23.381998 27.179005C 23.05893 26.670681 22.788212 26.130924 22.573997 25.568005C 22.378149 24.847923 22.495836 24.078606 22.897997 23.450005C 23.34072 22.712881 24.071165 22.19414 24.912996 22.019005C 25.095596 21.983925 25.281057 21.965847 25.466997 21.965004C 26.789997 21.965004 27.613997 22.965004 28.306997 24.041004C 31.085667 28.459814 31.085667 34.080193 28.306997 38.499004C 27.739325 39.63748 26.619566 40.39801 25.352 40.506zM25.470999 23.583C 25.385384 23.58385 25.300026 23.592554 25.216 23.609C 24.825178 23.698778 24.48829 23.944939 24.284 24.289999C 24.120937 24.527395 24.064054 24.821957 24.127 25.102999C 24.302988 25.530005 24.515787 25.940882 24.763 26.331C 25.730782 27.769098 26.188503 29.490133 26.063 31.219C 26.185486 32.945107 25.728714 34.66275 24.765 36.1C 24.056 37.267998 24.059 37.542 24.147 37.855C 24.281546 38.24457 24.548332 38.574696 24.901 38.788C 25.043224 38.85087 25.196526 38.88486 25.352 38.887997C 25.993 38.887997 26.576 38.197998 26.952 37.618996C 29.393568 33.73554 29.393568 28.796453 26.952 24.912994C 26.159 23.686 25.772 23.583 25.471 23.583z" stroke="none" fill="#454343" fill-rule="nonzero" />
        <path transform="matrix(1 0 0 1 74.846 192.433)"  d="M0 0L41 0L41 4L0 4z" stroke="none" fill="#454343" fill-rule="nonzero" />
        <path transform="matrix(1 0 0 1 74.846 185.433)"  d="M0 0L41 0L41 4L0 4z" stroke="none" fill="#454343" fill-rule="nonzero" />
        <path transform="matrix(1 0 0 1 119.846 192.433)"  d="M0 0L25 0L25 4L0 4z" stroke="none" fill="#454343" fill-rule="nonzero" />
        <path transform="matrix(7.5497894E-08 0.99999994 -0.99999994 7.5497894E-08 0.346 52.933)"  d="M0 0L19 0L19 5L0 5z" stroke="none" fill="#454343" fill-rule="nonzero" />
        <path transform="matrix(7.5497894E-08 0.99999994 -0.99999994 7.5497894E-08 -481.12 256.954)"  d="M-159.723 -384.963L-193.84401 -384.963C -194.59727 -384.95322 -195.32253 -385.24814 -195.85521 -385.78082C -196.38788 -386.3135 -196.68279 -387.03876 -196.673 -387.79202C -196.673 -392.21204 -198.794 -394.687 -201.973 -398.57602C -204.01228 -400.99136 -205.90146 -403.52945 -207.63 -406.17603C -212.93001 -414.83902 -217.707 -424.739 -218.768 -428.62903C -219.82901 -432.51904 -219.121 -434.81702 -218.061 -436.22903C -216.6765 -438.02585 -214.49115 -439.01926 -212.227 -438.88104C -208.86801 -438.88104 -205.332 -436.05203 -202.32701 -432.34006L-202.32701 -432.34006L-202.32701 -461.51105C -202.32755 -466.19727 -198.53023 -469.99725 -193.844 -470C -189.18298 -469.93863 -185.4194 -466.17505 -185.358 -461.514L-185.358 -461.514L-185.358 -449.669C -184.4593 -450.0309 -183.49777 -450.21106 -182.529 -450.199C -179.62193 -450.16776 -176.9144 -448.71503 -175.281 -446.31C -173.98518 -447.03217 -172.52122 -447.39822 -171.03801 -447.371C -167.23772 -447.3912 -163.89972 -444.85117 -162.906 -441.183C -161.88847 -441.5596 -160.80865 -441.73947 -159.724 -441.713C -155.03778 -441.7119 -151.23912 -437.91327 -151.238 -433.22702L-151.238 -433.22702L-151.238 -424.74103C -151.238 -417.49203 -152.65201 -411.48102 -154.067 -405.82404C -155.481 -399.99002 -156.896 -394.68604 -156.896 -387.96805C -156.86258 -386.36282 -158.12068 -385.02646 -159.72499 -384.96304L-159.72499 -384.96304L-159.723 -384.963zM-191.01501 -390.62003L-162.37502 -390.62003C -161.9529 -396.17767 -161.00568 -401.68286 -159.54602 -407.062C -158.13202 -412.71902 -156.89403 -418.2 -156.89403 -424.74103L-156.89403 -424.74103L-156.89403 -433.75702C -156.88426 -434.51025 -157.17917 -435.2355 -157.71184 -435.7682C -158.24452 -436.30087 -158.96977 -436.5958 -159.72302 -436.58603C -160.47627 -436.5958 -161.20152 -436.30087 -161.7342 -435.7682C -162.26688 -435.2355 -162.56178 -434.51025 -162.55202 -433.75702L-162.55202 -433.75702L-162.55202 -430.398C -162.54225 -429.64478 -162.83716 -428.91953 -163.36983 -428.38684C -163.90251 -427.85416 -164.62776 -427.55923 -165.38101 -427.569C -166.13426 -427.55923 -166.85951 -427.85416 -167.3922 -428.38684C -167.92487 -428.91953 -168.21977 -429.64478 -168.21 -430.398L-168.21 -430.398L-168.21 -439.415C -168.19997 -440.16833 -168.49478 -440.89377 -169.02753 -441.4265C -169.56026 -441.95926 -170.28568 -442.25406 -171.039 -442.24402C -171.79233 -442.25406 -172.51775 -441.95923 -173.05048 -441.4265C -173.58322 -440.89377 -173.87804 -440.16833 -173.868 -439.415L-173.868 -439.415L-173.868 -433.22702C -173.85873 -432.47357 -174.1543 -431.74835 -174.68758 -431.21603C -175.22084 -430.68372 -175.94658 -430.3894 -176.7 -430.4C -177.45326 -430.39023 -178.17851 -430.68515 -178.7112 -431.21783C -179.24387 -431.75052 -179.53877 -432.47577 -179.52899 -433.229L-179.52899 -433.229L-179.52899 -442.245C -179.51921 -442.99823 -179.81412 -443.72348 -180.34679 -444.25616C -180.87947 -444.78885 -181.60472 -445.08377 -182.35799 -445.074C -183.11125 -445.08377 -183.8365 -444.78885 -184.36919 -444.25616C -184.90186 -443.72348 -185.19676 -442.99823 -185.18698 -442.245L-185.18698 -442.245L-185.18698 -436.057C -185.1772 -435.30377 -185.4721 -434.57852 -186.00478 -434.04584C -186.53746 -433.51315 -187.26271 -433.21823 -188.01598 -433.228C -188.76924 -433.21823 -189.49449 -433.51315 -190.02718 -434.04584C -190.55984 -434.57852 -190.85475 -435.30377 -190.84497 -436.057L-190.84497 -436.057L-190.84497 -462.22202C -190.83492 -462.97534 -191.12973 -463.70078 -191.66248 -464.23352C -192.1952 -464.76627 -192.92062 -465.06107 -193.67397 -465.05103C -194.4273 -465.06107 -195.15273 -464.76624 -195.68546 -464.23352C -196.2182 -463.70078 -196.51302 -462.97534 -196.50296 -462.22202L-196.50296 -462.22202L-196.50296 -419.08502C -196.49318 -418.3318 -196.78809 -417.60654 -197.32076 -417.07385C -197.85344 -416.54117 -198.57869 -416.24625 -199.33195 -416.256C -200.08522 -416.24625 -200.81047 -416.54117 -201.34315 -417.07385C -201.87582 -417.60654 -202.17073 -418.3318 -202.16095 -419.08502L-202.16095 -419.08502L-202.16095 -421.385C -204.63596 -427.926 -210.29295 -433.58502 -212.06094 -433.58502C -212.76794 -433.58502 -213.12195 -433.40802 -213.29794 -432.87802C -213.58304 -432.07764 -213.58304 -431.20337 -213.29794 -430.403C -212.41394 -427.398 -207.99794 -418.203 -202.51395 -409.18802C -200.91968 -406.70627 -199.14842 -404.3428 -197.21394 -402.11603C -194.38495 -398.58002 -191.91394 -395.39804 -191.02594 -390.62402z" stroke="none" fill="#454343" fill-rule="nonzero" />
	</g>
</g>
</svg>