<svg width="16" height="16" viewBox="0 0 16 16" fill="none" xmlns="http://www.w3.org/2000/svg">
<path d="M13.8841 11.7896L13.4 11.4153V3.8002C13.4 3.46888 13.1313 3.2002 12.8 3.2002H12.2C11.8687 3.2002 11.6 3.46888 11.6 3.8002V10.0243L10.4 9.09688V6.20019C10.4 5.86888 10.1313 5.60019 9.79998 5.60019H9.19998C8.86867 5.60019 8.59998 5.86888 8.59998 6.20019V7.70563L2.85255 3.26338C2.72167 3.16176 2.53305 3.1852 2.43142 3.31607L2.06317 3.78988C1.96155 3.92057 1.98498 4.10901 2.11586 4.21082L13.1476 12.737C13.2785 12.8388 13.4669 12.8152 13.5687 12.6843L13.937 12.2105C14.0384 12.0798 14.015 11.8914 13.8841 11.7896V11.7896ZM3.79998 10.4002H3.19998C2.86867 10.4002 2.59998 10.6689 2.59998 11.0002V12.2002C2.59998 12.5315 2.86867 12.8002 3.19998 12.8002H3.79998C4.1313 12.8002 4.39998 12.5315 4.39998 12.2002V11.0002C4.39998 10.6689 4.1313 10.4002 3.79998 10.4002ZM5.59998 8.60019V12.2002C5.59998 12.5315 5.86867 12.8002 6.19998 12.8002H6.79998C7.13129 12.8002 7.39998 12.5315 7.39998 12.2002V9.81144L5.63129 8.44457C5.61742 8.49538 5.59998 8.54507 5.59998 8.60019V8.60019ZM8.59998 12.2002C8.59998 12.5315 8.86867 12.8002 9.19998 12.8002H9.79998C10.1313 12.8002 10.4 12.5315 10.4 12.2002V12.1303L8.59998 10.739V12.2002Z" fill="#6A6D7D"/>
</svg>
